<svg width="21" height="17" viewBox="0 0 21 17" fill="none" xmlns="http://www.w3.org/2000/svg">
<path d="M1.75 0.25C1.41848 0.25 1.10054 0.381696 0.866116 0.616116C0.631696 0.850537 0.5 1.16848 0.5 1.5C0.5 1.83152 0.631696 2.14946 0.866116 2.38388C1.10054 2.6183 1.41848 2.75 1.75 2.75H3.275L3.65625 4.2775C3.66004 4.29509 3.6642 4.31259 3.66875 4.33L5.36625 11.1175L4.25 12.2325C2.675 13.8075 3.79 16.5 6.0175 16.5H16.75C17.0815 16.5 17.3995 16.3683 17.6339 16.1339C17.8683 15.8995 18 15.5815 18 15.25C18 14.9185 17.8683 14.6005 17.6339 14.3661C17.3995 14.1317 17.0815 14 16.75 14H6.0175L7.2675 12.75H15.5C15.7321 12.7499 15.9595 12.6851 16.1569 12.5631C16.3543 12.441 16.5138 12.2664 16.6175 12.0587L20.3675 4.55875C20.4627 4.36822 20.5076 4.15653 20.4981 3.94376C20.4885 3.73098 20.4247 3.52419 20.3127 3.34299C20.2008 3.1618 20.0444 3.01221 19.8584 2.90843C19.6724 2.80465 19.463 2.75011 19.25 2.75H5.85L5.4625 1.19625C5.39478 0.925942 5.23869 0.686011 5.01901 0.514569C4.79933 0.343128 4.52866 0.250007 4.25 0.25H1.75Z" fill="white"/>
</svg>
