<svg width="8" height="8" viewBox="0 0 8 8" fill="none" xmlns="http://www.w3.org/2000/svg">
<path d="M6.70994 1.29C6.61698 1.19627 6.50637 1.12188 6.38452 1.07111C6.26266 1.02034 6.13195 0.994202 5.99994 0.994202C5.86793 0.994202 5.73722 1.02034 5.61536 1.07111C5.4935 1.12188 5.3829 1.19627 5.28994 1.29L3.99994 2.59L2.70994 1.29C2.52164 1.1017 2.26624 0.995909 1.99994 0.995909C1.73364 0.995909 1.47824 1.1017 1.28994 1.29C1.10164 1.4783 0.995848 1.7337 0.995848 2C0.995848 2.2663 1.10164 2.5217 1.28994 2.71L2.58994 4L1.28994 5.29C1.19621 5.38296 1.12182 5.49356 1.07105 5.61542C1.02028 5.73728 0.994141 5.86799 0.994141 6C0.994141 6.13201 1.02028 6.26272 1.07105 6.38458C1.12182 6.50644 1.19621 6.61704 1.28994 6.71C1.3829 6.80373 1.4935 6.87812 1.61536 6.92889C1.73722 6.97966 1.86793 7.0058 1.99994 7.0058C2.13195 7.0058 2.26266 6.97966 2.38452 6.92889C2.50638 6.87812 2.61698 6.80373 2.70994 6.71L3.99994 5.41L5.28994 6.71C5.3829 6.80373 5.4935 6.87812 5.61536 6.92889C5.73722 6.97966 5.86793 7.0058 5.99994 7.0058C6.13195 7.0058 6.26266 6.97966 6.38452 6.92889C6.50637 6.87812 6.61698 6.80373 6.70994 6.71C6.80367 6.61704 6.87806 6.50644 6.92883 6.38458C6.9796 6.26272 7.00574 6.13201 7.00574 6C7.00574 5.86799 6.9796 5.73728 6.92883 5.61542C6.87806 5.49356 6.80367 5.38296 6.70994 5.29L5.40994 4L6.70994 2.71C6.80367 2.61704 6.87806 2.50644 6.92883 2.38458C6.9796 2.26272 7.00574 2.13201 7.00574 2C7.00574 1.86799 6.9796 1.73728 6.92883 1.61542C6.87806 1.49356 6.80367 1.38296 6.70994 1.29Z" fill="#4F4F4F"/>
</svg>
