<svg width="37" height="37" viewBox="0 0 37 37" fill="none" xmlns="http://www.w3.org/2000/svg">
<rect x="0.756348" y="0.288574" width="36.0697" height="36.0697" rx="18.0348" fill="#EAEAEA"/>
<path d="M18.2963 23.1768C18.1802 23.1768 18.0816 23.142 18.0003 23.0724C17.9307 22.9911 17.8958 22.8924 17.8958 22.7763V19.1544H14.3262C14.2101 19.1544 14.1114 19.1196 14.0302 19.05C13.9605 18.9687 13.9257 18.87 13.9257 18.754V18.1967C13.9257 18.0807 13.9605 17.9878 14.0302 17.9181C14.1114 17.8369 14.2101 17.7962 14.3262 17.7962H17.8958V14.2788C17.8958 14.1627 17.9307 14.0699 18.0003 14.0002C18.0816 13.919 18.1802 13.8783 18.2963 13.8783H18.9058C19.0219 13.8783 19.1147 13.919 19.1844 14.0002C19.2656 14.0699 19.3063 14.1627 19.3063 14.2788V17.7962H22.8933C23.0094 17.7962 23.1023 17.8369 23.1719 17.9181C23.2532 17.9878 23.2938 18.0807 23.2938 18.1967V18.754C23.2938 18.87 23.2532 18.9687 23.1719 19.05C23.1023 19.1196 23.0094 19.1544 22.8933 19.1544H19.3063V22.7763C19.3063 22.8924 19.2656 22.9911 19.1844 23.0724C19.1147 23.142 19.0219 23.1768 18.9058 23.1768H18.2963Z" fill="#565656"/>
</svg>
