<svg width="15" height="15" viewBox="0 0 22 22" fill="none" xmlns="http://www.w3.org/2000/svg">
<path fill-rule="evenodd" clip-rule="evenodd" d="M11 4.8125C11.1823 4.8125 11.3572 4.88493 11.4861 5.01386C11.6151 5.1428 11.6875 5.31766 11.6875 5.5V11C11.6875 11.1823 11.6151 11.3572 11.4861 11.4861C11.3572 11.6151 11.1823 11.6875 11 11.6875H5.5C5.31766 11.6875 5.1428 11.6151 5.01386 11.4861C4.88493 11.3572 4.8125 11.1823 4.8125 11C4.8125 10.8177 4.88493 10.6428 5.01386 10.5139C5.1428 10.3849 5.31766 10.3125 5.5 10.3125H10.3125V5.5C10.3125 5.31766 10.3849 5.1428 10.5139 5.01386C10.6428 4.88493 10.8177 4.8125 11 4.8125Z" fill="black"/>
<path fill-rule="evenodd" clip-rule="evenodd" d="M10.3125 11C10.3125 10.8177 10.3849 10.6428 10.5139 10.5139C10.6428 10.3849 10.8177 10.3125 11 10.3125H16.5C16.6823 10.3125 16.8572 10.3849 16.9861 10.5139C17.1151 10.6428 17.1875 10.8177 17.1875 11C17.1875 11.1823 17.1151 11.3572 16.9861 11.4861C16.8572 11.6151 16.6823 11.6875 16.5 11.6875H11.6875V16.5C11.6875 16.6823 11.6151 16.8572 11.4861 16.9861C11.3572 17.1151 11.1823 17.1875 11 17.1875C10.8177 17.1875 10.6428 17.1151 10.5139 16.9861C10.3849 16.8572 10.3125 16.6823 10.3125 16.5V11Z" fill="black"/>
<path fill-rule="evenodd" clip-rule="evenodd" d="M11 20.625C13.5527 20.625 16.0009 19.6109 17.8059 17.8059C19.6109 16.0009 20.625 13.5527 20.625 11C20.625 8.44729 19.6109 5.99913 17.8059 4.1941C16.0009 2.38906 13.5527 1.375 11 1.375C8.44729 1.375 5.99913 2.38906 4.1941 4.1941C2.38906 5.99913 1.375 8.44729 1.375 11C1.375 13.5527 2.38906 16.0009 4.1941 17.8059C5.99913 19.6109 8.44729 20.625 11 20.625ZM11 22C13.9174 22 16.7153 20.8411 18.7782 18.7782C20.8411 16.7153 22 13.9174 22 11C22 8.08262 20.8411 5.28473 18.7782 3.22183C16.7153 1.15893 13.9174 0 11 0C8.08262 0 5.28473 1.15893 3.22183 3.22183C1.15893 5.28473 0 8.08262 0 11C0 13.9174 1.15893 16.7153 3.22183 18.7782C5.28473 20.8411 8.08262 22 11 22Z" fill="black"/>
</svg>
