<svg width="587" height="457" viewBox="0 0 587 457" fill="none" xmlns="http://www.w3.org/2000/svg">
<path d="M587 403.48H0V403.774H587V403.48Z" fill="#EBEBEB"/>
<path d="M91.572 414.657H61.588V414.95H91.572V414.657Z" fill="#EBEBEB"/>
<path d="M309.936 411.475H180.866V411.769H309.936V411.475Z" fill="#EBEBEB"/>
<path d="M199.58 418.484H114.265V418.778H199.58V418.484Z" fill="#EBEBEB"/>
<path d="M528.194 423.591H415.197V423.884H528.194V423.591Z" fill="#EBEBEB"/>
<path d="M404.737 423.591H397.305V423.884H404.737V423.591Z" fill="#EBEBEB"/>
<path d="M435.425 418.637H353.632V418.93H435.425V418.637Z" fill="#EBEBEB"/>
<path d="M278.238 351.12H51.5503C49.7745 351.117 48.0724 350.409 46.8178 349.152C45.5632 347.895 44.8585 346.192 44.8585 344.416V25.7575C44.874 23.9918 45.5855 22.3036 46.8384 21.0594C48.0914 19.8153 49.7846 19.1157 51.5503 19.1127H278.238C280.016 19.1127 281.721 19.8189 282.978 21.0761C284.235 22.3333 284.942 24.0383 284.942 25.8162V344.416C284.942 346.194 284.235 347.899 282.978 349.156C281.721 350.414 280.016 351.12 278.238 351.12ZM51.5503 19.3475C49.8523 19.3506 48.2249 20.0273 47.0253 21.2291C45.8257 22.4309 45.152 24.0595 45.152 25.7575V344.416C45.152 346.114 45.8257 347.743 47.0253 348.945C48.2249 350.147 49.8523 350.823 51.5503 350.826H278.238C279.937 350.823 281.566 350.147 282.767 348.945C283.969 347.744 284.645 346.115 284.648 344.416V25.7575C284.645 24.0584 283.969 22.4298 282.767 21.2284C281.566 20.0269 279.937 19.3506 278.238 19.3475H51.5503Z" fill="#EBEBEB"/>
<path d="M532.186 351.12H305.486C303.71 351.117 302.006 350.409 300.75 349.153C299.493 347.897 298.786 346.193 298.783 344.416V25.7575C298.801 23.9908 299.516 22.3025 300.77 21.0587C302.025 19.8149 303.72 19.1157 305.486 19.1127H532.186C533.95 19.1188 535.64 19.8197 536.89 21.0635C538.141 22.3074 538.851 23.9939 538.866 25.7575V344.416C538.866 346.19 538.163 347.892 536.911 349.148C535.659 350.405 533.96 351.114 532.186 351.12ZM305.486 19.3475C303.787 19.3506 302.159 20.0269 300.957 21.2284C299.756 22.4298 299.08 24.0584 299.076 25.7575V344.416C299.08 346.115 299.756 347.744 300.957 348.945C302.159 350.147 303.787 350.823 305.486 350.826H532.186C533.885 350.823 535.514 350.147 536.715 348.945C537.916 347.744 538.593 346.115 538.596 344.416V25.7575C538.593 24.0584 537.916 22.4298 536.715 21.2284C535.514 20.0269 533.885 19.3506 532.186 19.3475H305.486Z" fill="#EBEBEB"/>
<path d="M495.816 403.48H531.235V264.091H495.816V403.48Z" fill="#F0F0F0"/>
<path d="M493.468 264.091H531.235V258.609H493.468V264.091Z" fill="#E6E6E6"/>
<path d="M276.266 67.4697H93.0277V403.48H276.266V67.4697Z" fill="#E6E6E6"/>
<path d="M256.683 67.4697H73.4454V392.233H256.683V67.4697Z" fill="#F5F5F5"/>
<path d="M188.674 88.7661H151.552L98.8508 392.233H135.973L188.674 88.7661Z" fill="#FAFAFA"/>
<path d="M238.709 88.7661H201.588L148.887 392.233H186.02L238.709 88.7661Z" fill="#FAFAFA"/>
<path d="M256.683 67.4697H73.4454V96.3384H256.683V67.4697Z" fill="#E0E0E0"/>
<path d="M184.776 202.515H178.612V250.872H184.776V202.515Z" fill="#E0E0E0"/>
<path d="M166.238 67.4697H163.879V392.233H166.238V67.4697Z" fill="#E6E6E6"/>
<path d="M151.505 202.515H145.341V250.872H151.505V202.515Z" fill="#E0E0E0"/>
<path d="M493.467 258.609H262.976V264.091H493.467V258.609Z" fill="#F0F0F0"/>
<path d="M495.815 264.091H265.911V403.48H495.815V264.091Z" fill="#F5F5F5"/>
<path d="M380.317 403.48H381.421V264.091H380.317V403.48Z" fill="#E6E6E6"/>
<path d="M415.983 217.777H403.069C402.622 217.774 402.194 217.595 401.877 217.278C401.561 216.962 401.382 216.534 401.379 216.086C401.379 215.637 401.557 215.206 401.873 214.887C402.19 214.568 402.62 214.387 403.069 214.384H415.983C416.435 214.384 416.868 214.564 417.187 214.883C417.506 215.202 417.686 215.635 417.686 216.086C417.683 216.536 417.502 216.966 417.183 217.283C416.864 217.599 416.433 217.777 415.983 217.777Z" fill="#E0E0E0"/>
<path d="M462.11 205.391H409.268C408.081 205.391 407.12 206.353 407.12 207.54V256.46C407.12 257.647 408.081 258.609 409.268 258.609H462.11C463.296 258.609 464.258 257.647 464.258 256.46V207.54C464.258 206.353 463.296 205.391 462.11 205.391Z" fill="#EBEBEB"/>
<path d="M418.637 201.012L404.549 203.865C404.052 203.959 403.609 204.235 403.307 204.639C403.004 205.044 402.864 205.547 402.914 206.05C402.964 206.552 403.201 207.018 403.577 207.354C403.954 207.691 404.443 207.874 404.948 207.868H466.371C466.877 207.874 467.365 207.691 467.742 207.354C468.118 207.018 468.355 206.552 468.405 206.05C468.455 205.547 468.315 205.044 468.013 204.639C467.71 204.235 467.267 203.959 466.771 203.865L452.683 201.012C441.448 198.741 429.872 198.741 418.637 201.012Z" fill="#F5F5F5"/>
<path d="M468.426 217.777H455.512C455.065 217.774 454.636 217.595 454.32 217.278C454.004 216.962 453.825 216.534 453.822 216.086C453.822 215.637 453.999 215.206 454.316 214.887C454.633 214.568 455.063 214.387 455.512 214.384H468.426C468.876 214.387 469.306 214.568 469.622 214.887C469.939 215.206 470.117 215.637 470.117 216.086C470.114 216.534 469.934 216.962 469.618 217.278C469.302 217.595 468.874 217.774 468.426 217.777Z" fill="#E0E0E0"/>
<path d="M356.567 227.463H346.717C346.375 227.463 346.046 227.326 345.804 227.084C345.562 226.842 345.426 226.514 345.426 226.171C345.426 225.829 345.562 225.5 345.804 225.258C346.046 225.016 346.375 224.88 346.717 224.88H356.567C356.91 224.88 357.238 225.016 357.48 225.258C357.723 225.5 357.859 225.829 357.859 226.171C357.859 226.514 357.723 226.842 357.48 227.084C357.238 227.326 356.91 227.463 356.567 227.463Z" fill="#E0E0E0"/>
<path d="M391.74 218.012H351.449C350.541 218.012 349.805 218.748 349.805 219.655V256.965C349.805 257.873 350.541 258.609 351.449 258.609H391.74C392.648 258.609 393.384 257.873 393.384 256.965V219.655C393.384 218.748 392.648 218.012 391.74 218.012Z" fill="#EBEBEB"/>
<path d="M358.587 214.678L347.856 216.85C347.474 216.916 347.131 217.126 346.896 217.435C346.661 217.744 346.552 218.131 346.591 218.518C346.629 218.904 346.813 219.262 347.104 219.518C347.395 219.775 347.773 219.912 348.162 219.902H395.016C395.404 219.912 395.782 219.775 396.073 219.518C396.365 219.262 396.548 218.904 396.587 218.518C396.625 218.131 396.516 217.744 396.282 217.435C396.047 217.126 395.704 216.916 395.321 216.85L384.591 214.678C376.01 212.94 367.168 212.94 358.587 214.678Z" fill="#F5F5F5"/>
<path d="M396.565 227.463H386.716C386.546 227.463 386.378 227.429 386.221 227.364C386.065 227.299 385.922 227.204 385.802 227.084C385.683 226.964 385.587 226.822 385.523 226.665C385.458 226.509 385.424 226.341 385.424 226.171C385.424 226.002 385.458 225.834 385.523 225.677C385.587 225.52 385.683 225.378 385.802 225.258C385.922 225.138 386.065 225.043 386.221 224.978C386.378 224.913 386.546 224.88 386.716 224.88H396.565C396.908 224.88 397.236 225.016 397.479 225.258C397.721 225.5 397.857 225.829 397.857 226.171C397.857 226.514 397.721 226.842 397.479 227.084C397.236 227.326 396.908 227.463 396.565 227.463Z" fill="#E0E0E0"/>
<path d="M474.683 121.579H331.678V130.185H474.683V121.579Z" fill="#FAFAFA"/>
<path d="M474.683 72.8585H418.836L331.678 121.58H474.683V72.8585Z" fill="#F5F5F5"/>
<path d="M474.683 130.185H521.843V121.579H474.683V130.185Z" fill="#EBEBEB"/>
<path d="M474.683 72.8585H489.816L521.843 121.58H474.683V72.8585Z" fill="#EBEBEB"/>
<path d="M453.023 0H474.683V72.8584H418.836V34.1869C418.836 25.1199 422.438 16.4244 428.849 10.0131C435.261 3.60182 443.956 0 453.023 0Z" fill="#FAFAFA"/>
<path d="M474.695 72.8585H489.828V9.15527e-05H474.695V72.8585Z" fill="#EBEBEB"/>
<path d="M293.5 456.498C419.215 456.498 521.127 450.548 521.127 443.208C521.127 435.869 419.215 429.919 293.5 429.919C167.785 429.919 65.8732 435.869 65.8732 443.208C65.8732 450.548 167.785 456.498 293.5 456.498Z" fill="#F5F5F5"/>
<path d="M328.133 433.335L318.577 433.417L317.121 411.299L326.677 411.205L328.133 433.335Z" fill="#FFB573"/>
<path d="M318.06 432.361L328.802 432.267C328.892 432.262 328.981 432.275 329.066 432.305C329.15 432.335 329.228 432.381 329.294 432.441C329.361 432.501 329.415 432.574 329.453 432.654C329.492 432.735 329.514 432.823 329.518 432.913L330.117 441.401C330.123 441.847 329.953 442.278 329.643 442.599C329.333 442.92 328.908 443.105 328.462 443.115C324.717 443.115 322.932 442.88 318.213 442.927C315.301 442.927 306.637 443.373 302.622 443.408C298.607 443.443 298.689 439.487 300.391 439.111C307.999 437.421 313.74 435.12 316.428 432.971C316.891 432.595 317.464 432.38 318.06 432.361Z" fill="#263238"/>
<path opacity="0.2" d="M326.689 411.217L317.121 411.311L317.872 422.711L327.44 422.617L326.689 411.217Z" fill="black"/>
<path d="M322.263 190.798C322.263 190.798 310.406 274.892 307.964 302.199C305.287 332.089 313.705 420.374 313.705 420.374L331.185 419.435C331.185 419.435 330.141 338.182 335.506 308.985C341.376 277.287 356.415 190.798 356.415 190.798H322.263Z" fill="#263238"/>
<path opacity="0.3" d="M342.021 232.311C331.843 248.36 335.893 274.693 339.486 286.879C342.738 268.729 346.694 246.282 349.958 227.65C348.549 224.246 347.504 223.753 342.021 232.311Z" fill="black"/>
<path d="M331.69 419.623L312.977 420.632L310.969 413.553L332.489 413.753L331.69 419.623Z" fill="#E1BE57"/>
<path d="M314.691 434.016C315.55 433.983 316.404 433.861 317.238 433.652C317.28 433.642 317.317 433.619 317.346 433.588C317.375 433.557 317.395 433.518 317.403 433.476C317.41 433.434 317.405 433.39 317.389 433.351C317.372 433.311 317.344 433.277 317.309 433.253C317.004 433.042 314.28 431.222 313.118 431.692C312.985 431.745 312.868 431.831 312.778 431.942C312.687 432.053 312.626 432.185 312.601 432.325C312.539 432.529 312.533 432.746 312.585 432.953C312.637 433.16 312.744 433.349 312.895 433.499C313.406 433.893 314.048 434.078 314.691 434.016ZM316.616 433.335C314.914 433.687 313.658 433.652 313.2 433.206C313.104 433.102 313.038 432.974 313.01 432.835C312.981 432.697 312.99 432.553 313.035 432.419C313.045 432.349 313.073 432.283 313.116 432.228C313.159 432.172 313.217 432.129 313.282 432.102C313.904 431.844 315.501 432.642 316.616 433.335Z" fill="#E1BE57"/>
<path d="M317.18 433.652C317.214 433.663 317.251 433.663 317.285 433.652C317.319 433.636 317.347 433.611 317.368 433.58C317.388 433.549 317.4 433.513 317.403 433.476C317.403 433.359 317.602 430.612 316.628 429.684C316.501 429.566 316.351 429.478 316.186 429.425C316.022 429.373 315.848 429.357 315.677 429.379C315.486 429.39 315.305 429.465 315.16 429.59C315.016 429.715 314.917 429.884 314.878 430.072C314.667 431.116 316.111 433.089 317.074 433.652C317.108 433.663 317.145 433.663 317.18 433.652ZM315.806 429.79C315.987 429.79 316.16 429.862 316.287 429.989C316.874 430.529 316.956 432.114 316.945 433.018C316.111 432.326 315.149 430.811 315.278 430.13C315.278 430.001 315.383 429.848 315.7 429.802L315.806 429.79Z" fill="#E1BE57"/>
<path d="M334.402 119.325C330.869 125.779 326.949 132.013 322.662 137.992C320.502 140.986 318.236 143.956 315.724 146.832C313.108 149.971 310.133 152.792 306.86 155.238C306.426 155.567 305.874 155.907 305.369 156.224C304.864 156.541 304.442 156.741 303.972 157.011C303.068 157.516 302.152 157.985 301.272 158.384C299.476 159.23 297.75 159.911 295.965 160.603C292.443 161.965 288.921 162.951 285.47 164.066C278.523 166.057 271.467 167.644 264.338 168.821L262.412 161.906C268.893 159.206 275.444 156.494 281.795 153.688C284.977 152.303 288.123 150.859 291.129 149.356C292.608 148.605 294.099 147.83 295.449 147.008C296.165 146.621 296.799 146.222 297.409 145.834C297.691 145.635 298.079 145.423 298.29 145.247C298.501 145.071 298.724 144.93 298.983 144.695C301.218 142.659 303.254 140.414 305.064 137.992C307.06 135.397 309.02 132.627 310.934 129.774C314.691 124.115 318.365 118.116 321.782 112.293L334.402 119.325Z" fill="#FFB573"/>
<path d="M317.837 114.442C313.446 119.067 309.866 130.878 298.466 143.216L303.925 159.406C318.612 152.068 337.126 121.65 337.196 115.263C337.302 105.73 328.004 103.723 317.837 114.442Z" fill="#E1BE57"/>
<path opacity="0.7" d="M317.837 114.442C313.446 119.067 309.866 130.878 298.466 143.216L303.925 159.406C318.612 152.068 337.126 121.65 337.196 115.263C337.302 105.73 328.004 103.723 317.837 114.442Z" fill="white"/>
<path opacity="0.3" d="M329.448 122.155C321.969 128.846 318.119 139.553 315.172 150.448C321.376 143.782 326.825 136.45 331.42 128.588L329.448 122.155Z" fill="#E1BE57"/>
<path d="M366.018 433.429H356.462L355.217 411.299H364.774L366.018 433.429Z" fill="#FFB573"/>
<path d="M355.957 432.361H366.699C366.788 432.358 366.877 432.372 366.961 432.404C367.045 432.435 367.122 432.482 367.187 432.543C367.253 432.605 367.306 432.678 367.343 432.759C367.38 432.841 367.4 432.929 367.403 433.018L367.932 441.506C367.932 441.954 367.755 442.383 367.441 442.702C367.127 443.02 366.7 443.202 366.253 443.209C362.519 443.138 360.735 442.927 356.004 442.927C353.104 442.927 345.813 443.22 341.81 443.22C337.807 443.22 337.912 439.264 339.603 438.9C347.234 437.292 351.613 435.073 354.313 432.948C354.781 432.575 355.359 432.368 355.957 432.361Z" fill="#263238"/>
<path opacity="0.2" d="M364.785 411.299H355.217L355.863 422.71H365.419L364.785 411.299Z" fill="black"/>
<path d="M340.93 190.317C340.93 190.317 340.014 263.352 341.564 290.718C343.266 320.69 351.766 419.963 351.766 419.963H369.27C369.27 419.963 368.753 323.108 369.798 293.441C370.972 261.238 372.146 190.317 372.146 190.317H340.93Z" fill="#263238"/>
<path d="M369.974 419.963H351.061L350.005 413.318L370.89 414.352L369.974 419.963Z" fill="#E1BE57"/>
<path d="M352.576 433.993C353.434 433.967 354.288 433.853 355.123 433.652C355.165 433.642 355.202 433.619 355.231 433.588C355.26 433.557 355.28 433.518 355.288 433.476C355.295 433.434 355.29 433.39 355.274 433.351C355.257 433.311 355.229 433.277 355.194 433.253C354.888 433.042 352.188 431.187 351.014 431.645C350.882 431.698 350.765 431.784 350.674 431.895C350.584 432.006 350.523 432.138 350.498 432.278C350.442 432.482 350.439 432.696 350.488 432.902C350.538 433.107 350.638 433.296 350.779 433.452C351.289 433.851 351.93 434.044 352.576 433.993ZM354.513 433.323C352.799 433.664 351.543 433.617 351.096 433.171C351.002 433.063 350.937 432.933 350.908 432.793C350.879 432.653 350.888 432.508 350.932 432.372C350.943 432.303 350.971 432.237 351.014 432.182C351.057 432.126 351.114 432.083 351.179 432.055C351.813 431.809 353.374 432.619 354.548 433.323H354.513Z" fill="#E1BE57"/>
<path d="M355.065 433.652H355.17C355.204 433.636 355.232 433.611 355.253 433.58C355.273 433.549 355.285 433.513 355.288 433.476C355.288 433.359 355.511 430.611 354.548 429.684C354.428 429.56 354.28 429.467 354.117 429.411C353.954 429.356 353.779 429.341 353.609 429.367C353.419 429.373 353.236 429.442 353.089 429.563C352.943 429.684 352.84 429.851 352.799 430.036C352.576 431.081 353.973 433.077 354.959 433.652H355.065ZM353.761 429.778C353.942 429.778 354.115 429.85 354.243 429.978C354.774 430.893 354.992 431.956 354.865 433.006C354.043 432.314 353.092 430.799 353.233 430.107C353.233 429.978 353.339 429.825 353.656 429.79L353.761 429.778Z" fill="#E1BE57"/>
<path d="M264.044 161.249L253.056 162.012L257.165 171.768C257.165 171.768 267.355 169.42 267.261 166.133L264.044 161.249Z" fill="#FFB573"/>
<path d="M249.663 170.7L252.363 173.048C252.826 173.463 253.426 173.692 254.048 173.692C254.669 173.692 255.269 173.463 255.732 173.048L257.165 171.768L253.056 162.012L249.264 167.33C248.902 167.842 248.743 168.469 248.817 169.091C248.89 169.714 249.192 170.286 249.663 170.7Z" fill="#FFB573"/>
<path d="M249.052 158.114L247.057 160.404L282.277 207.094H284.625L249.052 158.114ZM250.226 163.515L248.313 160.967L249.369 159.793L251.189 162.294L250.226 163.515Z" fill="#263238"/>
<path d="M315.09 225.349L373.907 228.871C374.271 224.304 373.121 178.319 373.907 159.406C374.447 146.703 375.363 125.242 378.545 110.779C378.633 110.381 378.64 109.97 378.566 109.569C378.491 109.168 378.336 108.787 378.11 108.448C377.884 108.109 377.592 107.82 377.251 107.597C376.91 107.374 376.527 107.222 376.126 107.151C375.21 106.998 374.13 106.822 372.945 106.658C369.857 106.2 365.994 105.742 362.202 105.554C354.965 105.143 347.709 105.143 340.472 105.554C337.138 105.871 333.874 106.423 331.268 106.928C330.187 107.139 329.26 107.351 328.485 107.527C327.732 107.709 327.046 108.098 326.502 108.65C325.959 109.201 325.58 109.894 325.409 110.65C322.92 121.92 313.094 170.207 315.09 225.349Z" fill="#E1BE57"/>
<path opacity="0.7" d="M315.09 225.349L373.907 228.871C374.271 224.304 373.121 178.319 373.907 159.406C374.447 146.703 375.363 125.242 378.545 110.779C378.633 110.381 378.64 109.97 378.566 109.569C378.491 109.168 378.336 108.787 378.11 108.448C377.884 108.109 377.592 107.82 377.251 107.597C376.91 107.374 376.527 107.222 376.126 107.151C375.21 106.998 374.13 106.822 372.945 106.658C369.857 106.2 365.994 105.742 362.202 105.554C354.965 105.143 347.709 105.143 340.472 105.554C337.138 105.871 333.874 106.423 331.268 106.928C330.187 107.139 329.26 107.351 328.485 107.527C327.732 107.709 327.046 108.098 326.502 108.65C325.959 109.201 325.58 109.894 325.409 110.65C322.92 121.92 313.094 170.207 315.09 225.349Z" fill="white"/>
<path d="M382.207 113.808C383.381 115.557 384.297 117.142 385.26 118.832C386.222 120.523 387.126 122.19 388.019 123.881C389.768 127.297 391.412 130.784 392.867 134.376C394.36 138.002 395.658 141.705 396.753 145.47C397.258 147.407 397.763 149.333 398.127 151.34L398.279 152.08L398.362 152.456V152.679L398.432 153.125C398.578 154.18 398.578 155.251 398.432 156.306C398.202 157.854 397.738 159.358 397.058 160.768C396.026 162.862 394.757 164.831 393.278 166.638C391.952 168.269 390.59 169.76 389.193 171.169C386.47 173.856 383.605 176.396 380.611 178.777C374.746 183.512 368.568 187.846 362.12 191.749L357.87 185.973C363.177 181.09 368.436 176.018 373.449 170.923C375.915 168.34 378.345 165.769 380.493 163.104C381.573 161.789 382.595 160.474 383.475 159.171C384.257 158.05 384.911 156.845 385.424 155.579C385.546 155.322 385.61 155.041 385.612 154.757C385.575 154.903 385.575 155.056 385.612 155.203V155.297C385.612 155.297 385.612 155.226 385.612 155.191L385.518 154.886L385.342 154.299C384.919 152.714 384.356 151.129 383.816 149.544C382.642 146.351 381.292 143.181 379.848 140.023C378.404 136.865 376.807 133.73 375.152 130.631C374.369 129.066 373.528 127.52 372.628 125.994L370.045 121.533L382.207 113.808Z" fill="#FFB573"/>
<path opacity="0.3" d="M369.023 127.872C367.709 135.55 372.545 147.384 374.271 151.352C374.506 146.515 374.811 141.115 375.246 135.62L369.023 127.872Z" fill="#E1BE57"/>
<path d="M375.175 106.975C365.443 106.259 362.261 120.218 364.75 127.884C366.816 134.306 374.8 140.798 382.031 154.463L400.111 151.951C394.734 129.246 384.99 107.691 375.175 106.975Z" fill="#E1BE57"/>
<path opacity="0.7" d="M375.175 106.975C365.443 106.259 362.261 120.218 364.75 127.884C366.816 134.306 374.8 140.798 382.031 154.463L400.111 151.951C394.734 129.246 384.99 107.691 375.175 106.975Z" fill="white"/>
<path d="M356.896 186.995L351.437 198.242L363.376 196.586C363.376 196.586 365.724 188.227 361.31 187.37L359.831 186.279C359.599 186.108 359.332 185.991 359.05 185.934C358.768 185.878 358.476 185.884 358.197 185.953C357.917 186.021 357.655 186.149 357.431 186.33C357.206 186.51 357.024 186.737 356.896 186.995Z" fill="#FFB573"/>
<path d="M267.05 209.946H261.473C260.953 209.946 260.455 209.74 260.087 209.372C259.719 209.004 259.513 208.506 259.513 207.986C259.516 207.467 259.723 206.97 260.09 206.603C260.457 206.236 260.954 206.028 261.473 206.025H267.05C267.568 206.031 268.063 206.24 268.429 206.606C268.796 206.973 269.004 207.468 269.01 207.986C269.007 208.505 268.8 209.002 268.433 209.369C268.066 209.736 267.569 209.943 267.05 209.946Z" fill="#E1BE57"/>
<path d="M303.009 205.708L298.313 208.702C298.096 208.841 297.854 208.936 297.599 208.981C297.345 209.027 297.085 209.021 296.833 208.966C296.581 208.91 296.343 208.805 296.131 208.657C295.92 208.509 295.74 208.321 295.601 208.103C295.327 207.665 295.236 207.136 295.348 206.631C295.46 206.126 295.766 205.685 296.2 205.403L300.896 202.398C301.335 202.123 301.864 202.032 302.369 202.144C302.874 202.256 303.315 202.562 303.596 202.996C303.875 203.435 303.97 203.965 303.86 204.473C303.75 204.981 303.445 205.425 303.009 205.708Z" fill="#E1BE57"/>
<path d="M275.233 209.019C264.667 209.019 262.131 204.323 262.025 204.1L262.307 203.947C262.307 204.006 264.901 208.702 275.221 208.702H276.395C282.5 208.502 285.951 205.884 289.004 203.583C291.762 201.494 294.157 199.697 297.867 200.061C298.858 200.062 299.837 200.271 300.742 200.676C301.646 201.08 302.455 201.671 303.115 202.409C303.964 203.586 304.314 205.05 304.089 206.483L303.784 206.424C303.986 205.078 303.657 203.706 302.868 202.597C302.239 201.885 301.466 201.313 300.6 200.921C299.734 200.528 298.795 200.323 297.844 200.32C294.251 200.014 291.903 201.787 289.191 203.842C286.104 206.19 282.617 208.819 276.407 209.019H275.233Z" fill="#E1BE57"/>
<path d="M255.275 211.332C255.275 211.332 253.103 205.873 257.564 204.018C259.912 203.032 261.955 204.476 264.326 206.154C266.698 207.833 269.68 209.958 273.554 209.418C284.12 207.962 284.39 199.075 284.39 198.981H284.695C284.695 199.075 284.39 208.232 273.601 209.723C269.597 210.275 266.698 208.221 264.138 206.413C261.79 204.793 259.877 203.384 257.681 204.3C253.514 206.037 255.474 211.003 255.556 211.214L255.275 211.332Z" fill="#E1BE57"/>
<path d="M294.157 201.811L291.07 203.431C290.93 203.513 290.774 203.566 290.612 203.585C290.451 203.604 290.287 203.59 290.131 203.542C289.976 203.495 289.831 203.415 289.708 203.309C289.585 203.203 289.485 203.073 289.415 202.926C289.332 202.786 289.279 202.63 289.26 202.468C289.241 202.307 289.255 202.143 289.303 201.987C289.35 201.832 289.43 201.687 289.536 201.564C289.642 201.441 289.773 201.341 289.919 201.271L293.007 199.627C293.148 199.545 293.304 199.493 293.466 199.474C293.629 199.456 293.793 199.471 293.949 199.52C294.104 199.569 294.248 199.649 294.371 199.757C294.494 199.864 294.593 199.996 294.662 200.143C294.747 200.284 294.801 200.441 294.821 200.604C294.842 200.767 294.828 200.932 294.78 201.089C294.732 201.246 294.652 201.392 294.545 201.516C294.438 201.64 294.306 201.74 294.157 201.811Z" fill="#E1BE57"/>
<path d="M314.632 206.272L309.384 204.464C308.904 204.286 308.512 203.928 308.292 203.465C308.073 203.002 308.043 202.471 308.21 201.987C308.39 201.505 308.751 201.113 309.216 200.894C309.681 200.675 310.213 200.646 310.699 200.813L315.935 202.621C316.416 202.798 316.808 203.157 317.027 203.62C317.246 204.083 317.276 204.613 317.109 205.098C316.934 205.58 316.576 205.974 316.112 206.194C315.648 206.414 315.116 206.442 314.632 206.272Z" fill="#E1BE57"/>
<path d="M320.373 210.639L260.311 215.981C258.92 216.109 257.534 215.687 256.449 214.807L249.041 208.784L330.188 201.552L323.965 208.796C323.049 209.849 321.763 210.509 320.373 210.639Z" fill="#263238"/>
<path d="M323.273 203.701L370.397 199.31L373.755 201.987L368.836 203.067L367.521 201.717L323.096 205.556L323.273 203.701Z" fill="#263238"/>
<path d="M355.393 204.1L360.864 204.886C361.231 204.938 361.605 204.907 361.958 204.796C362.312 204.685 362.636 204.497 362.908 204.245C363.18 203.993 363.392 203.684 363.53 203.341C363.668 202.997 363.728 202.626 363.705 202.257L363.376 196.586L351.437 198.242L353.057 202.245C353.247 202.733 353.564 203.163 353.974 203.488C354.385 203.814 354.874 204.025 355.393 204.1Z" fill="#FFB573"/>
<path d="M354.888 113.291C352.837 113.421 350.809 112.799 349.183 111.542C348.706 111.125 348.331 110.605 348.087 110.021C347.843 109.437 347.736 108.804 347.774 108.172C347.772 108.139 347.777 108.105 347.79 108.074C347.802 108.043 347.822 108.015 347.847 107.993C347.871 107.97 347.901 107.953 347.933 107.944C347.965 107.934 347.999 107.932 348.032 107.938C348.066 107.939 348.099 107.947 348.129 107.962C348.159 107.976 348.186 107.997 348.208 108.022C348.23 108.047 348.246 108.077 348.256 108.109C348.267 108.141 348.27 108.174 348.267 108.208C348.225 108.764 348.316 109.322 348.533 109.837C348.749 110.351 349.085 110.807 349.511 111.166C351.19 112.681 354.208 113.162 357.882 112.528C359.718 112.246 361.414 111.38 362.718 110.058C364.023 108.736 364.867 107.03 365.126 105.19C365.129 105.158 365.138 105.127 365.153 105.099C365.169 105.071 365.19 105.046 365.215 105.026C365.24 105.006 365.269 104.992 365.3 104.984C365.332 104.976 365.364 104.974 365.396 104.979C365.428 104.982 365.46 104.991 365.488 105.007C365.517 105.022 365.543 105.043 365.564 105.068C365.584 105.093 365.6 105.122 365.609 105.153C365.619 105.184 365.622 105.217 365.619 105.249C365.326 107.186 364.428 108.981 363.053 110.377C361.678 111.773 359.897 112.699 357.964 113.021C356.948 113.193 355.919 113.283 354.888 113.291Z" fill="#263238"/>
<path d="M330.493 222.215C330.427 222.215 330.365 222.189 330.318 222.142C330.272 222.096 330.246 222.034 330.246 221.968C330.105 194.555 332.536 135.527 335.588 119.924C335.603 119.865 335.636 119.812 335.682 119.771C340.812 115.956 345.684 111.941 345.731 111.906C345.754 111.882 345.782 111.864 345.812 111.851C345.842 111.838 345.875 111.832 345.907 111.832C345.94 111.832 345.973 111.838 346.003 111.851C346.033 111.864 346.061 111.882 346.083 111.906C346.127 111.952 346.152 112.012 346.152 112.076C346.152 112.139 346.127 112.2 346.083 112.246C346.083 112.246 341.2 116.273 336.093 120.077C333.052 135.797 330.634 194.59 330.775 221.921C330.775 221.988 330.749 222.052 330.703 222.1C330.657 222.148 330.594 222.176 330.528 222.179L330.493 222.215Z" fill="#263238"/>
<path d="M341.364 126.933C341.188 128.318 340.401 129.363 339.603 129.281C338.805 129.199 338.276 127.978 338.429 126.592C338.582 125.207 339.38 124.162 340.19 124.244C341 124.327 341.528 125.548 341.364 126.933Z" fill="#263238"/>
<path d="M349.758 126.933C349.594 128.318 348.807 129.363 347.997 129.281C347.187 129.199 346.67 127.978 346.823 126.592C346.976 125.207 347.786 124.162 348.584 124.244C349.382 124.327 349.922 125.548 349.758 126.933Z" fill="#263238"/>
<path d="M339.873 147.29C339.697 148.675 338.91 149.72 338.112 149.638C337.314 149.556 336.785 148.335 336.938 146.95C337.091 145.564 337.889 144.519 338.699 144.602C339.509 144.684 340.037 145.905 339.873 147.29Z" fill="#263238"/>
<path d="M348.267 147.29C348.103 148.675 347.316 149.72 346.506 149.638C345.696 149.556 345.179 148.335 345.332 146.95C345.485 145.564 346.295 144.519 347.093 144.602C347.891 144.684 348.431 145.905 348.267 147.29Z" fill="#263238"/>
<path d="M338.112 169.749C337.948 171.134 337.161 172.179 336.351 172.097C335.541 172.014 335.024 170.805 335.177 169.42C335.33 168.035 336.14 166.99 336.938 167.072C337.736 167.154 338.288 168.363 338.112 169.749Z" fill="#263238"/>
<path d="M346.53 169.749C346.353 171.134 345.567 172.179 344.757 172.097C343.947 172.014 343.442 170.805 343.583 169.42C343.724 168.035 344.534 166.99 345.344 167.072C346.154 167.154 346.694 168.363 346.53 169.749Z" fill="#263238"/>
<path d="M336.938 194.778C336.774 196.164 335.987 197.209 335.177 197.126C334.367 197.044 333.862 195.823 334.003 194.438C334.144 193.053 334.954 192.008 335.764 192.09C336.574 192.172 337.114 193.393 336.938 194.778Z" fill="#263238"/>
<path d="M345.344 194.778C345.179 196.164 344.393 197.209 343.583 197.126C342.773 197.044 342.256 195.823 342.409 194.438C342.561 193.053 343.36 192.008 344.17 192.09C344.98 192.172 345.508 193.393 345.344 194.778Z" fill="#263238"/>
<path d="M342.221 112C341.535 112.006 340.856 111.865 340.23 111.586C339.604 111.306 339.046 110.895 338.593 110.38C336.774 108.337 339.767 105.214 339.861 105.085C339.883 105.062 339.91 105.043 339.939 105.031C339.968 105.018 340 105.012 340.031 105.012C340.063 105.012 340.095 105.018 340.124 105.031C340.153 105.043 340.18 105.062 340.202 105.085C340.225 105.108 340.244 105.135 340.256 105.165C340.269 105.196 340.276 105.228 340.276 105.261C340.276 105.294 340.269 105.326 340.256 105.356C340.244 105.387 340.225 105.414 340.202 105.437C340.202 105.437 337.431 108.36 338.957 110.063C339.484 110.656 340.162 111.095 340.919 111.332C341.676 111.57 342.483 111.598 343.254 111.413C344.206 111.243 345.106 110.857 345.885 110.285C346.665 109.713 347.303 108.971 347.75 108.114C347.774 108.053 347.821 108.004 347.88 107.978C347.939 107.952 348.007 107.95 348.067 107.973C348.098 107.982 348.126 107.997 348.151 108.018C348.175 108.039 348.195 108.064 348.21 108.093C348.224 108.121 348.232 108.152 348.234 108.184C348.236 108.216 348.231 108.248 348.22 108.278C347.738 109.213 347.048 110.024 346.203 110.651C345.359 111.278 344.382 111.703 343.348 111.894C342.977 111.968 342.599 112.003 342.221 112Z" fill="#263238"/>
<path d="M341.517 105.46C347.833 103.958 348.948 100.06 348.561 95.7632C348.459 94.6893 348.291 93.6227 348.056 92.5699L355.968 85.9956L361.78 81.1704C360.171 88.2144 358.352 100.917 363.083 105.59C363.083 105.59 358.187 109.734 348.056 109.264C339.802 108.877 341.517 105.46 341.517 105.46Z" fill="#FFB573"/>
<path opacity="0.2" d="M348.021 92.5699C348.256 93.6227 348.424 94.6892 348.525 95.7632C351.472 95.1644 355.417 92.0181 355.828 89.0009C355.975 88.0062 356.01 86.9981 355.933 85.9955L348.021 92.5699Z" fill="black"/>
<path d="M364.14 71.0975C362.12 80.3956 361.416 85.9251 355.922 90.1632C354.151 91.5449 352.039 92.4188 349.81 92.6914C347.581 92.9639 345.32 92.6248 343.269 91.7103C341.218 90.7959 339.455 89.3406 338.168 87.5004C336.881 85.6602 336.119 83.5045 335.964 81.2643C335.247 72.6119 338.676 58.8644 348.455 56.2346C350.554 55.6201 352.777 55.5667 354.902 56.0797C357.028 56.5927 358.982 57.6542 360.569 59.1582C362.156 60.6623 363.321 62.5563 363.948 64.6513C364.574 66.7463 364.64 68.9689 364.14 71.0975Z" fill="#FFB573"/>
<path d="M341.552 79.8554C342.186 79.2496 343.023 78.9022 343.9 78.881C344.742 78.8956 345.57 79.1045 346.318 79.4915C347.058 79.8437 347.715 80.3602 348.42 80.2898C349.124 80.2194 349.277 79.1158 348.666 78.7988L348.807 78.5288C349.011 78.6438 349.175 78.8169 349.28 79.0261C349.385 79.2353 349.424 79.4709 349.394 79.7028C349.359 79.9393 349.262 80.1623 349.112 80.3485C348.939 80.517 348.717 80.6277 348.478 80.6655C347.64 80.6256 346.828 80.3577 346.13 79.8906C345.443 79.5571 344.687 79.3883 343.923 79.3976C343.182 79.4315 342.481 79.7463 341.963 80.2781L341.552 79.8554Z" fill="#263238"/>
<path d="M339.638 80.1607C339.519 79.9305 339.354 79.7278 339.151 79.566C338.949 79.4042 338.715 79.2868 338.464 79.2215C337.942 79.2033 337.432 79.3789 337.032 79.7146C336.765 79.9306 336.436 80.0542 336.093 80.0668C335.913 80.0491 335.742 79.9859 335.594 79.8832C335.446 79.7805 335.327 79.6416 335.247 79.4798C335.099 79.1901 335.034 78.865 335.06 78.5406C335.065 78.3655 335.118 78.1952 335.212 78.0475C335.263 77.9625 335.335 77.8925 335.422 77.845C335.509 77.7975 335.606 77.7742 335.705 77.7775V78.071C335.517 78.071 335.412 78.2941 335.4 78.5524C335.39 78.8119 335.455 79.0689 335.588 79.292C335.636 79.3942 335.71 79.4817 335.803 79.5457C335.895 79.6097 336.004 79.6477 336.116 79.6559C336.361 79.6294 336.591 79.5267 336.774 79.3624C337.257 78.9219 337.893 78.6862 338.546 78.705C338.876 78.7771 339.186 78.9193 339.455 79.1219C339.724 79.3245 339.947 79.5827 340.108 79.879L339.638 80.1607Z" fill="#263238"/>
<path d="M357.776 62.9264C352.74 64.6287 343.371 63.4547 339.673 63.8891C339.558 63.9027 339.442 63.8845 339.337 63.8366C339.231 63.7887 339.141 63.7129 339.076 63.6173C339.01 63.5217 338.972 63.4101 338.966 63.2945C338.96 63.179 338.985 63.0638 339.039 62.9617C341.106 58.8409 342.89 56.3286 344.909 55.0137C346.717 53.8397 357.26 50.8929 364.68 57.5143C372.099 64.1357 366.358 77.4723 366.358 77.4723L360.054 77.6132C359.801 77.622 359.55 77.5635 359.326 77.4436C359.103 77.3236 358.916 77.1466 358.783 76.9306C358.651 76.7145 358.578 76.4671 358.572 76.2138C358.566 75.9604 358.628 75.71 358.751 75.4882C359.925 73.3868 361.369 70.2757 361.099 68.4442C359.492 66.9563 358.34 65.043 357.776 62.9264Z" fill="#263238"/>
<path d="M340.46 61.0128C349.065 62.3042 361.885 69.1368 367.462 76.4978C367.744 76.8617 368.26 76.4978 368.425 75.8169L372.921 57.2912C372.973 57.1424 372.988 56.983 372.963 56.8272C372.939 56.6715 372.876 56.5243 372.78 56.3989C366.018 49.9302 359.279 45.3633 349.3 43.7197C349.101 43.7197 348.854 43.8606 348.69 44.1658L340.343 59.6626C339.932 60.2027 340.026 60.9541 340.46 61.0128Z" fill="#E1BE57"/>
<path opacity="0.7" d="M340.46 61.0128C349.065 62.3042 361.885 69.1368 367.462 76.4978C367.744 76.8617 368.26 76.4978 368.425 75.8169L372.921 57.2912C372.973 57.1424 372.988 56.983 372.963 56.8272C372.939 56.6715 372.876 56.5243 372.78 56.3989C366.018 49.9302 359.279 45.3633 349.3 43.7197C349.101 43.7197 348.854 43.8606 348.69 44.1658L340.343 59.6626C339.932 60.2027 340.026 60.9541 340.46 61.0128Z" fill="white"/>
<path opacity="0.2" d="M372.698 56.3872C365.936 49.9302 359.197 45.3633 349.218 43.7197C349.007 43.7197 348.784 43.8606 348.608 44.1658L342.961 54.6379C348.96 57.3264 360.981 57.4673 365.666 57.5025C367.92 60.6136 369.998 62.1985 371.606 62.3981L372.851 57.2912C372.901 57.1395 372.914 56.9778 372.887 56.8201C372.861 56.6625 372.796 56.5138 372.698 56.3872Z" fill="#E1BE57"/>
<path d="M366.464 56.8216C359.937 56.2463 340.049 54.3327 338.781 48.0166C337.267 40.5147 343.148 36.4409 350.098 36.4292C361.122 36.4292 374.612 44.4241 377.218 53.3935C380.024 63.1025 373.203 66.5306 366.464 56.8216Z" fill="#E1BE57"/>
<path opacity="0.7" d="M366.464 56.8216C359.937 56.2463 340.049 54.3327 338.781 48.0166C337.267 40.5147 343.148 36.4409 350.098 36.4292C361.122 36.4292 374.612 44.4241 377.218 53.3935C380.024 63.1025 373.203 66.5306 366.464 56.8216Z" fill="white"/>
<path d="M366.288 80.7948C364.794 82.6083 362.721 83.852 360.418 84.3168C357.495 84.8216 356.837 82.0979 358.317 79.4799C359.667 77.1319 362.801 74.009 365.419 74.7017C368.037 75.3944 368.19 78.5172 366.288 80.7948Z" fill="#FFB573"/>
<path d="M349.77 72.8585C349.652 73.6216 349.148 74.1851 348.655 74.1264C348.161 74.0677 347.844 73.3985 347.962 72.6354C348.079 71.8723 348.572 71.3088 349.077 71.3675C349.582 71.4262 349.852 72.0954 349.77 72.8585Z" fill="#263238"/>
<path d="M340.683 71.8253C340.566 72.5884 340.073 73.1637 339.568 73.0932C339.063 73.0228 338.758 72.3771 338.875 71.614C338.992 70.8509 339.497 70.2756 340.049 70.3343C340.601 70.393 340.8 71.0622 340.683 71.8253Z" fill="#263238"/>
<path d="M343.09 71.344C341.803 73.572 340.224 75.6173 338.394 77.4253C339.568 78.8459 341.916 78.5993 341.916 78.5993L343.09 71.344Z" fill="#ED893E"/>
<path d="M345.978 83.6827C346.873 83.6944 347.76 83.5246 348.588 83.1836C349.415 82.8426 350.165 82.3374 350.791 81.6987C350.83 81.6535 350.85 81.5947 350.845 81.5353C350.841 81.4759 350.813 81.4206 350.768 81.3817C350.723 81.3428 350.664 81.3234 350.604 81.3278C350.545 81.3322 350.49 81.36 350.451 81.4052C349.76 82.0893 348.921 82.6051 347.999 82.9126C347.076 83.22 346.096 83.3108 345.133 83.1779C345.103 83.1746 345.074 83.1772 345.045 83.1855C345.017 83.1938 344.991 83.2077 344.968 83.2262C344.945 83.2448 344.926 83.2677 344.912 83.2937C344.898 83.3196 344.889 83.3481 344.886 83.3775C344.881 83.4071 344.882 83.4374 344.89 83.4664C344.898 83.4954 344.911 83.5225 344.93 83.5458C344.949 83.5692 344.973 83.5882 344.999 83.6017C345.026 83.6152 345.056 83.6228 345.086 83.624C345.381 83.6666 345.679 83.6862 345.978 83.6827Z" fill="#263238"/>
<path d="M352.2 70.1466C352.273 70.1636 352.35 70.1636 352.423 70.1466C352.534 70.1021 352.624 70.0156 352.672 69.9059C352.72 69.7961 352.724 69.6718 352.681 69.5596C352.431 68.8909 352.019 68.2944 351.482 67.8233C350.946 67.3522 350.301 67.0211 349.605 66.8594C349.547 66.8476 349.486 66.8476 349.428 66.8597C349.369 66.8717 349.313 66.8954 349.264 66.9293C349.215 66.9633 349.173 67.0068 349.141 67.0573C349.109 67.1078 349.087 67.1643 349.077 67.2233C349.06 67.3428 349.089 67.4643 349.159 67.5627C349.229 67.6611 349.334 67.7287 349.453 67.7516C349.989 67.8932 350.482 68.1627 350.891 68.5369C351.3 68.911 351.612 69.3788 351.801 69.9001C351.839 69.9733 351.896 70.0349 351.966 70.0783C352.037 70.1217 352.117 70.1453 352.2 70.1466Z" fill="#263238"/>
<path d="M337.537 67.3994C337.608 67.4236 337.685 67.4287 337.759 67.4143C337.833 67.3999 337.902 67.3664 337.959 67.3172C338.395 66.9353 338.913 66.6584 339.473 66.5078C340.032 66.3572 340.619 66.3369 341.188 66.4484C341.302 66.481 341.424 66.4672 341.527 66.41C341.63 66.3528 341.707 66.2568 341.74 66.1432C341.773 66.028 341.759 65.9045 341.702 65.7991C341.645 65.6938 341.549 65.615 341.434 65.5797C340.723 65.4271 339.985 65.4421 339.28 65.6234C338.575 65.8047 337.922 66.1475 337.372 66.6245C337.282 66.7019 337.226 66.8113 337.215 66.9296C337.204 67.0479 337.239 67.1658 337.314 67.2585C337.373 67.3263 337.45 67.3753 337.537 67.3994Z" fill="#263238"/>
<path d="M379.93 152.115C380.419 154.372 381.401 156.493 382.806 158.326C384.274 159.934 388.571 156.189 393.736 157.962C398.902 159.734 400.181 159.253 400.78 155.813C401.379 152.373 401.097 149.697 400.287 148.992C399.477 148.288 379.202 149.638 379.93 152.115Z" fill="#E1BE57"/>
<path d="M299.276 140.457C297.832 142.465 295.93 142.711 295.284 144.578C294.416 147.079 298.936 150.014 299.346 155.449C299.757 160.885 300.708 161.883 304.125 161.12C307.541 160.357 309.877 158.995 310.194 157.973C310.511 156.952 302.692 135.691 299.276 140.457Z" fill="#E1BE57"/>
<path d="M359.995 224.668H259.489V227.662H359.995V224.668Z" fill="#263238"/>
<path d="M435.131 225.748H165.722V231.747H435.131V225.748Z" fill="#E1BE57"/>
<path opacity="0.3" d="M435.131 225.748H408.587V231.747H435.131V225.748Z" fill="#263238"/>
<path d="M432.56 231.759H168.293V443.208H432.56V231.759Z" fill="#E1BE57"/>
<path opacity="0.8" d="M432.56 231.759H168.293V443.208H432.56V231.759Z" fill="white"/>
<path opacity="0.3" d="M432.56 231.759H411.405V443.208H432.56V231.759Z" fill="#E1BE57"/>
<g opacity="0.3">
<path opacity="0.3" d="M227.38 443.197H228.308L228.308 231.747H227.38L227.38 443.197Z" fill="#E1BE57"/>
<path opacity="0.3" d="M228.308 443.197H229.235L229.235 231.747H228.308L228.308 443.197Z" fill="white"/>
<path opacity="0.3" d="M411.405 425.082V426.009H229.223L228.296 425.082H411.405Z" fill="#E1BE57"/>
<path opacity="0.3" d="M229.223 425.997V426.925H411.405V425.997H229.223Z" fill="white"/>
</g>
<path opacity="0.3" d="M432.56 231.759H168.293V234.6L432.56 237.453V231.759Z" fill="#E1BE57"/>
<path d="M173.541 142.735C174.312 141.974 175.351 141.548 176.435 141.548C177.518 141.548 178.557 141.974 179.328 142.735L208.538 171.956C209.304 172.724 209.734 173.765 209.734 174.85C209.734 175.935 209.304 176.975 208.538 177.743C206.953 179.328 205.873 177.743 204.276 176.206L179.692 151.622L173.541 148.523C172.774 147.754 172.344 146.714 172.344 145.629C172.344 144.544 172.774 143.503 173.541 142.735Z" fill="#263238"/>
<path d="M183.39 151.962C183.89 151.962 184.294 151.558 184.294 151.058C184.294 150.559 183.89 150.154 183.39 150.154C182.891 150.154 182.486 150.559 182.486 151.058C182.486 151.558 182.891 151.962 183.39 151.962Z" fill="white"/>
<path d="M195.154 161.542C195.28 161.669 195.366 161.83 195.401 162.005C195.436 162.181 195.418 162.362 195.349 162.527C195.281 162.692 195.165 162.833 195.016 162.933C194.868 163.032 194.693 163.085 194.514 163.085C194.335 163.085 194.161 163.032 194.012 162.933C193.863 162.833 193.748 162.692 193.679 162.527C193.611 162.362 193.593 162.181 193.627 162.005C193.662 161.83 193.748 161.669 193.874 161.542C193.958 161.458 194.058 161.391 194.168 161.346C194.278 161.3 194.395 161.277 194.514 161.277C194.633 161.277 194.751 161.3 194.86 161.346C194.97 161.391 195.07 161.458 195.154 161.542Z" fill="white"/>
<path d="M234.624 199.145L212.318 225.056C195.059 216.919 181.153 203.055 172.965 185.821L198.875 163.456C199.206 163.149 199.64 162.978 200.091 162.978C200.541 162.978 200.976 163.149 201.306 163.456L234.671 196.821C234.944 197.149 235.09 197.565 235.082 197.992C235.073 198.419 234.91 198.829 234.624 199.145Z" fill="#E1BE57"/>
<path opacity="0.8" d="M234.624 199.145L212.318 225.056C195.059 216.919 181.153 203.055 172.965 185.821L198.875 163.456C199.206 163.149 199.64 162.978 200.091 162.978C200.541 162.978 200.976 163.149 201.306 163.456L234.671 196.821C234.944 197.149 235.09 197.565 235.082 197.992C235.073 198.419 234.91 198.829 234.624 199.145Z" fill="white"/>
<path opacity="0.4" d="M181.371 178.518L172.977 185.821C181.141 203.059 195.021 216.939 212.259 225.103L219.503 216.709C202.867 208.617 189.437 195.166 181.371 178.518Z" fill="#E1BE57"/>
<g opacity="0.6">
<path opacity="0.6" d="M203.395 165.452L189.131 208.725C191.614 211.251 194.265 213.604 197.068 215.769L211.156 173.2L203.395 165.452Z" fill="white"/>
<path opacity="0.6" d="M215.488 177.532L201.787 219.08C203.161 219.996 204.569 220.888 206.025 221.733L219.338 181.383L215.488 177.532Z" fill="white"/>
</g>
<path d="M245.096 220.947H180.432C179.161 220.947 177.941 221.451 177.041 222.349C176.141 223.247 175.633 224.465 175.63 225.737H249.886C249.883 224.467 249.377 223.251 248.48 222.353C247.582 221.455 246.365 220.95 245.096 220.947Z" fill="#E1BE57"/>
<path opacity="0.5" d="M245.096 220.947H180.432C179.161 220.947 177.941 221.451 177.041 222.349C176.141 223.247 175.633 224.465 175.63 225.737H249.886C249.883 224.467 249.377 223.251 248.48 222.353C247.582 221.455 246.365 220.95 245.096 220.947Z" fill="white"/>
<path opacity="0.5" d="M223.506 220.947H180.432C179.161 220.947 177.941 221.451 177.041 222.349C176.141 223.247 175.633 224.465 175.63 225.737H228.296C228.293 224.467 227.787 223.251 226.89 222.353C225.992 221.455 224.776 220.95 223.506 220.947Z" fill="white"/>
<path opacity="0.4" d="M419.294 185.104L417.322 183.156C416.852 182.696 416.477 182.149 416.219 181.544C415.961 180.94 415.825 180.291 415.819 179.634V166.062C415.886 166.073 415.955 166.069 416.02 166.05C416.085 166.032 416.146 166 416.198 165.956C416.249 165.912 416.291 165.857 416.319 165.795C416.348 165.733 416.363 165.666 416.363 165.598C416.363 165.53 416.348 165.463 416.319 165.402C416.291 165.34 416.249 165.285 416.198 165.241C416.146 165.197 416.085 165.165 416.02 165.146C415.955 165.128 415.886 165.124 415.819 165.135H410.747C410.637 165.152 410.537 165.209 410.464 165.294C410.392 165.379 410.352 165.487 410.352 165.598C410.352 165.71 410.392 165.818 410.464 165.903C410.537 165.988 410.637 166.044 410.747 166.062V179.587C410.743 180.243 410.609 180.892 410.354 181.496C410.098 182.101 409.725 182.649 409.256 183.109L407.284 185.057C406.34 185.988 405.804 187.254 405.793 188.579V224.973C405.792 225.068 405.809 225.163 405.844 225.251C405.879 225.339 405.932 225.42 405.999 225.487C406.065 225.555 406.145 225.609 406.232 225.646C406.32 225.682 406.414 225.701 406.509 225.701H420.092C420.187 225.701 420.282 225.682 420.369 225.646C420.457 225.609 420.536 225.555 420.603 225.487C420.67 225.42 420.722 225.339 420.757 225.251C420.793 225.163 420.81 225.068 420.809 224.973V188.579C420.774 187.268 420.231 186.022 419.294 185.104Z" fill="#E1BE57"/>
<path opacity="0.4" d="M407.002 209.571V223.389C407.002 223.7 407.126 223.999 407.346 224.219C407.566 224.439 407.865 224.563 408.176 224.563H418.378C418.69 224.563 418.988 224.439 419.208 224.219C419.429 223.999 419.552 223.7 419.552 223.389V208.937C419.559 208.665 419.471 208.4 419.304 208.186C419.137 207.972 418.901 207.822 418.637 207.763C416.864 207.296 414.991 207.386 413.271 208.021C411.713 208.612 410.015 208.735 408.388 208.373C408.215 208.341 408.037 208.349 407.867 208.395C407.698 208.441 407.541 208.525 407.408 208.64C407.275 208.755 407.169 208.898 407.099 209.059C407.029 209.22 406.996 209.395 407.002 209.571Z" fill="#E1BE57"/>
<path d="M416.958 194.72H409.597C409.059 194.72 408.622 195.156 408.622 195.694V209.676C408.622 210.215 409.059 210.651 409.597 210.651H416.958C417.496 210.651 417.932 210.215 417.932 209.676V195.694C417.932 195.156 417.496 194.72 416.958 194.72Z" fill="white"/>
<path d="M391.517 210.475C391.67 209.406 389.932 208.655 388.758 208.714C387.819 208.774 386.878 208.63 386 208.291C386.972 208.949 388.053 209.429 389.193 209.711C389.996 209.871 390.776 210.127 391.517 210.475Z" fill="#263238"/>
<path d="M391.517 210.475C392.116 209.571 390.86 208.127 389.78 207.704C388.887 207.365 388.084 206.827 387.432 206.131C388.024 207.149 388.795 208.052 389.709 208.796C390.378 209.279 390.986 209.843 391.517 210.475Z" fill="#263238"/>
<path d="M391.635 210.475C391.388 209.418 393.067 208.526 394.229 208.502C395.174 208.483 396.103 208.259 396.953 207.845C396.041 208.585 395.003 209.154 393.889 209.524C393.102 209.749 392.345 210.068 391.635 210.475Z" fill="#263238"/>
<path d="M391.635 210.475C391.177 209.5 392.621 208.268 393.76 207.997C394.673 207.795 395.531 207.394 396.272 206.823C395.538 207.757 394.644 208.552 393.63 209.171C392.915 209.523 392.245 209.961 391.635 210.475Z" fill="#263238"/>
<path d="M401.602 215.229C401.473 207.857 394.934 208.608 391.447 210.169C388.148 208.267 380 209.242 380.399 216.345C380.658 220.958 383.24 224.774 387.526 225.737C388.441 225.948 390.461 225.197 391.447 225.197C392.433 225.197 393.689 225.807 394.44 225.713C399.019 225.103 401.696 220.043 401.602 215.229Z" fill="#E1BE57"/>
</svg>
