<svg width="35" height="35" viewBox="0 0 35 35" fill="none" xmlns="http://www.w3.org/2000/svg">
<path d="M22.7502 17.5C22.7502 18.8924 22.1971 20.2278 21.2125 21.2123C20.2279 22.1969 18.8926 22.75 17.5002 22.75C16.1078 22.75 14.7725 22.1969 13.7879 21.2123C12.8033 20.2278 12.2502 18.8924 12.2502 17.5C12.2502 17.2008 12.2817 16.9085 12.3359 16.625H10.5002V23.6198C10.5002 24.1063 10.8939 24.5 11.3804 24.5H23.6217C23.8548 24.4995 24.0783 24.4066 24.243 24.2416C24.4077 24.0765 24.5002 23.8529 24.5002 23.6198V16.625H22.6644C22.7187 16.9085 22.7502 17.2008 22.7502 17.5ZM17.5002 21C17.9599 20.9999 18.4152 20.9092 18.8399 20.7332C19.2646 20.5571 19.6504 20.2992 19.9754 19.974C20.3004 19.6488 20.5582 19.2628 20.734 18.8381C20.9099 18.4133 21.0003 17.958 21.0002 17.4983C21.0001 17.0385 20.9094 16.5833 20.7334 16.1586C20.5573 15.7339 20.2994 15.348 19.9742 15.023C19.649 14.698 19.263 14.4402 18.8382 14.2644C18.4134 14.0886 17.9582 13.9981 17.4984 13.9983C16.57 13.9985 15.6796 14.3676 15.0232 15.0243C14.3668 15.681 13.9982 16.5715 13.9984 17.5C13.9987 18.4285 14.3677 19.3189 15.0244 19.9753C15.6812 20.6316 16.5717 21.0002 17.5002 21ZM21.7002 13.825H23.7984C23.9378 13.825 24.0716 13.7698 24.1703 13.6713C24.269 13.5729 24.3247 13.4394 24.3252 13.3V11.2018C24.3252 11.0621 24.2697 10.9281 24.1709 10.8293C24.0721 10.7305 23.9381 10.675 23.7984 10.675H21.7002C21.5605 10.675 21.4265 10.7305 21.3277 10.8293C21.2289 10.9281 21.1734 11.0621 21.1734 11.2018V13.3C21.1752 13.5888 21.4114 13.825 21.7002 13.825ZM17.5002 0.700012C13.0446 0.700012 8.77141 2.47001 5.6208 5.62062C2.47019 8.77123 0.700195 13.0444 0.700195 17.5C0.700195 21.9557 2.47019 26.2288 5.6208 29.3794C8.77141 32.53 13.0446 34.3 17.5002 34.3C19.7064 34.3 21.891 33.8655 23.9293 33.0212C25.9675 32.1769 27.8196 30.9394 29.3796 29.3794C30.9396 27.8194 32.1771 25.9674 33.0214 23.9291C33.8657 21.8908 34.3002 19.7062 34.3002 17.5C34.3002 15.2938 33.8657 13.1092 33.0214 11.0709C32.1771 9.03266 30.9396 7.18064 29.3796 5.62062C27.8196 4.06059 25.9675 2.82312 23.9293 1.97884C21.891 1.13456 19.7064 0.700012 17.5002 0.700012ZM26.2502 24.3058C26.2502 25.375 25.3752 26.25 24.3059 26.25H10.6944C9.6252 26.25 8.7502 25.375 8.7502 24.3058V10.6943C8.7502 9.62501 9.6252 8.75001 10.6944 8.75001H24.3059C25.3752 8.75001 26.2502 9.62501 26.2502 10.6943V24.3058Z" fill="#303030"/>
</svg>
