<svg width="18" height="25" viewBox="0 0 25 35" fill="none" xmlns="http://www.w3.org/2000/svg">
<path d="M12.5 0C5.7152 0 0.195312 5.51988 0.195312 12.3047C0.195312 14.5971 0.830303 16.8342 2.03206 18.775L11.7996 34.5153C11.9867 34.8168 12.3163 35 12.6708 35C12.6736 35 12.6762 35 12.679 35C13.0366 34.9972 13.3669 34.8083 13.5505 34.5015L23.0691 18.6088C24.2046 16.7089 24.8047 14.529 24.8047 12.3047C24.8047 5.51988 19.2848 0 12.5 0ZM21.3092 17.5559L12.6553 32.0049L3.77509 17.6946C2.77479 16.0791 2.23242 14.2153 2.23242 12.3047C2.23242 6.65068 6.846 2.03711 12.5 2.03711C18.154 2.03711 22.7607 6.65068 22.7607 12.3047C22.7607 14.1587 22.2541 15.9748 21.3092 17.5559Z" fill="#E1BE57"/>
</svg>
