<svg width="40" height="40" viewBox="0 0 40 40" fill="none" xmlns="http://www.w3.org/2000/svg">
<path d="M19.9977 25.3978C18.829 26.3178 17.3568 26.8688 15.7576 26.8688C11.9702 26.8688 8.88889 23.7875 8.88889 20.0001C8.88889 16.2127 11.9702 13.1314 15.7576 13.1314C17.3568 13.1314 18.829 13.6823 19.9977 14.6023C20 14.6005 20 7.21875 20 7.21875H0V32.7814H20C20 32.7814 20 25.3997 19.9977 25.3978Z" fill="#2488FF"/>
<path d="M20 7.21875V14.6004C21.2014 13.6565 22.6935 13.1314 24.2424 13.1314C28.0298 13.1314 31.1111 16.2127 31.1111 20.0001C31.1111 23.7875 28.0298 26.8688 24.2424 26.8688C22.6935 26.8688 21.2014 26.3436 20 25.3997V32.7814H40V7.21875H20Z" fill="#005ECE"/>
<path d="M22.6266 20.0001C22.6266 22.1882 21.597 24.1391 19.998 25.3978C21.2018 26.3436 22.6939 26.8688 24.2428 26.8688C28.0302 26.8688 31.1115 23.7875 31.1115 20.0001C31.1115 16.2127 28.0302 13.1314 24.2428 13.1314C22.6939 13.1314 21.2018 13.6565 20.0004 14.6004C21.5969 15.861 22.6266 17.8119 22.6266 20.0001Z" fill="#FFCD00"/>
<path d="M22.626 20.0001C22.626 17.8119 21.5963 15.861 19.9974 14.6023C18.8288 13.6823 17.3566 13.1314 15.7574 13.1314C11.97 13.1314 8.88867 16.2127 8.88867 20.0001C8.88867 23.7875 11.97 26.8688 15.7574 26.8688C17.3566 26.8688 18.8288 26.3178 19.9974 25.3978C21.5964 24.1391 22.626 22.1882 22.626 20.0001Z" fill="#FF5023"/>
</svg>
