<svg width="28" height="40" viewBox="0 0 28 40" fill="none" xmlns="http://www.w3.org/2000/svg">
<path d="M26.8951 32.4096C26.5715 32.4096 26.3091 32.672 26.3091 32.9955V38.5045C26.3091 38.6828 26.164 38.828 25.9856 38.828H22.8359V27.2891C22.8359 26.9655 22.5735 26.7032 22.2499 26.7032C21.9263 26.7032 21.664 26.9655 21.664 27.2891V38.828H15.3214L17.1607 36.8046C17.3616 36.5835 17.4564 36.2686 17.4141 35.9619C17.4134 35.9559 17.4124 35.95 17.4114 35.9441L15.6596 25.5951L16.1316 24.8846C16.3925 25.0699 16.5935 25.2484 16.9705 25.2484C17.3539 25.2484 17.7124 25.0338 17.8888 24.6805V24.6804L19.7365 20.9773L23.9455 22.6073C24.0978 22.6727 26.309 23.6684 26.309 26.2978V30.2611C26.3089 30.5846 26.5712 30.847 26.8949 30.847C27.2185 30.847 27.4809 30.5847 27.4809 30.2611V26.2978C27.4809 22.8334 24.5145 21.5741 24.3883 21.5222C24.3846 21.5206 24.3809 21.5191 24.3771 21.5177L17.3718 18.8048V17.1618C18.4845 16.2965 19.2559 15.0138 19.4496 13.5503C20.0044 13.5112 20.5191 13.3041 20.9395 12.9426C21.4885 12.4705 21.8035 11.7834 21.8035 11.0577C21.8035 10.4555 21.5862 9.88055 21.1991 9.4325V7.26195C21.199 3.25773 17.9413 0 13.9371 0C9.93289 0 6.67523 3.25773 6.67523 7.26195V9.48938C6.28391 9.93289 6.07109 10.4788 6.07109 11.0577C6.07109 11.7835 6.38594 12.4705 6.93508 12.9427C7.35516 13.3041 7.86961 13.511 8.42422 13.5502C8.61945 15.041 9.41344 16.3716 10.6209 17.2485V18.8048L3.62312 21.5177C3.61945 21.5191 3.61578 21.5205 3.61211 21.522C3.48578 21.574 0.519531 22.8333 0.519531 26.2977V38.5043C0.519531 39.3289 1.19039 39.9998 2.015 39.9998H7.59758C7.92117 39.9998 8.18352 39.7374 8.18352 39.4138C8.18352 39.0902 7.92117 38.8279 7.59758 38.8279H6.33687V27.2891C6.33687 26.9655 6.07453 26.7032 5.75094 26.7032C5.42734 26.7032 5.165 26.9655 5.165 27.2891V38.828H2.01508C1.83672 38.828 1.69156 38.6829 1.69156 38.5045V26.2977C1.69156 23.6595 3.91758 22.666 4.0543 22.6076L8.26008 20.9771L10.1079 24.6804C10.2847 25.0345 10.6437 25.2484 11.0263 25.2484C11.4014 25.2484 11.6005 25.0727 11.8652 24.8846L12.3372 25.5951L10.5855 35.9441C10.5845 35.95 10.5837 35.9559 10.5828 35.9618C10.5405 36.2684 10.6352 36.5834 10.8363 36.8047L12.6755 38.8281H10.3322C10.0086 38.8281 9.74625 39.0905 9.74625 39.4141C9.74625 39.7377 10.0086 40 10.3322 40H25.9857C26.8103 40 27.4812 39.3291 27.4812 38.5045V32.9956C27.481 32.672 27.2187 32.4096 26.8951 32.4096ZM18.6389 20.5523L16.9163 24.0046C16.8735 23.9742 15.9606 23.3256 14.8447 22.5332C15.3289 21.9355 14.7624 22.6347 16.9724 19.9069L18.6389 20.5523ZM15.1755 24.2057L14.7288 24.8781H13.2676L12.8209 24.2057L13.9982 23.3695L15.1755 24.2057ZM11.7927 18.9938V17.8973C12.5045 18.1842 13.2653 18.3173 14.0083 18.3173C14.7765 18.3173 15.5298 18.1535 16.1998 17.8605V18.9986L13.9982 21.7162L11.7927 18.9938ZM20.6316 11.0577C20.6315 11.4416 20.4652 11.8048 20.1754 12.0541C19.9837 12.2189 19.7523 12.3243 19.4988 12.3655V9.75016C20.1722 9.85953 20.6316 10.4181 20.6316 11.0577ZM8.37578 12.3655C7.69469 12.255 7.24297 11.6919 7.24297 11.0577C7.24297 10.4312 7.76227 9.92141 8.37578 9.77961V12.3655ZM8.40727 8.58563C8.22062 8.60703 8.00672 8.65758 7.84727 8.7118V7.26195C7.84727 3.90391 10.5791 1.17195 13.9372 1.17195C17.2952 1.17195 20.0271 3.90391 20.0271 7.26195V8.67156C19.8568 8.61977 19.6802 8.58555 19.4988 8.56945C19.4988 8.00406 19.5037 8.11312 17.6541 6.12461C17.314 5.75914 16.7513 5.68258 16.3231 5.96234C14.2817 7.29586 11.7915 7.96578 9.49383 7.80078C8.98984 7.76305 8.53078 8.095 8.40727 8.58563ZM9.54773 12.8269V9.17125V8.97867C12.077 9.1268 14.7288 8.37539 16.8711 7.00344C17.7194 7.91422 18.1787 8.39195 18.3269 8.57367C18.3269 9.03336 18.3269 12.3006 18.3269 12.8268C18.3269 15.2055 16.3873 17.1452 14.0084 17.1452C11.337 17.1453 9.54773 15.073 9.54773 12.8269ZM11.0802 24.0046L9.35758 20.5523L11.0211 19.908L13.1493 22.5349C12.067 23.3034 11.1784 23.9348 11.0802 24.0046ZM11.7524 36.0705L13.4484 26.0499H14.5477L16.2437 36.0705L13.9981 38.541L11.7524 36.0705Z" fill="black"/>
</svg>
