<svg width="40" height="30" viewBox="0 0 40 30" fill="none" xmlns="http://www.w3.org/2000/svg">
<path d="M39.977 15.643C40.0752 15.2466 39.8515 14.8414 39.4637 14.7133C37.6131 14.1019 35.407 12.724 35.407 9.63077V7.98984C35.407 5.51634 34.9841 3.69033 34.1142 2.40744C33.0668 0.862916 31.3599 0.0798721 29.0407 0.0798721C26.7225 0.0798721 25.0158 0.862916 23.9683 2.40736C23.0977 3.69072 22.6745 5.5168 22.6745 7.98984V9.63085C22.6745 12.7233 20.4695 14.1017 18.6198 14.7135C18.2321 14.8417 18.0086 15.2468 18.1068 15.6431C18.5095 17.2678 19.1284 18.2094 20.2516 18.7375C20.0176 18.9633 19.8063 19.2157 19.6215 19.4968C18.4763 17.7532 16.2735 17.1591 14.3961 16.6532C14.0486 16.5595 13.7135 16.4693 13.3904 16.3745V15.8568C15.4781 14.7213 16.8982 12.5072 16.8982 9.96749V6.86484C16.8982 3.17119 13.8943 0.1662 10.202 0.1662C6.50849 0.1662 3.50358 3.17119 3.50358 6.86484V9.96741C3.50358 12.5066 4.92365 14.7204 7.01138 15.8561V16.3744C6.68857 16.4691 6.35357 16.5594 6.0063 16.6529C3.36014 17.3661 0.0669529 18.2537 0.000390623 22.2919C0 22.2963 0 22.3005 0 22.3048V29.139C0 29.5705 0.349764 29.9202 0.781247 29.9202H6.68958C7.12107 29.9202 7.47083 29.5705 7.47083 29.139C7.47083 28.7075 7.12107 28.3577 6.68958 28.3577H5.74349V25.1992C5.74349 24.7677 5.39373 24.418 4.96225 24.418C4.53076 24.418 4.181 24.7677 4.181 25.1992V28.3577H1.56249V22.3115C1.60929 19.6478 3.42647 18.9664 6.41271 18.1616C6.66411 18.0939 6.9195 18.0247 7.17364 17.953C7.5952 19.2223 8.79293 20.1406 10.2018 20.1406C11.6098 20.1406 12.8067 19.2222 13.2279 17.953C13.4822 18.0247 13.7378 18.0939 13.9894 18.1618C16.9763 18.9666 18.7938 19.6477 18.8389 22.3112V28.3577H16.2204V25.1992C16.2204 24.7677 15.8706 24.418 15.4392 24.418C15.0077 24.418 14.6579 24.7677 14.6579 25.1992V28.3577H13.7052C13.2737 28.3577 12.9239 28.7075 12.9239 29.139C12.9239 29.5705 13.2737 29.9202 13.7052 29.9202H25.5329C25.9644 29.9202 26.3142 29.5705 26.3142 29.139C26.3142 28.7075 25.9644 28.3577 25.5329 28.3577H24.5847V25.1992C24.5847 24.7677 24.2349 24.418 23.8034 24.418C23.3719 24.418 23.0222 24.7677 23.0222 25.1992V28.3577H20.4015V22.3115C20.4483 19.6476 22.2662 18.9662 25.2537 18.1614C25.5051 18.0936 25.7604 18.0246 26.0147 17.9528C26.4359 19.2221 27.6328 20.1406 29.0408 20.1406C30.4497 20.1406 31.6475 19.2222 32.069 17.953C32.3232 18.0247 32.5785 18.0938 32.8299 18.1616C35.8161 18.9664 37.6334 19.6478 37.6802 22.3115V28.3577H35.0617V25.1992C35.0617 24.7677 34.7119 24.418 34.2804 24.418C33.8489 24.418 33.4992 24.7677 33.4992 25.1992V28.3577H32.5464C32.115 28.3577 31.7652 28.7075 31.7652 29.139C31.7652 29.5705 32.115 29.9202 32.5464 29.9202H38.4614C38.8929 29.9202 39.2427 29.5705 39.2427 29.139V22.3048C39.2427 22.3005 39.2427 22.2962 39.2426 22.2919C39.2156 20.656 38.6591 19.5373 37.8306 18.7377C38.9548 18.2096 39.5742 17.268 39.977 15.643ZM5.06584 6.86484C5.06584 4.03282 7.36981 1.72869 10.2018 1.72869C13.0325 1.72869 15.3355 4.03275 15.3355 6.86484V7.67312C13.282 7.74179 10.6939 7.49804 8.78458 6.19321C8.44137 5.95875 7.9745 6.03399 7.72247 6.36461C7.06177 7.23125 6.23209 7.44625 5.06584 7.58484V6.86484ZM11.8278 16.95C11.8278 17.8478 11.0984 18.5782 10.2018 18.5782C9.3041 18.5782 8.57372 17.8478 8.57372 16.95V16.4649C9.0952 16.5956 9.64043 16.666 10.2018 16.666C10.7625 16.666 11.307 16.5957 11.8278 16.4653V16.95ZM10.2018 15.1036C7.36974 15.1036 5.06584 12.7995 5.06584 9.96741V9.15734C6.32232 9.01695 7.50583 8.78765 8.48848 7.8475C10.6268 9.05655 13.2378 9.3003 15.3355 9.23648V9.96733C15.3355 12.7994 13.0325 15.1036 10.2018 15.1036ZM25.2612 3.28447C26.0108 2.17947 27.247 1.64229 29.0407 1.64229C30.8351 1.64229 32.0716 2.17939 32.8209 3.28431C33.4407 4.19837 33.7729 5.53805 33.8335 7.36414C32.3857 7.61609 30.6803 7.41469 29.7379 5.55102C29.455 4.99141 28.6265 4.99149 28.3436 5.55102C27.4011 7.41469 25.6958 7.61601 24.248 7.36414C24.3085 5.53852 24.6409 4.19884 25.2612 3.28447ZM25.8522 16.3743C25.5294 16.4689 25.1944 16.5593 24.8471 16.6528C23.9009 16.9077 22.8721 17.185 21.9375 17.6203C20.7151 17.4122 20.1894 17.0211 19.8158 15.9339C21.0824 15.4063 22.6176 14.4513 23.5054 12.7696C24.0642 13.7513 24.8762 14.5702 25.8523 15.1377V16.3743H25.8522ZM30.6688 16.95C30.6688 17.8478 29.9384 18.5782 29.0407 18.5782C28.1441 18.5782 27.4147 17.8478 27.4147 16.95V15.7859C27.934 15.9232 28.4788 15.9972 29.0407 15.9972C29.6033 15.9972 30.1489 15.9229 30.6688 15.7853V16.95ZM29.0407 14.4347C26.3918 14.4347 24.2369 12.2797 24.2369 9.63085V8.94327C24.5694 8.98968 24.8929 9.01296 25.2063 9.01296C26.7815 9.01296 28.103 8.43171 29.0407 7.31945C29.9783 8.43179 31.2997 9.01296 32.8751 9.01296C33.1885 9.01296 33.512 8.9896 33.8445 8.94327V9.63085C33.8444 12.2797 31.6895 14.4347 29.0407 14.4347ZM36.1442 17.6203C35.2102 17.185 34.1821 16.9079 33.2364 16.653C32.8892 16.5594 32.5542 16.4691 32.2314 16.3745V15.1365C33.2066 14.569 34.0177 13.7506 34.5761 12.7696C35.4642 14.4518 37.0003 15.4067 38.2677 15.9343C37.8941 17.0207 37.3677 17.412 36.1442 17.6203Z" fill="black"/>
</svg>
