<svg width="40" height="38" viewBox="0 0 40 38" fill="none" xmlns="http://www.w3.org/2000/svg">
<path d="M38.3694 24.9803L33.779 23.1441C33.7542 23.1342 33.7312 23.1215 33.7079 23.1094C36.8785 22.3879 38.3801 21.1815 38.4467 21.1269C38.6052 20.997 38.6844 20.7937 38.6554 20.5908C38.6487 20.5444 37.9918 15.8927 37.9918 11.3014C37.9918 6.91777 34.4254 3.35143 30.0418 3.35143C25.6582 3.35143 22.0919 6.9177 22.0919 11.3014C22.0919 12.5025 22.0374 13.9716 21.9486 15.3623L20.6695 16.0019L16.9148 14.1246C16.904 14.1192 16.8927 14.1153 16.8817 14.1106C17.0603 13.5901 17.1771 13.0412 17.2199 12.4716C18.0053 12.2289 18.5776 11.496 18.5776 10.6319C18.5776 10.05 18.3176 9.52795 17.9082 9.17466V5.2762C17.9082 4.19924 17.364 3.19158 16.4717 2.58611C16.1693 1.46266 15.1599 0.673519 13.9749 0.673519H8.61927C5.71222 0.673519 3.34713 3.03861 3.34713 5.94566V9.17458C2.93767 9.52779 2.67767 10.0499 2.67767 10.6319C2.67767 11.4959 3.24994 12.2288 4.03534 12.4715C4.18331 14.4386 5.19706 16.167 6.69441 17.2793V18.8989L1.84876 20.3525C0.742973 20.6843 0 21.6829 0 22.8374V29.3766C0 29.7002 0.262345 29.9625 0.585941 29.9625H0.669457V36.7406C0.669457 37.0642 0.931802 37.3265 1.2554 37.3265C1.57899 37.3265 1.84134 37.0642 1.84134 36.7406V29.9625H4.01674V36.7406C4.01674 37.0642 4.27909 37.3265 4.60268 37.3265C4.92628 37.3265 5.18862 37.0642 5.18862 36.7406V26.6374C5.18862 26.1235 5.03792 25.6259 4.75292 25.1983L3.75135 23.696C3.57182 23.4267 3.20799 23.354 2.93885 23.5334C2.66955 23.7129 2.59681 24.0767 2.77634 24.346L3.77791 25.8484C3.93416 26.0828 4.01682 26.3556 4.01682 26.6374V28.7906H1.2554H1.17188V22.8374C1.17188 22.2043 1.57923 21.6569 2.18564 21.475L4.19713 20.8715C4.89761 23.8045 7.55786 25.9458 10.6278 25.9458C11.7307 25.9458 12.8018 25.6738 13.7609 25.1563C14.1115 25.6345 14.6769 25.9458 15.3139 25.9458H15.3974V26.0293C15.3974 27.9936 16.4781 29.7092 18.0753 30.6162V31.5719C18.0753 31.6078 18.0523 31.6397 18.0182 31.6511L15.8324 32.3797C14.7714 32.7334 14.0585 33.7225 14.0585 34.8409V36.7406C14.0585 37.0642 14.3209 37.3265 14.6445 37.3265C14.9681 37.3265 15.2304 37.0642 15.2304 36.7406V34.8409C15.2304 34.2277 15.6213 33.6854 16.203 33.4915L16.8457 33.2772C17.696 34.5454 19.1261 35.3182 20.6695 35.3182C22.2145 35.3182 23.6433 34.5458 24.4934 33.2773L25.136 33.4915C25.7177 33.6854 26.1086 34.2277 26.1086 34.8409V36.7406C26.1086 37.0642 26.3709 37.3265 26.6945 37.3265C27.0181 37.3265 27.2805 37.0642 27.2805 36.7406V34.8409C27.2805 33.7225 26.5676 32.7334 25.5066 32.3798L23.3208 31.6512C23.2867 31.6398 23.2637 31.608 23.2637 31.572V30.6163C24.4596 29.9372 25.3648 28.8047 25.7444 27.4537C26.8517 28.6123 28.3982 29.2932 30.0417 29.2932C32.6364 29.2932 34.9131 27.6159 35.6973 25.1738L37.934 26.0684C38.4772 26.2857 38.8281 26.8041 38.8281 27.3891V30.1296H38.7446H36.6527V29.3767C36.6527 29.0531 36.3904 28.7907 36.0668 28.7907C35.7432 28.7907 35.4808 29.0531 35.4808 29.3767V36.7407C35.4808 37.0643 35.7432 37.3266 36.0668 37.3266C36.3904 37.3266 36.6527 37.0643 36.6527 36.7407V31.3015H38.1587V36.7407C38.1587 37.0643 38.421 37.3266 38.7446 37.3266C39.0682 37.3266 39.3305 37.0643 39.3305 36.7407V31.3015H39.4141C39.5695 31.3015 39.7184 31.2398 39.8284 31.1299C39.9383 31.02 40 30.871 40 30.7156V27.3891C40.0002 26.322 39.3602 25.3766 38.3694 24.9803ZM23.2639 11.3013C23.2639 7.56387 26.3045 4.52323 30.042 4.52323C33.7794 4.52323 36.82 7.56387 36.82 11.3013C36.82 15.2359 37.2938 19.2134 37.4478 20.4013C36.9227 20.7448 35.5783 21.5014 33.3057 21.9986V21.0661C33.617 20.8897 33.915 20.6884 34.1951 20.462C35.3481 19.53 36.1629 18.2248 36.4891 16.7868C36.5979 16.3077 36.653 15.8135 36.653 15.3181C36.653 12.0063 34.2579 11.5308 31.9417 11.071C30.4678 10.7784 28.9438 10.4758 27.7302 9.50498C27.5544 9.36427 27.3134 9.33685 27.1104 9.43443C26.9073 9.53201 26.7783 9.73724 26.7783 9.96256C26.7783 9.9781 26.7527 11.5198 24.5443 12.0719C24.2303 12.1505 24.0394 12.4686 24.118 12.7826C24.1964 13.0966 24.5146 13.2873 24.8285 13.2089C26.677 12.7468 27.431 11.7098 27.7385 10.9308C29.0092 11.6837 30.4325 11.9662 31.7135 12.2205C34.1892 12.712 35.4811 13.073 35.4811 15.3182C35.4811 15.7265 35.4358 16.1334 35.3463 16.5276C35.0779 17.7099 34.4075 18.7835 33.4584 19.5507C32.4818 20.3401 31.3004 20.7573 30.042 20.7573C28.8948 20.7573 27.803 20.4054 26.8764 19.7405C26.537 18.814 25.9917 17.9664 25.2723 17.2679V14.6488C25.2723 14.4456 25.1671 14.257 24.9944 14.1503C24.8216 14.0436 24.606 14.0338 24.4243 14.1247L23.1592 14.7572C23.2286 13.537 23.2639 12.3768 23.2639 11.3013ZM24.1004 15.5967V17.7172L21.9797 16.657L24.1004 15.5967ZM17.2388 15.5967L19.3593 16.657L17.2388 17.7172V15.5967ZM14.0585 22.0126V22.569C13.639 22.9313 13.3891 23.4615 13.3891 24.0208C12.5545 24.5139 11.6065 24.7739 10.6277 24.7739C8.07895 24.7739 5.87386 22.9803 5.32222 20.534L6.7698 20.0997C7.12692 21.9035 8.72075 23.2679 10.6278 23.2679C12.1421 23.2679 13.4584 22.4072 14.1154 21.1498C14.0778 21.4343 14.0585 21.7225 14.0585 22.0126ZM7.86645 19.3338V17.9765C8.70724 18.3648 9.64256 18.5817 10.6278 18.5817C11.613 18.5817 12.5484 18.3647 13.3891 17.9766V19.3346C13.3891 20.8572 12.1505 22.096 10.6278 22.096C9.10771 22.096 7.87075 20.8613 7.86661 19.3421C7.86661 19.3393 7.86645 19.3365 7.86645 19.3338ZM10.6278 17.4099C7.62856 17.4099 5.18862 14.9699 5.18862 11.9708C5.18862 11.6472 4.92628 11.3848 4.60268 11.3848C4.18752 11.3848 3.84971 11.047 3.84971 10.6319C3.84971 10.2167 4.18745 9.87889 4.60268 9.87889H5.9416C6.19379 9.87889 6.41769 9.71756 6.49746 9.47826L7.03528 7.86481C8.38177 7.83442 12.5559 7.64512 14.9065 6.4698C15.1959 6.32504 15.3133 5.97316 15.1685 5.6837C15.0238 5.39425 14.672 5.27691 14.3824 5.42167C11.8605 6.68262 6.66309 6.69871 6.6109 6.69871C6.35871 6.69879 6.1348 6.86012 6.05511 7.09942L5.51925 8.70708H4.60268C4.57471 8.70708 4.5469 8.70802 4.51917 8.70919V5.94566C4.51917 3.68479 6.35855 1.8454 8.61943 1.8454H13.9751C14.6748 1.8454 15.2626 2.3497 15.373 3.04439C15.401 3.22096 15.5081 3.37502 15.6638 3.46283C16.3254 3.83596 16.7364 4.53073 16.7364 5.27612V8.70903C16.7087 8.70778 16.681 8.70693 16.6529 8.70693H15.9835C15.6599 8.70693 15.3975 8.96927 15.3975 9.29287C15.3975 9.61646 15.6599 9.87881 15.9835 9.87881H16.6529C17.0681 9.87881 17.4059 10.2165 17.4059 10.6318C17.4059 11.047 17.0681 11.3848 16.6529 11.3848C16.3293 11.3848 16.067 11.6471 16.067 11.9707C16.067 14.9699 13.627 17.4099 10.6278 17.4099ZM14.5609 19.3348V17.2793C15.1438 16.8463 15.6533 16.3203 16.0669 15.7224V17.2678C15.4107 17.9049 14.8992 18.6659 14.5568 19.4978C14.5591 19.4436 14.5609 19.3894 14.5609 19.3348ZM23.3242 32.8875C22.6791 33.6755 21.71 34.1463 20.6696 34.1463C19.6303 34.1463 18.6607 33.6752 18.0153 32.8874L18.3888 32.7629C18.9022 32.5918 19.2472 32.1132 19.2472 31.572V31.1049C19.7 31.2321 20.1768 31.3015 20.6697 31.3015C21.1625 31.3015 21.6393 31.2321 22.0921 31.1049V31.572C22.092 32.1131 22.4369 32.5918 22.9504 32.7628L23.3242 32.8875ZM25.3559 24.7739C25.0323 24.7739 24.7699 25.0362 24.7699 25.3598V25.9424C24.7699 25.9475 24.7698 25.9526 24.7699 25.9576V26.0293C24.7698 28.2902 22.9304 30.1295 20.6696 30.1295C18.4087 30.1295 16.5694 28.2902 16.5694 26.0293V25.3598C16.5694 25.0362 16.307 24.7739 15.9835 24.7739H15.314C14.8988 24.7739 14.561 24.4362 14.561 24.0209C14.561 23.7537 14.7024 23.5119 14.9392 23.3741C14.9921 23.3433 15.0381 23.3044 15.078 23.2603C16.5264 23.2183 21.2217 22.9458 24.3076 21.1824C24.5885 21.0218 24.6862 20.6639 24.5256 20.3829C24.3651 20.1019 24.007 20.0043 23.7262 20.1649C21.0229 21.7096 16.775 22.0189 15.2305 22.0807V22.0126C15.2305 20.9228 15.5605 19.8674 16.1585 18.9776C16.2052 19.0518 16.2678 19.1161 16.3449 19.1637C16.439 19.2218 16.5458 19.2512 16.6529 19.2512C16.7424 19.2512 16.8322 19.2307 16.9149 19.1893L20.6697 17.312L24.4244 19.1893C24.5071 19.2307 24.5969 19.2512 24.6864 19.2512C24.7936 19.2512 24.9004 19.2218 24.9944 19.1637C25.0714 19.1161 25.134 19.0517 25.1808 18.9776C25.7787 19.8674 26.1087 20.9228 26.1087 22.0126V22.8677C26.1087 23.0763 26.2196 23.2692 26.4 23.3741C26.6369 23.512 26.7783 23.7537 26.7783 24.0209C26.7783 24.4361 26.4405 24.7739 26.0253 24.7739H25.3559ZM30.042 28.1212C28.4198 28.1212 26.9148 27.2953 26.0387 25.9455C27.0938 25.9382 27.9501 25.0778 27.9501 24.021C27.9501 23.4616 27.7002 22.9314 27.2806 22.5691V22.0126C27.2806 21.7768 27.2679 21.5422 27.243 21.3099C28.1118 21.7172 29.0604 21.929 30.042 21.929C30.7564 21.929 31.463 21.8107 32.1339 21.5869V22.445C32.1339 23.2366 32.6088 23.9382 33.3438 24.2322L34.6073 24.7376C34.0018 26.7398 32.1525 28.1212 30.042 28.1212Z" fill="black"/>
</svg>
