<svg width="91" height="27" viewBox="0 0 91 27" fill="none" xmlns="http://www.w3.org/2000/svg">
<path d="M16.1207 4.6463C15.8263 4.0557 15.3606 3.56858 14.7825 3.20279C14.1794 2.83344 13.4675 2.57471 12.6538 2.42126C11.8259 2.27138 10.8695 2.20358 9.76143 2.19287L4.6458 2.19644C4.11408 2.20358 3.59306 2.61754 3.46816 3.13142L0.0262144 18.1232C-0.0986875 18.63 0.234979 19.0546 0.766705 19.0546H3.21657C3.74829 19.0546 4.27467 18.6425 4.39243 18.1232L5.23284 14.4832C5.34525 13.9765 5.86984 13.5536 6.40692 13.5536H7.10816C10.104 13.55 12.4236 12.938 14.0902 11.7122C15.7656 10.4846 16.5918 8.86264 16.5918 6.8535C16.59 5.97383 16.4455 5.23513 16.1207 4.6463ZM10.8374 9.54425C10.0969 10.0867 9.06733 10.3579 7.7398 10.3579H7.14027C6.60676 10.3579 6.28023 9.93679 6.39621 9.42291L7.13314 6.2397C7.23663 5.72938 7.7737 5.3065 8.30008 5.31007L9.10302 5.30471C10.0398 5.30471 10.7553 5.46709 11.2335 5.78113C11.7063 6.0916 11.9436 6.58585 11.9401 7.2407C11.9544 8.23634 11.5743 9.00182 10.8374 9.54425Z" fill="#007AEE"/>
<path d="M85.9595 3.36698L85.806 3.41338L85.6008 3.44193L85.3493 3.40267L85.2208 3.27777L85.1619 3.08149L85.1583 2.78708V1.69687H85.9773V1.35963H85.1583V0.67981H84.7533V1.35963H84.4785V1.69687H84.7533V2.96552L84.9424 3.59359L85.4991 3.79344L85.7329 3.77381L85.9809 3.72563V3.36698H85.9595Z" fill="#007AEE"/>
<path d="M89.7584 1.53275L89.1731 1.29187L88.7413 1.3793L88.3023 1.67549L88.0472 1.39179L87.6332 1.29365L87.2353 1.38108L86.8588 1.62375V1.35967H86.4609V3.74173H86.8571V1.96277L87.1907 1.75579L87.5226 1.67371L87.7938 1.72189L87.9276 1.85928L87.9865 2.08767L88.0062 2.38208V3.74352H88.4041V2.21971L88.3969 2.09303L88.3898 1.97704L88.7288 1.76114L89.0643 1.67728L89.3266 1.72546L89.4693 1.86285L89.5193 2.09303L89.546 2.38387V3.7453H89.9457V2.1983L89.7584 1.53275Z" fill="#007AEE"/>
<path d="M27.935 6.78934C27.0107 6.26832 25.5511 6.00781 23.5562 6.00781C22.5695 6.00781 21.5864 6.08454 20.5925 6.23799C19.8591 6.3504 19.7878 6.37181 19.3363 6.46995C18.4049 6.67336 18.2586 7.60299 18.2586 7.60299L17.9589 8.83595C17.7893 9.62283 18.2426 9.5925 18.4317 9.52648C18.8385 9.40515 19.0651 9.28024 19.8966 9.09467C20.6906 8.91446 21.5275 8.77885 22.1912 8.78777C23.1708 8.78777 23.9202 8.89126 24.4199 9.10181C24.9123 9.31593 25.1586 9.6835 25.1586 10.2152L25.1157 10.5614L24.7624 10.7791C23.3725 10.8665 22.3679 10.995 21.1492 11.1716C19.9573 11.3376 18.9117 11.6284 18.0427 12.0263C17.1095 12.4367 16.4172 12.988 15.9337 13.6893C15.4662 14.3941 15.2324 15.2488 15.2324 16.2516C15.2324 17.1955 15.5714 17.9752 16.2299 18.5783C16.8918 19.1707 17.7661 19.4598 18.8118 19.4598C19.4737 19.4562 19.9858 19.4044 20.3498 19.317L21.5364 18.9084L22.541 18.3517L23.4652 17.7415L23.4777 17.7593L23.385 18.1518L23.3796 18.1679V18.1715C23.2797 18.6497 23.5687 19.0422 24.0344 19.0886L24.0434 19.0993H24.0862H25.9651H26.3184L26.3505 19.085C26.8394 19.0279 27.298 18.6354 27.405 18.1679L29.1911 10.4365L29.2839 9.80662L29.3267 9.21601C29.3339 8.12044 28.861 7.30858 27.935 6.78934ZM23.9845 15.4825L23.6026 15.9857L22.6391 16.4835C22.1859 16.6673 21.7559 16.7601 21.358 16.7601C20.7549 16.7601 20.282 16.6727 19.9626 16.4942L19.4898 15.5753C19.4898 15.0775 19.604 14.6831 19.8484 14.3798L20.8869 13.6732C21.3312 13.5233 21.8736 13.3967 22.5017 13.3092C23.062 13.2396 24.1683 13.1129 24.3128 13.1094L24.4823 13.4074C24.4484 13.5769 24.1344 14.8901 23.9845 15.4825Z" fill="#007AEE"/>
<path d="M72.433 6.80004C71.5034 6.27902 70.0456 6.01672 68.0561 6.01672C67.0693 6.01672 66.0844 6.09345 65.0941 6.25225C64.359 6.35931 64.2858 6.38251 63.8326 6.47886C62.903 6.68049 62.7585 7.61369 62.7585 7.61369L62.4587 8.84486C62.291 9.63175 62.7335 9.59606 62.9404 9.53539C63.3491 9.41406 63.5685 9.29451 64.3929 9.1018C65.1833 8.92337 66.0273 8.79133 66.6929 8.7949C67.6689 8.7949 68.4183 8.90018 68.9161 9.11073C69.4122 9.32484 69.6548 9.69598 69.6548 10.2224L69.6173 10.5667L69.2676 10.7898C67.8634 10.8736 66.857 11.0021 65.6508 11.1787C64.4625 11.3447 63.4133 11.6337 62.5425 12.0334C61.6129 12.4456 60.9117 12.997 60.4335 13.7C59.9606 14.4048 59.7305 15.2577 59.7305 16.2515C59.7305 17.2026 60.0659 17.9823 60.7333 18.5819C61.3988 19.1725 62.2642 19.4687 63.3098 19.4687C63.9682 19.4615 64.4803 19.4187 64.8461 19.3241L66.0291 18.9209L67.0426 18.3642L67.9597 17.7468L67.9758 17.7664L67.8919 18.1625L67.883 18.1697L67.8866 18.1768C67.7759 18.655 68.0668 19.0511 68.5378 19.094L68.5414 19.1029H68.5842C68.8929 19.1029 69.9599 19.1029 70.4685 19.1029H70.8146L70.8521 19.0904C71.3356 19.0315 71.7924 18.639 71.8941 18.1661L73.6856 10.4454L73.7801 9.81196L73.8319 9.21957C73.8337 8.12757 73.3662 7.31927 72.433 6.80004ZM68.4914 15.4932L68.0935 16.0017L67.1389 16.496C66.6857 16.678 66.2539 16.7726 65.8632 16.7726C65.2404 16.7726 64.7801 16.6834 64.4696 16.5049L63.9914 15.5896C63.9914 15.09 64.1074 14.6992 64.3411 14.3905C64.5784 14.0997 64.9407 13.8606 65.3903 13.6857C65.8292 13.5358 66.3717 13.4145 67.0033 13.3235C67.56 13.2539 68.6627 13.1236 68.8055 13.1219L68.9786 13.4198C68.9536 13.5894 68.6378 14.8973 68.4914 15.4932Z" fill="#007AEE"/>
<path d="M60.6103 4.70167C60.3034 4.1075 59.8431 3.62752 59.2614 3.25281C58.6654 2.88167 57.9588 2.62116 57.1327 2.47128C56.3208 2.32675 55.352 2.24824 54.251 2.24646L49.1283 2.25003C48.5948 2.25895 48.0827 2.67291 47.9596 3.18144L44.514 18.1804C44.3891 18.6889 44.7317 19.11 45.2527 19.11L47.7062 19.1064C48.2272 19.11 48.7607 18.6925 48.8838 18.1786L49.7135 14.5368C49.8349 14.0301 50.3612 13.6036 50.8912 13.6072H51.5924C54.5918 13.6072 56.9168 12.9898 58.5905 11.7676C60.2446 10.531 61.0814 8.91265 61.0814 6.90173C61.0725 6.02564 60.9208 5.28515 60.6103 4.70167ZM55.327 9.60675C54.5883 10.1385 53.5569 10.4097 52.2366 10.4097H51.6263C51.0999 10.415 50.7591 9.98681 50.8769 9.4765L51.6192 6.29864C51.728 5.79011 52.2597 5.36366 52.7897 5.36901L53.5837 5.36366C54.5258 5.36901 55.2324 5.52424 55.7142 5.83828C56.1942 6.15232 56.4208 6.64479 56.4261 7.29785C56.4315 8.2935 56.0621 9.06075 55.327 9.60675Z" fill="#007AEE"/>
<path d="M81.6177 3.30092C81.7301 2.78883 81.4089 2.37308 80.8826 2.38022H78.6878C78.2382 2.38022 77.8332 2.71388 77.6351 3.12428L77.5138 3.31341L77.4031 3.79875L74.3359 17.7414L74.236 18.1696L74.2395 18.1803C74.1378 18.6389 74.4198 18.985 74.8551 19.0511L74.8926 19.1028H77.1712C77.6173 19.1028 78.0366 18.7638 78.2275 18.3463L78.3453 18.1678L81.6248 3.30271L81.6177 3.30092Z" fill="#007AEE"/>
<path d="M44.5824 6.19515C44.0025 6.20229 41.6454 6.19515 41.6454 6.19515C41.1173 6.19515 40.4392 6.6216 40.1038 7.13013C40.1038 7.13013 36.5958 13.1504 36.255 13.7553L35.8482 13.7499L34.7562 7.17117C34.6348 6.65372 34.0942 6.21121 33.4215 6.21121L31.2268 6.21478C30.6986 6.21478 30.3739 6.63587 30.4935 7.14976C30.4935 7.14976 32.16 16.6334 32.4937 18.8656C32.6489 20.0967 32.474 20.3162 32.474 20.3162L30.3043 24.0954C29.9831 24.6093 30.1562 25.0286 30.6826 25.0286L33.2199 25.025C33.748 25.025 34.4421 24.6093 34.7562 24.0936L44.5164 7.58513C44.5164 7.58691 45.4549 6.17552 44.5824 6.19515Z" fill="#007AEE"/>
</svg>
