<svg width="21" height="25" viewBox="0 0 21 25" fill="none" xmlns="http://www.w3.org/2000/svg">
<path d="M18.7446 10.096H18.2575V7.81614C18.2575 3.5993 14.9111 0.0767361 10.7286 0.00154089C10.6143 -0.000513629 10.386 -0.000513629 10.2717 0.00154089C6.08911 0.0767361 2.74282 3.5993 2.74282 7.81614V10.096H2.25565C1.50493 10.096 0.892578 10.8707 0.892578 11.8274V23.2624C0.892578 24.2181 1.50493 25 2.2557 25H18.7446C19.4953 25 20.1077 24.2181 20.1077 23.2624V11.8274C20.1077 10.8707 19.4954 10.096 18.7446 10.096ZM12.0449 17.5333V20.9886C12.0449 21.3842 11.7137 21.719 11.3177 21.719H9.68266C9.28666 21.719 8.95542 21.3842 8.95542 20.9886V17.5333C8.57138 17.1553 8.3478 16.6326 8.3478 16.0543C8.3478 14.9586 9.19482 14.017 10.2718 13.9735C10.3859 13.9688 10.6145 13.9688 10.7287 13.9735C11.8056 14.017 12.6527 14.9586 12.6527 16.0543C12.6526 16.6326 12.429 17.1553 12.0449 17.5333ZM15.0468 10.096H10.7286H10.2717H5.95357V7.81614C5.95357 5.30424 7.99493 3.22728 10.5002 3.22728C13.0054 3.22728 15.0468 5.30424 15.0468 7.81614V10.096H15.0468Z" fill="#E1BE57"/>
</svg>
