<svg width="40" height="40" viewBox="0 0 40 40" fill="none" xmlns="http://www.w3.org/2000/svg">
<g clip-path="url(#clip0)">
<path d="M15.6633 8.75009C15.6633 8.75009 2.98811 28.8768 27.7294 39.219C22.9098 34.283 17.7553 23.3595 24.0176 8.75009C16.9484 8.75009 15.6633 8.75009 15.6633 8.75009Z" fill="#FF765B"/>
<path d="M22.4118 11.1353C24.5313 11.1353 25.6836 8.88093 24.3595 7.38647C23.4082 6.31255 21.9449 5.62499 20.304 5.62499C17.4371 5.62499 14.248 7.7237 14.248 10.3125L16.6415 9.84377L17.2962 10.6122C17.9032 11.3251 19.0155 11.496 19.8496 11.0047L21.0248 10.3125L21.4328 10.8002C21.637 11.044 21.9928 11.1353 22.4118 11.1353Z" fill="#91D9B9"/>
<path d="M28.2386 38.7511C23.1397 33.5314 19.4901 23.8414 23.6759 11.7439C24.4358 11.4388 25.0507 10.869 25.3925 10.11C25.8713 9.04588 25.6803 7.83371 24.8939 6.94657C24.0552 6.00052 22.9181 5.35232 21.6553 5.07492L21.7331 4.2897C22.0133 2.39455 22.7588 1.65603 24.3885 1.65603C24.4605 1.65603 25.4407 1.64321 25.6367 1.64077C26.0682 1.63528 26.4133 1.28097 26.4078 0.849446C26.4024 0.421283 26.0535 0.0782647 25.6266 0.0782647C25.6232 0.0782647 25.6196 0.0782647 25.6162 0.0782647C25.1713 0.0840631 24.4446 0.0932183 24.3885 0.0935235C23.021 0.0935235 21.9611 0.529926 21.2388 1.39083C20.6916 2.04269 20.3565 2.89779 20.1838 4.08157C20.1822 4.09347 20.1807 4.10568 20.1795 4.11758L20.0995 4.92508C18.5636 4.95956 16.9632 5.50857 15.6855 6.44638C14.2197 7.52182 13.4128 8.92258 13.4128 10.3905C13.4128 10.605 13.5016 10.8083 13.6557 10.9554C13.31 11.7516 12.9413 12.7095 12.6105 13.7963C11.7075 16.765 10.94 21.2807 12.413 25.9346C14.3079 31.9219 19.343 36.6601 27.378 40.0176C27.476 40.0585 27.5782 40.0781 27.6792 40.0781C27.9319 40.0781 28.1767 39.9554 28.3259 39.7356C28.5346 39.4286 28.498 39.017 28.2386 38.7511ZM20.2521 6.48453C21.6147 6.48453 22.88 7.03049 23.7241 7.98264C24.1083 8.4163 24.1968 8.95798 23.967 9.46885C23.7574 9.93455 23.2252 10.4323 22.3609 10.4323C21.9654 10.4323 21.8128 10.1766 21.5726 9.88938C21.3276 9.59641 20.9061 9.52378 20.5768 9.71757L19.401 10.4097C18.8977 10.706 18.1968 10.6047 17.8382 10.1839C17.8382 10.1839 17.1836 9.41544 17.1833 9.41544C17.0078 9.20945 16.7142 9.10111 16.4383 9.15543L15.1786 9.40202C15.875 7.71988 18.2398 6.48453 20.2521 6.48453ZM13.9072 25.4763C12.5556 21.2184 13.2611 17.0482 14.0912 14.2998C14.4962 12.9585 14.9692 11.8154 15.3714 10.9563L16.29 10.7765L16.6483 11.1971C17.1765 11.8172 17.959 12.1462 18.7546 12.1459C19.2484 12.1459 19.7477 12.0192 20.1941 11.7565L20.7993 11.4C21.07 11.7125 21.456 11.9026 21.9495 11.9686C20.1688 17.4498 19.8142 22.7794 20.9015 27.8539C21.7698 31.906 23.3851 34.9828 24.8905 37.1349C19.097 34.118 15.4087 30.2062 13.9072 25.4763Z" fill="black"/>
<path d="M17.0802 13.5587C16.6826 13.4415 16.2306 13.678 16.1097 14.0866C15.5961 15.828 15.3047 17.3389 15.1936 18.8437C15.1615 19.2734 15.486 19.6494 15.9156 19.6805C15.9352 19.6821 15.9547 19.6827 15.9736 19.6827C16.3807 19.6827 16.7222 19.365 16.7528 18.9594C16.8553 17.5687 17.1272 16.1609 17.6085 14.5288C17.7305 14.1156 17.4937 13.6804 17.0802 13.5587Z" fill="black"/>
<path d="M16.8125 22.0313C16.8125 22.4628 16.4624 22.8125 16.0312 22.8125C15.5997 22.8125 15.25 22.4628 15.25 22.0313C15.25 21.5997 15.5997 21.25 16.0312 21.25C16.4624 21.25 16.8125 21.5997 16.8125 22.0313Z" fill="black"/>
</g>
<defs>
<clipPath id="clip0">
<rect width="40" height="40" fill="white"/>
</clipPath>
</defs>
</svg>
