<svg width="40" height="40" viewBox="0 0 40 40" fill="none" xmlns="http://www.w3.org/2000/svg">
<path fill-rule="evenodd" clip-rule="evenodd" d="M40 20C40 25.3043 37.8929 30.3914 34.1421 34.1421C30.3914 37.8929 25.3043 40 20 40C14.6957 40 9.60859 37.8929 5.85786 34.1421C2.10714 30.3914 0 25.3043 0 20C0 14.6957 2.10714 9.60859 5.85786 5.85786C9.60859 2.10714 14.6957 0 20 0C25.3043 0 30.3914 2.10714 34.1421 5.85786C37.8929 9.60859 40 14.6957 40 20ZM19.115 26.615C18.8803 26.8497 18.7484 27.1681 18.7484 27.5C18.7484 27.8319 18.8803 28.1503 19.115 28.385C19.3497 28.6197 19.6681 28.7516 20 28.7516C20.3319 28.7516 20.6503 28.6197 20.885 28.385L28.385 20.885C28.5014 20.7689 28.5938 20.6309 28.6568 20.4791C28.7198 20.3272 28.7522 20.1644 28.7522 20C28.7522 19.8356 28.7198 19.6728 28.6568 19.5209C28.5938 19.3691 28.5014 19.2311 28.385 19.115L20.885 11.615C20.7688 11.4988 20.6308 11.4066 20.479 11.3437C20.3271 11.2808 20.1644 11.2484 20 11.2484C19.8356 11.2484 19.6729 11.2808 19.521 11.3437C19.3692 11.4066 19.2312 11.4988 19.115 11.615C18.9988 11.7312 18.9066 11.8692 18.8437 12.021C18.7808 12.1729 18.7484 12.3356 18.7484 12.5C18.7484 12.6644 18.7808 12.8271 18.8437 12.979C18.9066 13.1308 18.9988 13.2688 19.115 13.385L24.4825 18.75H12.5C12.1685 18.75 11.8505 18.8817 11.6161 19.1161C11.3817 19.3505 11.25 19.6685 11.25 20C11.25 20.3315 11.3817 20.6495 11.6161 20.8839C11.8505 21.1183 12.1685 21.25 12.5 21.25H24.4825L19.115 26.615Z" fill="#E6BE3E"/>
</svg>
