<svg width="25" height="19" viewBox="0 0 25 19" fill="none" xmlns="http://www.w3.org/2000/svg">
<path d="M24.6595 8.678L17.22 1.23841C16.766 0.784503 16.0299 0.784503 15.576 1.23841C15.122 1.69241 15.122 2.42837 15.576 2.88237L21.0312 8.33754H1.16244C0.520492 8.33754 0 8.85804 0 9.49998C0 10.1418 0.520492 10.6624 1.16244 10.6624H21.0312L15.5762 16.1176C15.1222 16.5716 15.1222 17.3076 15.5762 17.7616C15.8031 17.9884 16.1007 18.102 16.3982 18.102C16.6956 18.102 16.9931 17.9884 17.2201 17.7616L24.6595 10.322C25.1135 9.86796 25.1135 9.132 24.6595 8.678Z" fill="#E6BE3E"/>
</svg>
