<svg width="15" height="8" viewBox="0 0 15 8" fill="none" xmlns="http://www.w3.org/2000/svg">
<path d="M7.5 7.66667C7.25661 7.66714 7.02074 7.58238 6.83333 7.42708L0.583336 2.21875C0.37061 2.04194 0.236835 1.78786 0.211439 1.51242C0.186044 1.23698 0.271108 0.962725 0.447919 0.749999C0.62473 0.537274 0.878804 0.403499 1.15425 0.378103C1.42969 0.352708 1.70394 0.437772 1.91667 0.614583L7.5 5.28125L13.0833 0.78125C13.1899 0.694723 13.3125 0.630107 13.4441 0.591115C13.5757 0.552124 13.7137 0.539526 13.8502 0.554046C13.9867 0.568566 14.119 0.609917 14.2394 0.675723C14.3599 0.741529 14.4661 0.830493 14.5521 0.9375C14.6475 1.04461 14.7197 1.17026 14.7643 1.30658C14.8089 1.44291 14.8248 1.58697 14.8111 1.72975C14.7974 1.87252 14.7544 2.01093 14.6847 2.1363C14.6151 2.26167 14.5203 2.37131 14.4063 2.45833L8.15625 7.48958C7.96346 7.62033 7.7324 7.68268 7.5 7.66667Z" fill="black"/>
</svg>
