<svg width="50" height="50" viewBox="0 0 50 50" fill="none" xmlns="http://www.w3.org/2000/svg">
<path d="M1.56246 15.6249H48.4374C49.2999 15.6249 49.9999 14.9249 49.9999 14.0625C49.9999 13.1999 49.2998 12.5 48.4374 12.5H1.56246C0.699925 12.5 0 13.2001 0 14.0625C0 14.9249 0.700055 15.6249 1.56246 15.6249Z" fill="white"/>
<path d="M48.4374 23.4375H1.56246C0.699925 23.4375 0 24.1376 0 25C0 25.8624 0.700055 26.5624 1.56246 26.5624H48.4374C49.2999 26.5624 49.9999 25.8624 49.9999 25C49.9999 24.1376 49.2999 23.4375 48.4374 23.4375Z" fill="white"/>
<path d="M48.4374 34.375H17.1875C16.3249 34.375 15.625 35.0751 15.625 35.9375C15.625 36.8 16.3251 37.4999 17.1875 37.4999H48.4374C49.3 37.4999 49.9999 36.7999 49.9999 35.9375C50 35.0749 49.3 34.375 48.4374 34.375Z" fill="white"/>
</svg>
