<svg width="35" height="35" viewBox="0 0 35 35" fill="none" xmlns="http://www.w3.org/2000/svg">
<path d="M17.5002 0.700012C8.2217 0.700012 0.700195 8.22151 0.700195 17.5C0.700195 26.7785 8.2217 34.3 17.5002 34.3C26.7787 34.3 34.3002 26.7785 34.3002 17.5C34.3002 8.22151 26.7787 0.700012 17.5002 0.700012ZM24.3339 14.462C24.3409 14.6055 24.3427 14.749 24.3427 14.889C24.3427 19.264 21.0159 24.3058 14.9294 24.3058C13.131 24.3088 11.3699 23.7922 9.85794 22.8183C10.1152 22.8498 10.3794 22.862 10.6472 22.862C12.1977 22.862 13.6239 22.3353 14.7562 21.4463C14.0662 21.4327 13.3976 21.2042 12.8436 20.7927C12.2897 20.3811 11.8779 19.807 11.6657 19.1503C12.1612 19.2445 12.6717 19.2247 13.1584 19.0925C12.4095 18.9411 11.736 18.5353 11.2522 17.9439C10.7683 17.3526 10.5039 16.6121 10.5037 15.848V15.8078C10.9499 16.0545 11.4609 16.205 12.0034 16.2225C11.3013 15.7551 10.8043 15.0372 10.614 14.2155C10.4237 13.3938 10.5545 12.5305 10.9797 11.802C11.8109 12.824 12.8474 13.6601 14.0222 14.2561C15.197 14.852 16.4838 15.1947 17.7994 15.2618C17.6322 14.5518 17.7042 13.8065 18.0042 13.1416C18.3043 12.4768 18.8155 11.9297 19.4586 11.5855C20.1016 11.2412 20.8404 11.119 21.56 11.2379C22.2796 11.3568 22.9398 11.7102 23.4379 12.243C24.1785 12.0965 24.8887 11.8249 25.5379 11.4398C25.2911 12.2065 24.7744 12.8576 24.0837 13.272C24.7397 13.193 25.3802 13.0166 25.9842 12.7488C25.5405 13.4136 24.9817 13.9938 24.3339 14.462Z" fill="#303030"/>
</svg>
