<svg width="25" height="24" viewBox="0 0 25 24" fill="none" xmlns="http://www.w3.org/2000/svg">
<path fill-rule="evenodd" clip-rule="evenodd" d="M24.0976 12C24.0976 15.1826 22.8281 18.2348 20.5686 20.4853C18.309 22.7357 15.2443 24 12.0488 24C8.85324 24 5.78859 22.7357 3.52901 20.4853C1.26942 18.2348 0 15.1826 0 12C0 8.8174 1.26942 5.76516 3.52901 3.51472C5.78859 1.26428 8.85324 0 12.0488 0C15.2443 0 18.309 1.26428 20.5686 3.51472C22.8281 5.76516 24.0976 8.8174 24.0976 12ZM18.1184 7.455C18.0108 7.34823 17.8827 7.26416 17.7417 7.20782C17.6008 7.15149 17.4499 7.12404 17.298 7.12712C17.1462 7.1302 16.9965 7.16375 16.858 7.22575C16.7194 7.28776 16.5949 7.37695 16.4918 7.488L11.2611 14.1255L8.10883 10.9845C7.8947 10.7858 7.61148 10.6776 7.31885 10.6827C7.02621 10.6879 6.747 10.8059 6.54005 11.0121C6.33309 11.2182 6.21454 11.4963 6.20938 11.7877C6.20421 12.0792 6.31284 12.3612 6.51237 12.5745L10.4975 16.545C10.6049 16.6517 10.7327 16.7358 10.8734 16.7923C11.0141 16.8487 11.1648 16.8764 11.3164 16.8736C11.4681 16.8708 11.6176 16.8376 11.7561 16.776C11.8946 16.7144 12.0193 16.6256 12.1226 16.515L18.1349 9.03C18.3399 8.81775 18.4531 8.53391 18.4503 8.23944C18.4475 7.94496 18.3289 7.66332 18.1199 7.455H18.1184Z" fill="#E6BE3E"/>
</svg>
