<svg width="40" height="26" viewBox="0 0 40 26" fill="none" xmlns="http://www.w3.org/2000/svg">
<path d="M38.9703 0.0389404H1.02974C0.46034 0.0389404 0 0.499988 0 1.06869V24.9313C0 25.5 0.46034 25.9617 1.02974 25.9617H38.9703C39.5397 25.9617 40 25.5007 40 24.932V1.06869C40 0.499988 39.5397 0.0389404 38.9703 0.0389404ZM35.2684 7.27478C35.4016 7.27478 35.5368 7.27478 35.6756 7.27478C35.6756 9.72662 35.6756 12.1763 35.6756 14.6282C35.5382 14.6282 35.4051 14.6282 35.2684 14.6282C35.2684 12.177 35.2684 9.72945 35.2684 7.27478ZM23.7139 7.24149C23.745 7.24149 23.7698 7.24149 23.7953 7.24149C24.4207 7.24149 25.0474 7.23937 25.6749 7.24291C25.9129 7.24432 26.1494 7.2599 26.3768 7.34418C26.6742 7.45466 26.8244 7.67492 26.8506 7.98087C26.869 8.18979 26.8534 8.3973 26.7266 8.5786C26.6133 8.73866 26.4518 8.82223 26.272 8.87888C26.2535 8.88526 26.2351 8.89092 26.1948 8.90438C26.2564 8.91996 26.2967 8.93058 26.3392 8.94121C26.5708 8.99857 26.7181 9.14163 26.7627 9.37676C26.7925 9.53257 26.8067 9.69192 26.8314 9.84914C26.8718 10.1055 26.9143 10.3619 26.9575 10.6232C26.9483 10.6239 26.9256 10.6268 26.9044 10.6268C26.5163 10.6268 26.1275 10.6253 25.7401 10.6282C25.6834 10.6282 25.6629 10.6062 25.6544 10.5566C25.6154 10.3251 25.5758 10.0935 25.5354 9.86189C25.5205 9.77194 25.5078 9.682 25.488 9.59347C25.4688 9.5092 25.4122 9.45183 25.3279 9.43837C25.2273 9.42138 25.1232 9.41925 25.0113 9.41004C25.0113 9.82364 25.0113 10.2202 25.0113 10.6218C24.5744 10.6218 24.1466 10.6218 23.7139 10.6218C23.7139 9.49857 23.7139 8.37534 23.7139 7.24149ZM20.1367 7.24503C20.9887 7.24503 21.8364 7.24503 22.6912 7.24503C22.6912 7.53327 22.6912 7.81869 22.6912 8.11543C22.2663 8.11543 21.8399 8.11543 21.4086 8.11543C21.4086 8.24432 21.4086 8.36189 21.4086 8.48724C21.8038 8.48724 22.1926 8.48724 22.5871 8.48724C22.5871 8.78186 22.5871 9.06869 22.5871 9.36259C22.194 9.36259 21.8052 9.36259 21.4072 9.36259C21.4072 9.49645 21.4072 9.61755 21.4072 9.74857C21.4348 9.74999 21.461 9.75282 21.4887 9.75282C21.8775 9.75353 22.2684 9.75424 22.6593 9.75211C22.7203 9.7514 22.7415 9.76557 22.7408 9.83143C22.7358 10.0744 22.738 10.3187 22.7401 10.5616C22.7408 10.6119 22.7259 10.6275 22.6749 10.6275C21.8407 10.6268 21.0071 10.6268 20.1721 10.6268C20.1629 10.6268 20.153 10.6239 20.136 10.6225C20.136 9.49716 20.136 8.37393 20.1367 7.24503ZM22.4164 11.3761C22.4129 11.4695 22.4157 11.5637 22.4157 11.6572C22.4157 12.6338 22.4157 13.6105 22.4157 14.5864C22.4157 14.6898 22.4157 14.6898 22.3123 14.6898C21.9306 14.6898 21.5475 14.6884 21.1643 14.6912C21.1027 14.6926 21.0878 14.6721 21.0878 14.614C21.0885 13.5368 21.0885 12.4589 21.0885 11.381C21.0885 11.3591 21.0914 11.3371 21.0935 11.3059C21.2982 11.3059 21.4943 11.3059 21.6884 11.3059C21.9065 11.3059 22.1246 11.3081 22.3435 11.3045C22.4001 11.3031 22.4186 11.3215 22.4164 11.3761ZM16.2408 7.24716C17.2387 7.24716 18.2344 7.24716 19.2358 7.24716C19.2358 7.54531 19.2358 7.84276 19.2358 8.1473C18.9618 8.1473 18.6884 8.1473 18.4079 8.1473C18.4079 8.97449 18.4079 9.79531 18.4079 10.6239C17.9582 10.6239 17.5227 10.6239 17.0758 10.6239C17.0758 9.80169 17.0758 8.97945 17.0758 8.15013C16.7925 8.15013 16.5198 8.15013 16.2408 8.15013C16.2408 7.84631 16.2408 7.54815 16.2408 7.24716ZM12.3081 9.58922C12.7337 9.58922 13.1509 9.58922 13.568 9.58922C13.5814 9.64659 13.5899 9.70112 13.6069 9.75353C13.6544 9.90367 13.772 9.96387 13.9731 9.94829C14.1169 9.93625 14.2273 9.83568 14.2479 9.69758C14.2627 9.60126 14.2061 9.50707 14.0914 9.46458C13.9589 9.41571 13.8215 9.37888 13.6863 9.3371C13.4306 9.25849 13.1693 9.19475 12.9193 9.09914C12.4731 8.92846 12.3229 8.57435 12.3739 8.11755C12.4242 7.66075 12.7125 7.4058 13.1261 7.26699C13.4915 7.14517 13.8683 7.14163 14.2465 7.17138C14.4858 7.1905 14.7174 7.24149 14.9285 7.35976C15.2351 7.53115 15.3796 7.79956 15.3881 8.14588C15.3881 8.15367 15.3881 8.16075 15.3867 8.16854C15.386 8.17279 15.3824 8.17704 15.3775 8.18837C15.3562 8.18979 15.3314 8.19262 15.3067 8.19262C14.9674 8.19262 14.6275 8.19121 14.2875 8.19333C14.2288 8.19404 14.1962 8.18625 14.1884 8.11543C14.1778 8.0092 14.1062 7.93483 13.9929 7.92421C13.9023 7.91642 13.8067 7.92775 13.7167 7.94758C13.6367 7.96599 13.5892 8.02902 13.585 8.11472C13.5807 8.19687 13.6176 8.26344 13.6941 8.29036C13.8392 8.34064 13.9887 8.3803 14.136 8.42421C14.3661 8.49291 14.6006 8.54956 14.8258 8.63242C15.3562 8.82718 15.5779 9.22591 15.4745 9.78257C15.3952 10.2061 15.1197 10.4504 14.7295 10.5878C14.4334 10.6919 14.1261 10.7174 13.8159 10.7132C13.539 10.7089 13.2656 10.6799 13.0028 10.5828C12.585 10.4278 12.3449 10.1353 12.3067 9.68625C12.3052 9.66854 12.3052 9.65084 12.3052 9.63313C12.3059 9.62109 12.3081 9.60905 12.3081 9.58922ZM8.96742 7.24149C9.76133 7.24149 10.5559 7.2422 11.3499 7.24007C11.415 7.24007 11.4398 7.25565 11.4391 7.32364C11.4363 7.56231 11.4377 7.80098 11.4377 8.03965C11.4377 8.06231 11.4348 8.08427 11.4334 8.11614C11.0057 8.11614 10.5807 8.11614 10.1509 8.11614C10.1509 8.24432 10.1509 8.36189 10.1509 8.48795C10.5475 8.48795 10.9391 8.48795 11.335 8.48795C11.335 8.78186 11.335 9.06727 11.335 9.36189C10.9426 9.36189 10.5503 9.36189 10.1523 9.36189C10.1523 9.49503 10.1523 9.62039 10.1523 9.7507C10.5928 9.7507 11.0283 9.7507 11.4724 9.7507C11.4724 10.0425 11.4724 10.3293 11.4724 10.6218C10.6098 10.6218 9.74858 10.6218 8.87394 10.6218C8.87181 10.5843 8.86898 10.5496 8.86898 10.5142C8.86827 9.45608 8.86827 8.39871 8.86827 7.34064C8.86827 7.24149 8.86827 7.24149 8.96742 7.24149ZM7.18697 10.6253C6.78824 10.6253 6.39023 10.6253 5.9915 10.6253C5.96459 10.6253 5.93697 10.6253 5.89802 10.6253C5.7932 9.89659 5.68909 9.17067 5.58499 8.44475C5.57649 8.44475 5.5687 8.44475 5.5602 8.44475C5.45609 9.16996 5.35198 9.89517 5.24717 10.6253C5.16076 10.6253 5.07932 10.6253 4.99858 10.6253C4.6289 10.6253 4.2585 10.6232 3.8881 10.6275C3.81516 10.6289 3.79391 10.6013 3.78045 10.5382C3.68626 10.0878 3.58924 9.63738 3.49221 9.18767C3.35694 8.56231 3.22025 7.93696 3.08428 7.31231C3.07932 7.29248 3.08074 7.27265 3.07932 7.24361C3.47521 7.24361 3.86261 7.24361 4.26062 7.24361C4.35623 7.95183 4.45184 8.65863 4.54674 9.36543C4.55453 9.36543 4.56161 9.36543 4.56941 9.36543C4.67351 8.66146 4.77762 7.95679 4.88244 7.24574C4.90935 7.24432 4.93697 7.24149 4.96388 7.24149C5.3704 7.24149 5.7762 7.24291 6.18201 7.24007C6.24504 7.23937 6.26558 7.25565 6.27479 7.32152C6.34065 7.7854 6.41289 8.24786 6.48159 8.71033C6.51416 8.92846 6.54391 9.14588 6.57436 9.3633C6.58286 9.3633 6.59065 9.36401 6.59844 9.36472C6.69334 8.65934 6.78824 7.95395 6.88385 7.24574C7.28116 7.24574 7.67139 7.24574 8.07153 7.24574C8.04887 7.35764 8.02762 7.4667 8.00496 7.57435C7.9136 7.99928 7.82224 8.42421 7.73017 8.84985C7.61261 9.39092 7.49504 9.932 7.37677 10.4731C7.34278 10.6275 7.34207 10.626 7.18697 10.6253ZM9.77337 19.1593C9.77408 19.2125 9.75637 19.2316 9.70255 19.2302C9.57649 19.2273 9.45043 19.2295 9.3187 19.2295C9.3187 18.6416 9.3187 18.0637 9.3187 17.4865C9.31445 17.4851 9.30949 17.4844 9.30524 17.4837C9.25921 17.6275 9.21246 17.7705 9.16714 17.9157C9.03399 18.3385 8.90085 18.7592 8.76487 19.1813C8.75779 19.2011 8.7245 19.2252 8.70184 19.2266C8.61615 19.2316 8.52975 19.2266 8.44334 19.2309C8.39164 19.233 8.36615 19.211 8.35127 19.1629C8.2585 18.8569 8.1636 18.5538 8.0687 18.2493C7.99292 18.0021 7.91572 17.7578 7.82649 17.5127C7.82649 17.5333 7.82649 17.5559 7.82649 17.5758C7.82649 18.0963 7.82436 18.6168 7.8272 19.1367C7.82861 19.2117 7.80453 19.2337 7.73229 19.2302C7.62394 19.2252 7.51558 19.2287 7.40085 19.2287C7.40085 18.5212 7.40085 17.8229 7.40085 17.1147C7.51629 17.1147 7.6296 17.1147 7.74292 17.1147C7.84915 17.1147 7.95609 17.1176 8.06232 17.1133C8.11969 17.1126 8.14235 17.1338 8.15722 17.1863C8.29037 17.6537 8.42635 18.1197 8.56091 18.5857C8.56232 18.5928 8.56657 18.5998 8.57649 18.6218C8.72521 18.1473 8.87111 17.6855 9.01204 17.2238C9.03683 17.1459 9.0687 17.1091 9.15793 17.114C9.33782 17.1225 9.51841 17.1183 9.6983 17.1154C9.75567 17.114 9.77408 17.1338 9.77337 17.1891C9.77195 17.8449 9.77266 18.5014 9.77337 19.1593ZM12.0737 18.7812C11.9547 19.0425 11.7387 19.1891 11.4653 19.2514C11.2089 19.3095 10.9568 19.2882 10.716 19.1792C10.4547 19.0588 10.2982 18.8527 10.2373 18.5779C10.2047 18.4306 10.1976 18.2783 10.1785 18.1282C10.199 17.9108 10.2472 17.7047 10.3562 17.5163C10.4894 17.2861 10.6905 17.1494 10.9511 17.0984C11.1848 17.051 11.4136 17.0673 11.6374 17.1523C11.8732 17.2422 12.0255 17.4164 12.114 17.6445C12.262 18.0269 12.2415 18.4086 12.0737 18.7812ZM14.5127 19.1579C14.5142 19.216 14.4929 19.2323 14.4384 19.2316C14.2762 19.2287 14.1133 19.2287 13.9511 19.2316C13.9008 19.2316 13.8761 19.2139 13.8541 19.1678C13.6098 18.6388 13.3633 18.1119 13.1176 17.5836C13.1098 17.568 13.1013 17.5531 13.0829 17.5205C13.0829 18.0666 13.0829 18.5921 13.0829 19.1168C13.0829 19.2295 13.0829 19.2302 12.966 19.2302C12.8626 19.2302 12.7592 19.2302 12.6516 19.2302C12.6516 18.5219 12.6516 17.8258 12.6516 17.1147C12.7118 17.1147 12.7691 17.1147 12.8265 17.1147C12.961 17.1161 13.0956 17.119 13.2295 17.1147C13.2861 17.1133 13.3137 17.1338 13.3385 17.1848C13.5751 17.6862 13.8137 18.187 14.0517 18.6877C14.0567 18.6997 14.063 18.7096 14.0793 18.7217C14.0793 18.6877 14.0793 18.6544 14.0793 18.6211C14.0793 18.148 14.0807 17.6763 14.0779 17.2047C14.0772 17.1331 14.0977 17.1098 14.1678 17.1133C14.2542 17.119 14.3407 17.119 14.4263 17.1133C14.4929 17.1105 14.5135 17.1331 14.5135 17.2004C14.5113 17.6721 14.512 18.1438 14.512 18.6168C14.512 18.796 14.5106 18.9766 14.5127 19.1579ZM13.0942 14.6721C12.7592 14.5765 12.4858 14.3902 12.3534 14.051C12.3038 13.9249 12.2677 13.7861 12.2663 13.653C12.2578 12.8845 12.2613 12.1161 12.2613 11.347C12.2613 11.3378 12.2642 11.3279 12.2656 11.3088C12.7082 11.3088 13.1466 11.3088 13.5921 11.3088C13.5921 11.3421 13.5921 11.3718 13.5921 11.4015C13.5921 12.1041 13.5914 12.8074 13.5949 13.5092C13.5949 13.5836 13.6126 13.6608 13.6402 13.7302C13.6806 13.8364 13.7712 13.8817 13.8824 13.8753C13.9901 13.8718 14.0666 13.8123 14.0984 13.7125C14.1218 13.6367 14.1331 13.5538 14.1331 13.4745C14.136 12.8144 14.1353 12.1551 14.1353 11.4957C14.1353 11.4355 14.1353 11.3753 14.1353 11.3109C14.5814 11.3109 15.0184 11.3109 15.4681 11.3109C15.4681 11.3406 15.4681 11.3697 15.4681 11.3994C15.4681 12.1197 15.4688 12.8392 15.4674 13.5609C15.4667 14.1551 15.1402 14.5623 14.5581 14.6969C14.068 14.8102 13.5779 14.8123 13.0942 14.6721ZM16.4667 19.2238C15.983 19.2238 15.5078 19.2238 15.022 19.2238C15.022 19.1898 15.022 19.1608 15.022 19.131C15.022 18.4887 15.0234 17.8463 15.0212 17.2047C15.0205 17.131 15.0425 17.1133 15.1147 17.1133C15.5234 17.1161 15.9313 17.1161 16.3399 17.1133C16.4171 17.1119 16.4426 17.1353 16.4363 17.2117C16.4292 17.2946 16.4348 17.3775 16.4348 17.466C16.1169 17.466 15.8088 17.466 15.4858 17.466C15.4858 17.6246 15.4837 17.7705 15.4894 17.9171C15.4894 17.9313 15.5361 17.9547 15.5616 17.9554C15.7975 17.9575 16.034 17.9561 16.2698 17.9568C16.3017 17.9568 16.3343 17.9603 16.3697 17.9625C16.3697 18.08 16.3697 18.1905 16.3697 18.3088C16.3314 18.3109 16.2967 18.3144 16.262 18.3144C16.0283 18.3144 15.7953 18.3159 15.5616 18.313C15.5021 18.313 15.483 18.3321 15.4844 18.3916C15.4873 18.546 15.4851 18.699 15.4851 18.8605C15.5227 18.8633 15.5517 18.8654 15.5814 18.8654C15.8534 18.8654 16.1246 18.8668 16.3959 18.864C16.454 18.864 16.4717 18.8796 16.4688 18.9377C16.4639 19.0319 16.4674 19.1246 16.4667 19.2238ZM16.556 14.6055C16.556 13.5347 16.5574 12.4639 16.5552 11.3938C16.5552 11.3229 16.5744 11.3052 16.6438 11.3052C17.1232 11.3081 17.6034 11.3081 18.0822 11.3059C18.1388 11.3052 18.165 11.3208 18.1841 11.3768C18.4058 12.017 18.631 12.6565 18.8555 13.296C18.8612 13.3144 18.8697 13.3307 18.8775 13.3477C18.8853 13.3463 18.8924 13.3449 18.8994 13.3435C18.8994 12.6671 18.8994 11.9908 18.8994 11.3102C19.2585 11.3102 19.6098 11.3102 19.9681 11.3102C19.9681 12.4348 19.9681 13.5581 19.9681 14.687C19.9426 14.6884 19.92 14.6919 19.898 14.6919C19.4157 14.6919 18.9341 14.6905 18.4518 14.6933C18.3945 14.6933 18.369 14.6749 18.3499 14.6204C18.1324 13.9887 17.9129 13.3583 17.6926 12.728C17.6813 12.6962 17.6678 12.6657 17.6551 12.6338C17.6487 12.6353 17.6416 12.636 17.6346 12.6367C17.6346 13.3187 17.6346 14.0014 17.6346 14.687C17.2698 14.687 16.9178 14.687 16.5595 14.687C16.5581 14.6579 16.556 14.6303 16.556 14.6055ZM18.4327 17.4632C18.2656 17.7776 18.0963 18.0928 17.9306 18.4093C17.9136 18.4412 17.9058 18.4809 17.9058 18.517C17.9037 18.7273 17.903 18.9384 17.9058 19.1494C17.9065 19.2117 17.8853 19.233 17.8229 19.2302C17.7217 19.2259 17.6197 19.2259 17.5184 19.2302C17.4603 19.2323 17.4448 19.2103 17.4455 19.1551C17.4483 18.9476 17.4497 18.7387 17.4455 18.5312C17.444 18.4809 17.4313 18.4256 17.4072 18.3817C17.199 17.9865 16.9873 17.5956 16.7769 17.2018C16.767 17.182 16.7585 17.1615 16.7429 17.1289C16.9171 17.1289 17.0772 17.1275 17.2365 17.131C17.2571 17.1324 17.2868 17.16 17.2975 17.182C17.4256 17.4596 17.551 17.7394 17.6771 18.0184C17.6834 18.0312 17.6898 18.0453 17.7011 18.0715C17.762 17.9405 17.818 17.8187 17.8754 17.6969C17.9547 17.5262 18.0347 17.3576 18.1112 17.187C18.1303 17.143 18.153 17.1268 18.2011 17.1282C18.3322 17.131 18.4625 17.1289 18.6098 17.1289C18.546 17.25 18.4901 17.3555 18.4327 17.4632ZM21.4044 17.4787C21.25 17.4787 21.0984 17.478 20.9462 17.4795C20.7571 17.4809 20.789 17.461 20.789 17.636C20.7875 18.1338 20.7875 18.6303 20.7875 19.1282C20.7875 19.1572 20.7875 19.1877 20.7875 19.2295C20.6424 19.2295 20.5035 19.2302 20.3647 19.2273C20.3513 19.2266 20.3307 19.2004 20.3265 19.1834C20.3201 19.1572 20.3237 19.1282 20.3237 19.1006C20.3237 18.5885 20.3222 18.0758 20.3251 17.5623C20.3251 17.4943 20.3038 17.4752 20.2387 17.478C20.0843 17.4816 19.9292 17.4773 19.7748 17.4802C19.7181 17.4816 19.6983 17.4632 19.7011 17.4065C19.7047 17.3378 19.7061 17.2698 19.7004 17.2004C19.6948 17.131 19.7224 17.1147 19.7875 17.1147C20.204 17.1161 20.6197 17.1147 21.0361 17.1147C21.1558 17.1147 21.2783 17.1147 21.4058 17.1147C21.4058 17.2429 21.4058 17.3555 21.4044 17.4787ZM22.9136 19.2224C22.8874 19.0382 22.8626 18.8583 22.8357 18.6785C22.8279 18.6204 22.8187 18.5637 22.8045 18.5071C22.7868 18.4348 22.7344 18.3881 22.665 18.3853C22.5106 18.3775 22.3569 18.3824 22.1948 18.3824C22.1948 18.6643 22.1948 18.9405 22.1948 19.2224C22.0368 19.2224 21.8867 19.2224 21.7273 19.2224C21.7259 19.194 21.7231 19.1671 21.7231 19.1409C21.7231 18.4936 21.7245 17.8463 21.7217 17.2004C21.7217 17.1338 21.7387 17.1133 21.8067 17.1133C22.0878 17.1161 22.3704 17.1076 22.6509 17.1176C22.7783 17.1218 22.9122 17.136 23.0297 17.1799C23.2472 17.2613 23.3449 17.4412 23.3548 17.6671C23.3633 17.8796 23.2436 18.0552 23.0404 18.1438C23.0156 18.1537 22.9915 18.1643 22.9476 18.1813C23.2061 18.2146 23.2571 18.3945 23.2847 18.5921C23.3067 18.7507 23.3314 18.9079 23.3584 19.0651C23.3669 19.1168 23.3895 19.165 23.4072 19.2231C23.2429 19.2224 23.0807 19.2224 22.9136 19.2224ZM23.4193 12.7302C23.4752 12.2132 23.6678 11.7698 24.1246 11.4802C24.4518 11.2705 24.8194 11.2132 25.2011 11.2195C25.4851 11.2245 25.7606 11.2698 26.0191 11.3923C26.4016 11.5736 26.6558 11.8711 26.7854 12.2705C26.9497 12.7811 26.9483 13.2953 26.7585 13.7974C26.5574 14.3321 26.1494 14.6303 25.5977 14.7351C25.4526 14.7627 25.3017 14.7691 25.1537 14.7847C24.7797 14.7734 24.4228 14.7082 24.1034 14.5C23.772 14.2847 23.5779 13.9731 23.4795 13.597C23.4044 13.3116 23.3881 13.0219 23.4193 12.7302ZM25.437 19.228C25.3541 19.2273 25.2479 19.2542 25.1926 19.2125C25.1353 19.17 25.1225 19.063 25.0963 18.9816C25.0283 18.7769 25.0297 18.7762 24.8173 18.7762C24.6374 18.7762 24.4568 18.779 24.2769 18.7741C24.2203 18.7727 24.1948 18.7953 24.1785 18.8449C24.1466 18.9511 24.1062 19.0552 24.0729 19.1615C24.0581 19.2103 24.0354 19.2309 23.9823 19.2295C23.8633 19.2252 23.7443 19.228 23.6091 19.228C23.6771 19.0411 23.738 18.8704 23.7989 18.6997C23.9788 18.2018 24.1579 17.7054 24.335 17.2061C24.3584 17.1409 24.3874 17.1083 24.4632 17.1133C24.5871 17.1204 24.7118 17.1176 24.8364 17.1133C24.8909 17.1119 24.9186 17.131 24.9356 17.1827C25.0878 17.6282 25.2415 18.0722 25.3959 18.517C25.471 18.7323 25.5439 18.9476 25.6176 19.1629C25.6225 19.1792 25.6268 19.1962 25.636 19.2309C25.5652 19.2309 25.5014 19.2316 25.437 19.228ZM27.8173 19.2316C27.6466 19.2302 27.4759 19.2337 27.3074 19.228C27.2783 19.2273 27.2387 19.1976 27.2252 19.1707C27.0305 18.7585 26.8385 18.3449 26.6466 17.932C26.5857 17.8003 26.5248 17.6707 26.4639 17.5404C26.4596 17.5411 26.4554 17.5418 26.4511 17.5425C26.4511 18.0722 26.4511 18.6013 26.4511 19.1317C26.4511 19.2302 26.4511 19.2302 26.3499 19.2309C26.2415 19.2309 26.1331 19.2309 26.0156 19.2309C26.0156 19.1947 26.0156 19.17 26.0156 19.1452C26.0156 18.4979 26.017 17.852 26.0142 17.2061C26.0142 17.136 26.0312 17.1119 26.1027 17.1147C26.2663 17.119 26.432 17.1176 26.597 17.1147C26.6537 17.1119 26.6813 17.1345 26.7047 17.1848C26.9391 17.6834 27.1771 18.1813 27.4129 18.6806C27.42 18.6933 27.4278 18.7068 27.4426 18.7344C27.4448 18.7018 27.4462 18.6841 27.4462 18.6671C27.4462 18.1785 27.4476 17.6877 27.4448 17.1983C27.4448 17.1296 27.466 17.1119 27.5319 17.1147C27.6254 17.119 27.7195 17.1161 27.813 17.1147C27.8626 17.1133 27.8789 17.1346 27.8789 17.1827C27.8782 17.8449 27.8782 18.5064 27.8803 19.1693C27.8803 19.2167 27.8612 19.2316 27.8173 19.2316ZM27.978 7.23937C28.4568 7.2422 28.9363 7.2422 29.4157 7.23937C29.4717 7.23866 29.4958 7.2592 29.5135 7.30948C29.733 7.94546 29.9554 8.58002 30.1771 9.21529C30.1848 9.23795 30.1955 9.2599 30.2061 9.28257C30.2118 9.28186 30.2188 9.28044 30.2259 9.27973C30.2259 8.60339 30.2259 7.92704 30.2259 7.24574C30.5843 7.24574 30.9356 7.24574 31.2946 7.24574C31.2946 8.36968 31.2946 9.49361 31.2946 10.6218C31.2748 10.6232 31.255 10.6261 31.2358 10.6261C30.7528 10.6261 30.272 10.6246 29.7904 10.6275C29.7266 10.6282 29.6962 10.6112 29.6749 10.5489C29.4688 9.94616 29.2585 9.34418 29.0489 8.7422C29.0297 8.68554 29.0092 8.62959 28.9717 8.57364C28.9703 8.59701 28.9667 8.61897 28.9667 8.64234C28.9667 9.27619 28.9653 9.91075 28.9681 10.5446C28.9681 10.614 28.9497 10.6296 28.8831 10.6289C28.5772 10.6261 28.2748 10.6275 27.9695 10.6275C27.9483 10.6275 27.9263 10.6253 27.8959 10.6239C27.8945 10.5942 27.8902 10.5673 27.8902 10.5404C27.8902 9.46954 27.8902 8.39942 27.8888 7.32931C27.8888 7.2599 27.9079 7.23937 27.978 7.23937ZM27.8895 14.6147C27.8909 13.5368 27.8909 12.4589 27.8895 11.381C27.8895 11.3258 27.9037 11.3052 27.9625 11.3059C28.4497 11.3074 28.9363 11.3074 29.4235 11.3052C29.4766 11.3045 29.4965 11.3265 29.512 11.3732C29.7337 12.0113 29.9575 12.6487 30.1806 13.2854C30.1884 13.3059 30.1983 13.3265 30.2217 13.3435C30.2217 12.6685 30.2217 11.9936 30.2217 11.3123C30.5843 11.3123 30.937 11.3123 31.2967 11.3123C31.2967 12.4348 31.2967 13.5574 31.2967 14.6912C31.267 14.6912 31.245 14.6912 31.2224 14.6912C30.7401 14.6912 30.2585 14.6912 29.7769 14.6926C29.7217 14.6926 29.6976 14.6749 29.6799 14.6232C29.4596 13.9844 29.2373 13.3463 29.0156 12.7082C29.0078 12.6841 28.995 12.66 28.9667 12.6381C28.9667 12.6742 28.9667 12.711 28.9667 12.7472C28.9667 13.3661 28.9653 13.9858 28.9681 14.6041C28.9688 14.6763 28.9483 14.6926 28.8789 14.6926C28.5765 14.6891 28.2748 14.6891 27.9731 14.6926C27.9122 14.6926 27.8888 14.6799 27.8895 14.6147ZM29.8782 18.9532C29.7606 19.1105 29.5999 19.1976 29.4108 19.2408C29.1558 19.2989 28.9023 19.2989 28.6572 19.2032C28.4285 19.1161 28.3095 18.9405 28.2882 18.6997C28.2734 18.5446 28.2762 18.5446 28.4341 18.5446C28.5198 18.5446 28.6069 18.5418 28.6926 18.5467C28.7118 18.5474 28.7465 18.5729 28.7465 18.5878C28.7465 18.9115 29.0035 18.9745 29.2457 18.9278C29.3052 18.9157 29.369 18.8909 29.4164 18.8534C29.5715 18.7295 29.5368 18.5099 29.3492 18.4455C29.2054 18.3966 29.056 18.3661 28.9115 18.3208C28.818 18.2904 28.7252 18.2528 28.6381 18.2089C28.2174 17.9986 28.3045 17.4816 28.5347 17.2847C28.636 17.199 28.7493 17.1423 28.8782 17.1147C29.0899 17.0673 29.3052 17.0651 29.5156 17.131C29.784 17.216 29.9568 17.461 29.9278 17.7245C29.7812 17.7245 29.6402 17.7245 29.5156 17.7245C29.4717 17.643 29.4455 17.5559 29.3924 17.4964C29.2684 17.3598 28.9788 17.3846 28.8683 17.5312C28.7564 17.6778 28.8272 17.8626 29.0191 17.92C29.1714 17.966 29.3293 17.995 29.4795 18.0467C29.5956 18.0878 29.716 18.1324 29.813 18.2054C30.0312 18.3718 30.0524 18.7117 29.8782 18.9532ZM31.7783 17.466C31.4816 17.466 31.187 17.466 30.8803 17.466C30.8803 17.6275 30.8775 17.7812 30.8831 17.9341C30.8839 17.949 30.9306 17.9724 30.9554 17.9724C31.1785 17.9752 31.4023 17.9738 31.6246 17.9738C31.7245 17.9738 31.7245 17.9738 31.7245 18.0736C31.7245 18.1593 31.7245 18.2436 31.7245 18.3364C31.437 18.3364 31.1636 18.3364 30.8831 18.3364C30.8831 18.6346 30.8831 18.9242 30.8831 19.2287C30.7344 19.2287 30.597 19.2302 30.4618 19.2266C30.4469 19.2266 30.4285 19.2011 30.4207 19.1841C30.4143 19.17 30.4193 19.1494 30.4193 19.1317C30.4193 18.4908 30.4193 17.8491 30.4178 17.2075C30.4178 17.1494 30.4263 17.119 30.4943 17.119C30.8994 17.1204 31.306 17.119 31.711 17.119C31.7316 17.119 31.7514 17.1232 31.7783 17.1253C31.7783 17.2358 31.7783 17.3463 31.7783 17.466ZM32.0857 7.27478C32.2195 7.27478 32.3555 7.27478 32.495 7.27478C32.495 9.72662 32.495 12.1763 32.495 14.6282C32.3569 14.6282 32.2231 14.6282 32.0857 14.6282C32.0857 12.177 32.0857 9.72945 32.0857 7.27478ZM33.602 19.2238C33.1239 19.2238 32.648 19.2238 32.1693 19.2238C32.1693 18.5205 32.1693 17.8236 32.1693 17.1183C32.2011 17.1168 32.2302 17.114 32.2592 17.114C32.6671 17.114 33.0758 17.1154 33.4837 17.1126C33.5567 17.1126 33.5829 17.1331 33.5772 17.2068C33.5708 17.2896 33.5758 17.3732 33.5758 17.4653C33.2606 17.4653 32.9504 17.4653 32.6282 17.4653C32.6282 17.6232 32.6268 17.7712 32.6317 17.92C32.6317 17.9327 32.6806 17.9547 32.7068 17.9547C32.9419 17.9575 33.1785 17.9561 33.4136 17.9568C33.5149 17.9568 33.5149 17.9575 33.5149 18.0552C33.5149 18.1381 33.5149 18.221 33.5149 18.3095C33.471 18.3123 33.4363 18.3144 33.4008 18.3151C33.1799 18.3151 32.9596 18.3151 32.7387 18.3151C32.6261 18.3151 32.6261 18.3144 32.6261 18.432C32.6254 18.551 32.6282 18.6707 32.6246 18.7889C32.6232 18.8463 32.6388 18.8676 32.7011 18.8668C32.9717 18.864 33.2429 18.8661 33.5142 18.8661C33.5425 18.8661 33.5694 18.8661 33.602 18.8661C33.602 18.9894 33.602 19.1041 33.602 19.2238ZM35.2316 19.228C35.2188 19.2273 35.1983 19.194 35.1955 19.1735C35.1643 18.978 35.1353 18.7833 35.1069 18.5892C35.0836 18.4306 35.0312 18.3845 34.8711 18.3845C34.7415 18.3845 34.6133 18.3845 34.4759 18.3845C34.4759 18.6693 34.4759 18.9455 34.4759 19.2259C34.3173 19.2259 34.1671 19.2259 34.0135 19.2259C34.0135 18.5234 34.0135 17.8272 34.0135 17.1218C34.0467 17.1204 34.0758 17.1176 34.1055 17.1176C34.3761 17.1161 34.6473 17.1119 34.9186 17.119C35.0347 17.1197 35.1537 17.1338 35.2642 17.1636C35.4894 17.2252 35.6367 17.4207 35.6395 17.66C35.6424 17.8541 35.5708 18.0382 35.3187 18.1473C35.2975 18.1558 35.2755 18.1671 35.2365 18.1834C35.4334 18.2096 35.5227 18.3272 35.5524 18.4986C35.5687 18.5871 35.5793 18.6785 35.5949 18.767C35.6211 18.9178 35.6487 19.068 35.6778 19.228C35.5382 19.228 35.3846 19.2295 35.2316 19.228ZM36.5078 8.10126C36.262 8.10339 36.0567 7.90438 36.0545 7.66359C36.0524 7.42421 36.2521 7.22378 36.4943 7.22095C36.7465 7.21812 36.937 7.40721 36.9384 7.66075C36.9398 7.90226 36.7486 8.09914 36.5078 8.10126Z" fill="black"/>
</svg>
