<svg width="566" height="507" viewBox="0 0 566 507" fill="none" xmlns="http://www.w3.org/2000/svg">
<path d="M283 506.15C439.297 506.15 566 434.938 566 347.094C566 259.25 439.297 188.038 283 188.038C126.703 188.038 0 259.25 0 347.094C0 434.938 126.703 506.15 283 506.15Z" fill="#F5F5F5"/>
<path d="M531.427 341.865C512.669 359.099 485.927 376.755 459.513 390.108C457.171 391.135 454.55 391.333 452.08 390.671C415.092 378.49 385.184 360.541 360.799 338.125C360.416 337.803 360.114 337.397 359.915 336.938C359.716 336.479 359.627 335.981 359.655 335.482C359.682 334.982 359.825 334.496 360.072 334.062C360.32 333.627 360.665 333.257 361.08 332.978C386.955 314.08 417.143 301.137 451.951 294.583C454.56 294.199 457.22 294.346 459.771 295.017C490.995 304.537 514.959 318.23 531.661 336.097C532.393 336.894 532.778 337.948 532.734 339.029C532.691 340.11 532.22 341.13 531.427 341.865Z" fill="#E0E0E0"/>
<path d="M278.31 460.557C354.992 460.557 417.155 424.665 417.155 380.39C417.155 336.114 354.992 300.222 278.31 300.222C201.629 300.222 139.466 336.114 139.466 380.39C139.466 424.665 201.629 460.557 278.31 460.557Z" fill="#E0E0E0"/>
<path d="M34.7023 341.865C53.4604 359.099 80.2023 376.755 106.616 390.108C108.958 391.135 111.579 391.333 114.049 390.671C151.026 378.49 180.933 360.541 205.33 338.125C205.712 337.803 206.014 337.396 206.211 336.936C206.409 336.477 206.497 335.978 206.469 335.479C206.44 334.979 206.296 334.494 206.048 334.06C205.799 333.626 205.453 333.256 205.037 332.978C179.163 314.08 148.986 301.137 114.166 294.583C111.561 294.199 108.905 294.346 106.358 295.017C75.1259 304.537 51.1586 318.23 34.4561 336.097C34.0933 336.492 33.8118 336.954 33.6277 337.458C33.4437 337.961 33.3607 338.496 33.3836 339.032C33.4065 339.568 33.5347 340.094 33.761 340.58C33.9873 341.066 34.3071 341.503 34.7023 341.865Z" fill="#E0E0E0"/>
<path d="M449.044 201.215L455.046 201.391L460.041 134.612L454.026 134.448L449.044 201.215Z" fill="#455A64"/>
<path d="M500.394 229.411L506.408 229.587L511.391 162.808L505.388 162.632L500.394 229.411Z" fill="#455A64"/>
<path d="M498.366 235.132H508.319L522.774 338.442C522.777 338.674 522.71 338.902 522.582 339.096C522.455 339.29 522.273 339.442 522.059 339.532C521.513 339.804 520.911 339.945 520.301 339.945C519.691 339.945 519.089 339.804 518.542 339.532C518.373 339.445 518.224 339.324 518.103 339.176C517.982 339.029 517.892 338.859 517.839 338.676L498.366 235.132Z" fill="#455A64"/>
<path d="M438.68 200.676H448.633L463.089 303.986C463.091 304.218 463.024 304.445 462.897 304.639C462.769 304.833 462.587 304.985 462.374 305.076C461.829 305.353 461.226 305.497 460.615 305.497C460.004 305.497 459.401 305.353 458.857 305.076C458.684 304.993 458.532 304.874 458.41 304.726C458.289 304.578 458.201 304.405 458.153 304.22L438.68 200.676Z" fill="#455A64"/>
<path d="M361.819 336.601L378.994 235.132H388.948L366.813 336.836C366.765 337.021 366.678 337.194 366.556 337.341C366.435 337.489 366.282 337.609 366.11 337.692C365.564 337.965 364.962 338.107 364.351 338.107C363.741 338.107 363.139 337.965 362.593 337.692C362.377 337.603 362.192 337.452 362.063 337.257C361.933 337.063 361.865 336.835 361.866 336.601H361.819Z" fill="#455A64"/>
<path d="M426.475 373.93L440.943 270.62H450.884L431.481 374.176C431.429 374.359 431.338 374.529 431.214 374.675C431.091 374.82 430.938 374.938 430.766 375.02C430.222 375.299 429.619 375.444 429.008 375.444C428.396 375.444 427.794 375.299 427.249 375.02C427.033 374.931 426.849 374.78 426.719 374.586C426.59 374.392 426.521 374.163 426.522 373.93H426.475Z" fill="#455A64"/>
<path d="M378.994 235.132H388.948L384.903 253.726C382.636 251.85 380.432 249.927 378.291 247.958C377.821 247.493 377.426 246.96 377.118 246.375L378.994 235.132Z" fill="#37474F"/>
<path d="M508.319 235.132L510.042 247.477C509.693 248.739 509.032 249.892 508.12 250.83C506.267 252.53 504.31 254.242 502.258 255.942L498.354 235.132H508.319Z" fill="#37474F"/>
<path d="M438.926 284.864L440.919 270.62H450.861L447.613 287.959C444.675 286.975 441.779 285.943 438.926 284.864Z" fill="#37474F"/>
<path d="M447.637 203.337C448.082 203.252 448.532 203.201 448.985 203.185L460.287 283.961C458.47 284.934 456.652 285.896 454.835 286.822L439.5 205.06C442.185 204.439 444.893 203.853 447.637 203.337Z" fill="#37474F"/>
<path d="M447.742 280.14C419.605 270.819 396.838 257.149 378.279 240.103C376.939 238.708 376.148 236.876 376.052 234.944V229.587C376.096 228.646 376.338 227.725 376.76 226.883C377.182 226.041 377.775 225.297 378.502 224.698C398.186 210.313 421.153 200.465 447.672 195.47C449.655 195.18 451.677 195.292 453.616 195.799C477.368 203.052 495.603 213.49 508.319 227.113C509.567 228.624 510.288 230.501 510.371 232.459V237.817C510.275 239.749 509.484 241.581 508.143 242.975C493.887 256.094 473.523 269.565 453.417 279.717C451.63 280.505 449.626 280.654 447.742 280.14Z" fill="#E6BE3E"/>
<path opacity="0.4" d="M376.052 229.587V234.944C376.147 236.879 376.943 238.712 378.291 240.103C396.838 257.161 419.605 270.819 447.742 280.14C448.762 280.435 449.831 280.518 450.884 280.386V195.412C449.801 195.321 448.71 195.364 447.637 195.541C421.153 200.523 398.186 210.383 378.467 224.756C377.754 225.353 377.172 226.089 376.756 226.92C376.341 227.751 376.101 228.659 376.052 229.587Z" fill="black"/>
<path opacity="0.5" d="M450.884 195.412V280.444C451.754 280.376 452.605 280.15 453.393 279.776C473.488 269.623 493.864 256.153 508.12 243.034C509.459 241.643 510.25 239.815 510.347 237.887V232.506C510.266 230.555 509.545 228.684 508.296 227.183C495.587 213.545 477.353 203.103 453.592 195.857C452.709 195.609 451.801 195.46 450.884 195.412Z" fill="black"/>
<path d="M508.096 231.451C493.84 244.57 473.476 258.005 453.37 268.158C451.591 268.943 449.597 269.096 447.719 268.592C419.582 259.318 396.814 245.66 378.256 228.602C377.964 228.357 377.734 228.047 377.584 227.698C377.433 227.348 377.366 226.968 377.387 226.588C377.409 226.208 377.519 225.839 377.708 225.508C377.898 225.178 378.161 224.897 378.478 224.686C398.163 210.313 421.129 200.465 447.649 195.47C449.632 195.18 451.653 195.292 453.593 195.799C477.345 203.044 495.579 213.466 508.296 227.066C508.85 227.674 509.14 228.478 509.103 229.3C509.065 230.122 508.703 230.895 508.096 231.451Z" fill="#E6BE3E"/>
<path opacity="0.3" d="M508.096 231.451C493.84 244.57 473.476 258.005 453.37 268.158C451.591 268.943 449.597 269.096 447.719 268.592C419.582 259.318 396.814 245.66 378.256 228.602C377.964 228.357 377.734 228.047 377.584 227.698C377.433 227.348 377.366 226.968 377.387 226.588C377.409 226.208 377.519 225.839 377.708 225.508C377.898 225.178 378.161 224.897 378.478 224.686C398.163 210.313 421.129 200.465 447.649 195.47C449.632 195.18 451.653 195.292 453.593 195.799C477.345 203.044 495.579 213.466 508.296 227.066C508.85 227.674 509.14 228.478 509.103 229.3C509.065 230.122 508.703 230.895 508.096 231.451Z" fill="black"/>
<path d="M523.161 151.776C504.114 127.273 479.217 112.9 448.469 108.656C446.566 108.48 444.652 108.846 442.947 109.711C442.21 110.212 441.601 110.88 441.169 111.66C440.737 112.44 440.495 113.31 440.462 114.201V136.793C440.485 137.632 440.801 138.436 441.356 139.066C441.911 139.696 442.669 140.111 443.498 140.24C474.238 144.492 499.135 158.865 518.19 183.36C518.686 184.003 519.389 184.454 520.179 184.638C520.97 184.822 521.8 184.726 522.528 184.368C523.266 183.864 523.875 183.195 524.307 182.413C524.738 181.631 524.98 180.759 525.014 179.866V157.274C524.93 155.303 524.288 153.396 523.161 151.776Z" fill="#E6BE3E"/>
<path opacity="0.5" d="M502.903 166.982L524.51 154.496C524.818 155.391 524.988 156.328 525.014 157.274V179.866C524.98 180.759 524.738 181.631 524.307 182.413C523.875 183.195 523.266 183.864 522.528 184.368C521.8 184.726 520.97 184.822 520.179 184.638C519.389 184.454 518.686 184.003 518.19 183.36C513.609 177.442 508.492 171.959 502.903 166.982Z" fill="black"/>
<path opacity="0.3" d="M502.903 166.982C486.396 152.327 466.594 143.413 443.498 140.24C442.669 140.111 441.911 139.696 441.356 139.066C440.801 138.436 440.485 137.632 440.462 136.793V114.19C440.495 113.299 440.737 112.428 441.169 111.648C441.601 110.868 442.21 110.201 442.947 109.699C444.652 108.834 446.566 108.469 448.469 108.644C479.209 112.896 504.106 127.273 523.161 151.776C523.76 152.6 524.216 153.52 524.51 154.496L502.903 166.982Z" fill="black"/>
<path d="M518.19 183.36C499.143 158.873 474.246 144.499 443.498 140.24C442.669 140.111 441.911 139.696 441.356 139.066C440.801 138.436 440.485 137.632 440.462 136.793V114.19C440.448 113.803 440.52 113.418 440.673 113.062C440.827 112.707 441.057 112.39 441.347 112.134C441.638 111.878 441.981 111.69 442.353 111.583C442.725 111.477 443.116 111.454 443.498 111.516C474.238 115.768 499.135 130.146 518.19 154.648C519.319 156.267 519.961 158.175 520.043 160.147V182.738C520.043 184.427 519.234 184.696 518.19 183.36Z" fill="#E6BE3E"/>
<path opacity="0.4" d="M518.19 183.36C499.143 158.873 474.246 144.499 443.498 140.24C442.669 140.111 441.911 139.696 441.356 139.066C440.801 138.436 440.485 137.632 440.462 136.793V114.19C440.448 113.803 440.52 113.418 440.673 113.062C440.827 112.707 441.057 112.39 441.347 112.134C441.638 111.878 441.981 111.69 442.353 111.583C442.725 111.477 443.116 111.454 443.498 111.516C474.238 115.768 499.135 130.146 518.19 154.648C519.319 156.267 519.961 158.175 520.043 160.147V182.738C520.043 184.427 519.234 184.696 518.19 183.36Z" fill="black"/>
<path d="M432.654 79.2058C421.305 77.2362 410.965 85.1498 396.556 100.133C388.725 108.339 376.11 121.236 376.11 121.236C376.11 121.236 360.951 91.3165 360.435 87.0725C359.838 81.9843 361.784 80.0382 362.124 74.5163C362.464 68.9944 361.866 65.3952 362.98 63.0153C364.093 60.6354 359.462 60.4947 357.938 63.4843C356.414 66.4738 356.531 70.5185 355.195 69.8503C353.858 69.182 352.205 60.8112 352.709 54.6094C353.214 48.4075 349.638 47.0827 348.548 49.1461C347.947 50.2644 347.468 51.4434 347.117 52.6632C347.117 52.6632 342.088 51.4908 339.239 55.2424C336.39 58.9941 334.022 64.5277 334.854 73.6488C335.687 82.7698 340.927 89.2062 342.533 93.0516C344.878 98.7962 351.983 131.306 362.147 147.626C366.837 155.082 373.132 152.855 379.475 149.162C390.624 142.667 415.971 119.606 415.971 119.606C427.05 111.563 440.556 86.9201 432.654 79.2058Z" fill="#B16668"/>
<path d="M376.11 121.236C378.148 125.375 379.408 129.853 379.827 134.448C380.938 129.289 380.363 123.909 378.185 119.102L376.11 121.236Z" fill="#9A4A4D"/>
<path d="M435.022 78.6196C428.457 78.3851 421.798 78.2092 413.579 84.0242C405.361 89.8392 385.255 111.493 385.255 111.493C386.648 116.22 388.798 120.69 391.621 124.729C394.22 128.46 397.731 131.463 401.82 133.452L430.356 109.547L435.022 78.6196Z" fill="#E6BE3E"/>
<path d="M401.527 331.173C401.527 331.173 399.816 350.975 396.838 357.446C393.677 364.792 389.625 371.722 384.774 378.08C383.602 379.592 380.882 382.441 379.909 383.672C379.671 383.915 379.491 384.209 379.382 384.53C379.273 384.852 379.238 385.194 379.278 385.532C379.319 385.869 379.434 386.193 379.616 386.48C379.798 386.767 380.042 387.009 380.331 387.189C383.027 389.534 393.918 389.534 399.769 384.633C405.619 379.733 410.32 371.984 413.732 368.126C415.443 366.192 417.061 364.351 418.245 362.991C418.804 362.349 419.188 361.574 419.361 360.74C419.533 359.907 419.488 359.043 419.23 358.232C419.078 357.763 418.902 357.223 418.714 356.578C417.003 350.775 419.887 333.975 419.887 333.975C414.236 326.976 408.057 329.649 401.527 331.173Z" fill="#B16668"/>
<path d="M420.168 363.906C420.391 364.964 420.338 366.062 420.016 367.095C419.465 368.572 415.502 371.397 413.462 372.534C411.422 373.672 409.875 375.36 408.175 378.607C405.83 383.074 402.254 387.916 397.623 390.331C391.32 393.449 384.216 394.569 377.259 393.543C368.642 392.441 367.704 387.447 367.704 387.447C367.704 387.447 367.012 382.758 369.099 381.89C371.186 381.022 420.168 363.906 420.168 363.906Z" fill="#263238"/>
<path d="M421.012 358.021C421.147 360.014 420.851 362.013 420.145 363.882C417.8 367.493 411.938 368.935 408.726 373.871C405.513 378.807 401.832 386.333 390.765 389.112C379.698 391.891 371.045 388.772 368.818 385.689C366.59 382.605 368.325 379.522 375.289 375.29C382.687 370.811 391.163 359.392 391.175 359.381C393.954 355.477 395.009 350.435 396.463 345.922C396.603 345.488 396.838 344.972 397.295 344.937C397.752 344.902 398.127 345.57 398.467 346.027C399.019 346.698 399.8 347.141 400.66 347.27C401.641 347.574 402.639 347.82 403.649 348.009C405.667 348.381 407.719 348.527 409.769 348.442C410.104 348.381 410.448 348.388 410.78 348.463C411.112 348.538 411.426 348.678 411.703 348.876C411.885 349.114 412.018 349.386 412.095 349.676C412.171 349.965 412.19 350.267 412.149 350.564C412.126 351.318 412.055 352.07 411.938 352.815C411.848 353.181 411.848 353.563 411.938 353.929C412.051 354.176 412.235 354.382 412.467 354.523C412.699 354.663 412.968 354.73 413.239 354.714C413.79 354.683 414.32 354.491 414.763 354.163C415.65 353.686 416.419 353.018 417.015 352.207C417.611 351.396 418.019 350.462 418.21 349.474C418.21 349.474 418.21 348.302 418.304 347.282C418.974 347.596 419.496 348.16 419.758 348.853C420.004 349.697 419.969 350.623 420.133 351.49C420.578 353.644 420.872 355.826 421.012 358.021Z" fill="#37474F"/>
<path d="M420.168 363.906C420.391 364.964 420.338 366.062 420.016 367.095C419.465 368.572 415.502 371.397 413.462 372.534C411.422 373.672 409.875 375.36 408.175 378.607C405.83 383.074 402.254 387.916 397.623 390.331C391.32 393.449 384.216 394.569 377.259 393.543C368.642 392.441 367.704 387.447 367.704 387.447C367.704 387.447 367.012 382.758 369.099 381.89C371.186 381.022 420.168 363.906 420.168 363.906Z" fill="#263238"/>
<path d="M421.012 358.021C421.147 360.014 420.851 362.013 420.145 363.882C417.8 367.493 411.938 368.935 408.726 373.871C405.513 378.807 401.832 386.333 390.765 389.112C379.698 391.891 371.045 388.772 368.818 385.689C366.59 382.605 368.325 379.522 375.289 375.29C382.687 370.811 391.163 359.392 391.175 359.381C393.954 355.477 395.009 350.435 396.463 345.922C396.603 345.488 396.838 344.972 397.295 344.937C397.752 344.902 398.127 345.57 398.467 346.027C399.019 346.698 399.8 347.141 400.66 347.27C401.641 347.574 402.639 347.82 403.649 348.009C405.667 348.381 407.719 348.527 409.769 348.442C410.104 348.381 410.448 348.388 410.78 348.463C411.112 348.538 411.426 348.678 411.703 348.876C411.885 349.114 412.018 349.386 412.095 349.676C412.171 349.965 412.19 350.267 412.149 350.564C412.126 351.318 412.055 352.07 411.938 352.815C411.848 353.181 411.848 353.563 411.938 353.929C412.051 354.176 412.235 354.382 412.467 354.523C412.699 354.663 412.968 354.73 413.239 354.714C413.79 354.683 414.32 354.491 414.763 354.163C415.65 353.686 416.419 353.018 417.015 352.207C417.611 351.396 418.019 350.462 418.21 349.474C418.21 349.474 418.21 348.302 418.304 347.282C418.974 347.596 419.496 348.16 419.758 348.853C420.004 349.697 419.969 350.623 420.133 351.49C420.578 353.644 420.872 355.826 421.012 358.021Z" fill="#37474F"/>
<path d="M416.452 352.85C415.934 353.358 415.364 353.81 414.752 354.199C414.308 354.527 413.778 354.718 413.228 354.75C412.957 354.765 412.688 354.698 412.456 354.558C412.224 354.418 412.039 354.211 411.926 353.964C411.837 353.598 411.837 353.216 411.926 352.85C410.824 357.809 405.924 364.879 406.428 365.301C406.932 365.723 414.857 355.523 416.452 352.85Z" fill="#263238"/>
<path d="M354.023 305.263C354.023 305.263 351.865 325.733 349.192 332.322C346.355 339.803 342.615 346.909 338.055 353.483C336.941 355.043 334.362 358.009 333.447 359.275C333.217 359.528 333.046 359.831 332.949 360.159C332.852 360.488 332.83 360.834 332.885 361.172C332.94 361.51 333.071 361.832 333.268 362.112C333.465 362.393 333.722 362.625 334.022 362.792C336.812 364.996 347.703 364.515 353.331 359.38C358.958 354.245 363.273 346.273 366.532 342.264C368.161 340.259 369.697 338.336 370.823 336.929C371.353 336.264 371.702 335.473 371.836 334.632C371.969 333.792 371.883 332.931 371.585 332.134C371.409 331.677 371.221 331.138 370.999 330.505C369.041 324.784 374.164 308.933 374.164 308.933C368.243 302.168 360.471 303.435 354.023 305.263Z" fill="#B16668"/>
<path d="M372.769 339.098C372.992 340.161 372.939 341.263 372.616 342.299C372.065 343.764 368.103 346.59 366.063 347.727C364.023 348.864 362.475 350.553 360.775 353.8C358.431 358.267 354.914 363.109 350.224 365.524C343.927 368.62 336.836 369.724 329.895 368.689C321.278 367.587 320.34 362.581 320.34 362.581C320.34 362.581 319.648 357.892 321.735 357.024C323.822 356.156 372.769 339.098 372.769 339.098Z" fill="#263238"/>
<path d="M373.636 333.213C373.771 335.207 373.475 337.206 372.769 339.075C370.424 342.686 364.562 344.128 361.35 349.064C358.138 353.999 354.456 361.538 343.389 364.304C332.322 367.071 323.67 363.964 321.442 360.893C319.215 357.821 320.95 354.714 327.914 350.494C335.311 346.004 343.788 334.585 343.799 334.573C346.578 330.669 347.633 325.628 349.087 321.126C349.227 320.68 349.462 320.164 349.919 320.129C350.376 320.094 350.752 320.762 351.092 321.22C351.644 321.89 352.425 322.333 353.284 322.462C354.265 322.766 355.263 323.013 356.273 323.201C358.29 323.58 360.343 323.725 362.393 323.635C362.728 323.574 363.072 323.581 363.404 323.655C363.737 323.73 364.051 323.87 364.328 324.068C364.509 324.307 364.642 324.578 364.719 324.868C364.795 325.158 364.814 325.46 364.773 325.757C364.753 326.514 364.687 327.27 364.574 328.019C364.48 328.381 364.48 328.76 364.574 329.121C364.689 329.367 364.873 329.574 365.105 329.716C365.336 329.857 365.604 329.928 365.875 329.919C366.424 329.876 366.95 329.685 367.399 329.368C368.27 328.875 369.019 328.192 369.589 327.37C370.16 326.548 370.537 325.608 370.694 324.619C370.736 323.893 370.818 323.168 370.94 322.451C371.61 322.761 372.131 323.32 372.394 324.01C372.64 324.854 372.605 325.78 372.769 326.648C373.212 328.813 373.502 331.007 373.636 333.213Z" fill="#37474F"/>
<path d="M364.762 335.241C366.487 333.039 367.921 330.623 369.029 328.054C368.54 328.57 367.988 329.023 367.388 329.403C366.939 329.721 366.412 329.911 365.864 329.954C365.592 329.963 365.324 329.893 365.093 329.751C364.862 329.609 364.677 329.402 364.562 329.156C364.468 328.795 364.468 328.416 364.562 328.054C363.279 332.321 361.299 336.346 358.7 339.966C356.86 342.299 361.549 339.614 364.762 335.241Z" fill="#263238"/>
<path d="M497.803 186.783L471.483 184.861L422.794 178.635C422.794 178.635 367.106 208.695 360.107 224.194C356.051 233.151 353.823 300.879 353.073 310.95C356.766 313.892 368.689 314.244 373.191 313.47C376.005 305.428 377.693 301.84 381.585 290.023C384.762 280.351 386.275 276.669 388.068 269.834C390.988 258.38 390.167 244.652 390.167 244.652C390.167 244.652 411.621 234.1 424.635 229.176C417.46 237.031 407.178 251.194 405.795 254.324C401.809 263.316 400.355 327.773 400.355 336.719C403.298 340.54 416.944 341.408 420.496 338.969C424.658 324.35 427.742 317.292 431.048 305.264C436.394 286.107 434.659 278.299 433.873 271.265C433.873 271.265 447.742 262.448 465.715 248.99C473.3 243.315 482.644 235.484 487.838 229.505C497.392 218.66 498.811 199.269 497.803 186.783Z" fill="#37474F"/>
<path d="M424.682 229.212L439.501 212.681C439.501 212.681 424.424 206.069 421.622 191.766C421.622 191.766 419.183 203.806 430.708 213.607L420.66 227.676L390.179 244.71C403.896 240.349 412.524 233.678 424.682 229.212Z" fill="#263238"/>
<path d="M461.014 79.0417C467.254 79.3341 473.453 80.2213 479.525 81.6913C487.228 84.3291 491.859 86.3808 495.599 96.9322C501.179 112.841 499.456 134.777 499.456 149.806C499.456 169.737 498.987 192.879 498.987 192.879C482.116 207.136 427.202 200.57 417.952 180.593C417.952 180.593 423.568 155.598 417.659 110.25C415.232 91.6565 422.056 78.9831 439.747 77.9631C439.747 78.0218 453.897 78.7369 461.014 79.0417Z" fill="#455A64"/>
<path d="M429.324 44.4214C438.635 44.4214 446.183 36.8735 446.183 27.5626C446.183 18.2518 438.635 10.7039 429.324 10.7039C420.013 10.7039 412.465 18.2518 412.465 27.5626C412.465 36.8735 420.013 44.4214 429.324 44.4214Z" fill="#263238"/>
<path d="M472.515 42.7214C472.515 42.7214 469.056 59.6154 467.673 62.3939C466.76 64.0708 465.236 65.3307 463.417 65.911L463.663 54.0114L472.515 42.7214Z" fill="#263238"/>
<path d="M468.235 18.5002C468.235 18.5002 470.709 17.8788 473.335 22.0173C475.598 25.5344 476.114 33.4597 472.573 42.7449L466.067 43.5187L468.235 18.5002Z" fill="#263238"/>
<path d="M470.58 21.9002L478.564 22.0409C478.626 21.5203 478.579 20.9925 478.425 20.4912C478.272 19.99 478.015 19.5264 477.672 19.1301C477.329 18.7339 476.906 18.4137 476.432 18.1902C475.958 17.9667 475.442 17.8447 474.918 17.832C473.818 17.8463 472.762 18.2717 471.96 19.0244C471.157 19.7772 470.665 20.803 470.58 21.9002Z" fill="#263238"/>
<path d="M471.542 20.0243L477.462 14.3383C477.119 13.9388 476.697 13.6145 476.223 13.3857C475.749 13.1569 475.232 13.0286 474.706 13.0088C474.18 12.989 473.655 13.0781 473.165 13.2706C472.675 13.463 472.23 13.7547 471.858 14.1273C471.073 14.89 470.604 15.9208 470.546 17.0138C470.487 18.1069 470.843 19.1819 471.542 20.0243Z" fill="#263238"/>
<path d="M464.05 43.4953C465.351 44.316 467.216 41.7016 468.822 39.9782C470.428 38.2548 475.493 36.5666 478.107 42.323C480.721 48.0793 476.219 53.6716 472.515 55.6177C469.22 57.3528 465.48 53.5191 465.48 53.5191L465.363 82.0665C456.23 96.0647 429.629 95.4199 439.993 80.179V71.9724C439.993 71.9724 433.545 72.9923 430.391 72.4765C425.151 71.6324 422.442 67.5408 421.188 63.0975C419.311 56.0647 418.218 48.8458 417.929 41.5726C417.771 37.1734 417.943 32.7685 418.445 28.3951C421.2 9.77778 444.131 4.94758 456.465 13.037C468.798 21.1264 464.05 43.4953 464.05 43.4953Z" fill="#B16668"/>
<path d="M435.878 25.851C440.564 25.2928 445.125 23.9576 449.372 21.9001C449.764 21.6461 450.238 21.5537 450.697 21.6422C450.913 21.7661 451.1 21.9348 451.246 22.137C451.391 22.3392 451.492 22.5702 451.541 22.8146C452.18 24.9921 452.987 27.1166 453.956 29.1688C454.942 31.2341 456.641 32.8742 458.739 33.788C459.534 33.9507 460.256 34.3612 460.803 34.9604C461.235 35.616 461.448 36.3917 461.412 37.1762C461.339 38.1847 461.178 39.185 460.932 40.1657C460.674 41.5257 460.216 43.8822 460.99 45.1132C461.153 45.3812 461.371 45.6112 461.63 45.7878C461.889 45.9643 462.183 46.0832 462.492 46.1366C462.801 46.1899 463.117 46.1764 463.42 46.0969C463.724 46.0175 464.006 45.8739 464.249 45.6759C465.254 44.7882 466.113 43.7477 466.793 42.5925C467.583 41.46 468.491 40.4146 469.502 39.474C470.451 38.6416 470.076 36.7776 470.287 35.57C470.697 33.1432 470.92 30.6812 471.108 28.2309C471.272 26.1558 471.483 24.0338 471.471 21.947C471.578 19.5885 471.393 17.2258 470.92 14.9127C470.4 12.9462 469.396 11.1409 468.001 9.66049L467.591 9.20326C463.663 4.97098 458.563 3.34138 452.901 2.74347C448.504 2.25107 444.061 2.36831 439.641 2.14556C434.853 1.89981 430.095 1.24083 425.42 0.175965C424.783 -0.026474 424.103 -0.0548073 423.451 0.0938992C422.949 0.320078 422.538 0.706811 422.281 1.193C422.024 1.67919 421.936 2.23712 422.032 2.77864C422.26 3.85961 422.724 4.87666 423.392 5.75648C421.985 5.04332 420.48 4.54537 418.925 4.27928C418.147 4.14551 417.349 4.18432 416.587 4.39298C415.825 4.60164 415.119 4.97505 414.517 5.48683C413.906 6.22029 413.465 7.08017 413.225 8.00457C412.986 8.92898 412.955 9.89492 413.134 10.8329C413.57 13.9127 414.827 16.8186 416.772 19.2462C418.717 21.6738 421.279 23.5339 424.189 24.6317C427.934 25.9578 431.94 26.3757 435.878 25.851Z" fill="#263238"/>
<path d="M439.946 71.9957C439.946 71.9957 451.67 69.5337 455.738 67.3062C458.174 65.9681 460.148 63.9247 461.401 61.4443C460.784 63.9204 459.693 66.2534 458.188 68.3145C455.187 72.3005 439.946 75.2315 439.946 75.2315V71.9957Z" fill="#9A4A4D"/>
<path d="M440.485 41.2325C440.524 41.6858 440.694 42.118 440.974 42.4765C441.254 42.835 441.632 43.1043 442.062 43.2516C442.493 43.3989 442.957 43.4179 443.397 43.3061C443.838 43.1944 444.237 42.9568 444.546 42.6223C444.854 42.2878 445.058 41.8709 445.134 41.4223C445.209 40.9737 445.153 40.5128 444.971 40.0959C444.789 39.6789 444.49 39.3238 444.11 39.0739C443.729 38.8241 443.285 38.6901 442.83 38.6885C442.184 38.7219 441.577 39.0069 441.139 39.4824C440.701 39.9579 440.466 40.5861 440.485 41.2325Z" fill="#263238"/>
<path d="M441.892 33.5418L446.91 36.4141C447.27 35.7012 447.349 34.8792 447.132 34.1108C446.915 33.3423 446.417 32.6832 445.737 32.2639C445.404 32.0795 445.037 31.9662 444.657 31.9312C444.278 31.8961 443.896 31.9399 443.535 32.06C443.173 32.1801 442.841 32.3738 442.558 32.6288C442.275 32.8838 442.049 33.1947 441.892 33.5418Z" fill="#263238"/>
<path d="M442.666 56.6494L435.632 59.4162C435.771 59.9023 436.01 60.3543 436.332 60.7441C436.654 61.134 437.053 61.4532 437.504 61.682C437.955 61.9108 438.448 62.0442 438.953 62.074C439.458 62.1037 439.964 62.0291 440.438 61.8548C441.396 61.426 442.157 60.6522 442.57 59.6876C442.983 58.7229 443.017 57.6382 442.666 56.6494Z" fill="#9A4A4D"/>
<path d="M419.957 37.0706L424.529 33.401C424.324 33.0812 424.054 32.8084 423.735 32.6004C423.417 32.3924 423.059 32.254 422.684 32.1942C422.309 32.1344 421.925 32.1547 421.558 32.2535C421.191 32.3524 420.849 32.5277 420.555 32.768C419.939 33.2832 419.537 34.0089 419.427 34.804C419.316 35.5992 419.505 36.407 419.957 37.0706Z" fill="#263238"/>
<path d="M421.422 41.9244C421.461 42.3777 421.631 42.8099 421.911 43.1684C422.191 43.5269 422.569 43.7962 422.999 43.9435C423.43 44.0908 423.894 44.1098 424.335 43.998C424.776 43.8863 425.175 43.6487 425.483 43.3142C425.791 42.9797 425.996 42.5627 426.071 42.1142C426.146 41.6656 426.09 41.2047 425.908 40.7878C425.726 40.3708 425.427 40.0157 425.047 39.7658C424.667 39.5159 424.222 39.382 423.767 39.3804C423.121 39.4138 422.514 39.6988 422.076 40.1743C421.638 40.6498 421.403 41.278 421.422 41.9244Z" fill="#263238"/>
<path d="M432.994 38.9817L433.475 54.1053L425.022 52.3585L432.994 38.9817Z" fill="#9A4A4D"/>
<path d="M364.129 195.693C362.894 195.807 361.649 195.668 360.471 195.283C358.841 194.732 357.387 193.032 356.027 190.078C354.855 187.592 353.003 182.117 354.14 179.245C355.594 175.587 360.002 175.341 362.874 175.189L363.871 175.118L364.129 178.565C363.777 178.565 363.237 178.717 362.862 178.741C361.233 178.823 357.645 179.491 357.27 180.429C355.98 182.703 359.615 191.215 361.198 192.153C363.061 192.494 364.975 192.434 366.813 191.977L367.986 194.838C366.751 195.316 365.45 195.605 364.129 195.693Z" fill="#E6BE3E"/>
<g opacity="0.5">
<path opacity="0.5" d="M364.129 195.693C362.894 195.807 361.649 195.668 360.471 195.283C358.841 194.732 357.387 193.032 356.027 190.078C354.855 187.592 353.003 182.117 354.14 179.245C355.594 175.587 360.002 175.341 362.874 175.189L363.871 175.118L364.129 178.565C363.777 178.565 363.237 178.717 362.862 178.741C361.233 178.823 357.645 179.491 357.27 180.429C355.98 182.703 359.615 191.215 361.198 192.153C363.061 192.494 364.975 192.434 366.813 191.977L367.986 194.838C366.751 195.316 365.45 195.605 364.129 195.693Z" fill="black"/>
</g>
<path d="M393.965 170.182C393.59 168.717 392.101 167.31 389.487 166.231C383.461 163.722 373.754 163.887 367.81 166.583C365.242 167.755 363.8 169.197 363.472 170.675H363.39C362.522 180.37 364.433 191.566 367.974 197.71L368.044 197.839V197.932C368.758 199.042 369.748 199.947 370.916 200.559C373.482 201.803 376.304 202.427 379.155 202.38C382.006 202.333 384.806 201.617 387.33 200.289C388.482 199.652 389.442 198.716 390.108 197.581V197.487C390.14 197.443 390.167 197.396 390.19 197.346C393.532 191.086 395.079 179.843 393.907 170.182H393.965Z" fill="#E6BE3E"/>
<path opacity="0.4" d="M393.965 170.182C393.59 168.717 392.101 167.31 389.487 166.231C383.461 163.722 373.754 163.887 367.81 166.583C365.242 167.755 363.8 169.197 363.472 170.675H363.39C362.522 180.37 364.433 191.566 367.974 197.71L368.044 197.839V197.932C368.758 199.042 369.748 199.947 370.916 200.559C373.482 201.803 376.304 202.427 379.155 202.38C382.006 202.333 384.806 201.617 387.33 200.289C388.482 199.652 389.442 198.716 390.108 197.581V197.487C390.14 197.443 390.167 197.396 390.19 197.346C393.532 191.086 395.079 179.843 393.907 170.182H393.965Z" fill="black"/>
<g opacity="0.3">
<path opacity="0.3" d="M389.487 166.231C395.525 168.74 395.583 172.949 389.639 175.61C383.695 178.272 373.988 178.459 367.962 175.962C361.936 173.465 361.866 169.233 367.81 166.583C373.754 163.934 383.461 163.758 389.487 166.231Z" fill="#E6BE3E"/>
</g>
<g opacity="0.4">
<path opacity="0.4" d="M387.424 167.896C392.277 169.514 392.324 172.269 387.517 174.051C381.841 175.837 375.768 175.935 370.037 174.333C365.184 172.703 365.137 169.948 369.932 168.178C375.611 166.386 381.69 166.288 387.424 167.896Z" fill="black"/>
</g>
<path d="M387.482 171.613C388.349 171.879 389.171 172.275 389.921 172.785C389.186 173.319 388.376 173.742 387.517 174.039C381.841 175.825 375.768 175.923 370.037 174.321C369.167 174.054 368.341 173.659 367.587 173.148C368.322 172.615 369.132 172.192 369.99 171.894C375.67 170.102 381.748 170.004 387.482 171.613Z" fill="#263238"/>
<path d="M481.624 82.1956C471.471 83.3679 467.239 100.954 466.289 110.227C465.246 120.392 457.637 164.801 457.637 164.801C457.637 164.801 409.3 181.906 403.344 181.343C398.655 180.921 397.764 177.31 394.434 176.49C394.423 179.091 394.27 181.69 393.977 184.274C393.18 190.511 377.728 189.679 369.721 187.381C361.713 185.083 363.085 188.19 363.577 193.747C364.07 199.304 370.612 206.749 379.416 208.167C393.485 210.512 405.595 203.806 412.794 200.887C419.992 197.968 451.037 193.923 466.723 190.336C476.935 187.991 480.792 186.092 485.294 172.844C489.795 159.596 493.617 140.615 495.646 124.682C497.674 108.75 502.375 85.4665 481.624 82.1956Z" fill="#B16668"/>
<path d="M478.564 81.4802C485.598 81.6444 492.457 84.0243 495.564 90.1089C498.67 96.1936 498.717 103.673 496.595 121.4C494.473 139.126 492.386 150.627 492.386 150.627C492.386 150.627 478.388 155.422 460.357 143.722L465.809 103.626C465.809 103.626 468.552 85.2084 478.564 81.4802Z" fill="#E6BE3E"/>
<path d="M121.974 201.215L115.971 201.391L110.977 134.612L116.991 134.448L121.974 201.215Z" fill="#455A64"/>
<path d="M70.624 229.411L64.6097 229.587L59.6271 162.808L65.6296 162.632L70.624 229.411Z" fill="#455A64"/>
<path d="M72.6522 235.132H62.6987L48.2433 338.442C48.2412 338.674 48.308 338.902 48.4354 339.096C48.5627 339.29 48.7447 339.442 48.9585 339.532C49.5049 339.804 50.1068 339.945 50.7171 339.945C51.3273 339.945 51.9292 339.804 52.4756 339.532C52.6464 339.447 52.7972 339.327 52.9184 339.179C53.0396 339.032 53.1284 338.86 53.179 338.676L72.6522 235.132Z" fill="#455A64"/>
<path d="M132.338 200.676H122.384L107.929 303.986C107.927 304.218 107.994 304.445 108.121 304.639C108.248 304.833 108.43 304.985 108.644 305.076C109.189 305.353 109.792 305.497 110.403 305.497C111.014 305.497 111.616 305.353 112.161 305.076C112.334 304.993 112.486 304.874 112.608 304.726C112.729 304.578 112.817 304.405 112.865 304.22L132.338 200.676Z" fill="#455A64"/>
<path d="M209.199 336.601L192.024 235.132H182.07L204.205 336.836C204.252 337.021 204.34 337.194 204.462 337.341C204.583 337.489 204.735 337.609 204.908 337.692C205.454 337.963 206.056 338.105 206.667 338.105C207.277 338.105 207.879 337.963 208.425 337.692C208.639 337.601 208.821 337.449 208.948 337.255C209.076 337.061 209.142 336.833 209.14 336.601H209.199Z" fill="#455A64"/>
<path d="M144.542 373.93L130.075 270.62H120.133L139.548 374.176C139.601 374.359 139.692 374.529 139.815 374.675C139.938 374.82 140.091 374.938 140.263 375.02C140.807 375.299 141.41 375.444 142.022 375.444C142.633 375.444 143.236 375.299 143.78 375.02C143.996 374.931 144.181 374.78 144.31 374.586C144.44 374.392 144.508 374.163 144.507 373.93H144.542Z" fill="#455A64"/>
<path d="M192.024 235.132H182.07L186.126 253.726C188.377 251.85 190.593 249.927 192.727 247.958C193.197 247.493 193.592 246.96 193.899 246.375L192.024 235.132Z" fill="#37474F"/>
<path d="M62.6987 235.132L60.9753 247.477C61.3246 248.739 61.9859 249.892 62.898 250.83C64.7504 252.53 66.7083 254.242 68.7599 255.942L72.6639 235.132H62.6987Z" fill="#37474F"/>
<path d="M132.068 284.864L130.075 270.62H120.133L123.381 287.959C126.347 286.975 129.231 285.943 132.068 284.864Z" fill="#37474F"/>
<path d="M123.381 203.337C122.936 203.252 122.485 203.201 122.033 203.185L110.731 283.961C112.548 284.934 114.365 285.896 116.183 286.822L131.517 205.06C128.832 204.439 126.136 203.853 123.381 203.337Z" fill="#37474F"/>
<path d="M123.275 280.139C151.412 270.819 174.18 257.149 192.739 240.103C194.082 238.709 194.878 236.878 194.978 234.944V229.587C194.931 228.645 194.688 227.724 194.264 226.882C193.84 226.04 193.244 225.296 192.516 224.698C172.832 210.313 149.865 200.465 123.346 195.47C121.359 195.18 119.333 195.292 117.39 195.799C93.6612 203.06 75.4386 213.482 62.7222 227.066C61.4792 228.58 60.7595 230.455 60.6705 232.412V237.77C60.7656 239.704 61.5615 241.538 62.9098 242.928C77.1541 256.047 97.5183 269.518 117.625 279.671C119.399 280.467 121.394 280.633 123.275 280.139Z" fill="#E6BE3E"/>
<path opacity="0.4" d="M194.978 229.587V234.944C194.879 236.88 194.079 238.714 192.727 240.103C174.18 257.161 151.412 270.819 123.275 280.14C122.256 280.435 121.187 280.518 120.133 280.386V195.412C121.217 195.321 122.308 195.364 123.381 195.541C149.865 200.523 172.832 210.383 192.551 224.756C193.265 225.352 193.85 226.088 194.267 226.919C194.685 227.75 194.927 228.658 194.978 229.587Z" fill="black"/>
<path opacity="0.5" d="M120.133 195.412V280.444C119.263 280.376 118.413 280.15 117.625 279.776C97.5301 269.623 77.1541 256.153 62.898 243.034C61.563 241.64 60.7725 239.814 60.6705 237.887V232.506C60.7518 230.555 61.4727 228.684 62.7222 227.183C75.4386 213.545 93.6729 203.103 117.425 195.857C118.309 195.609 119.217 195.46 120.133 195.412Z" fill="black"/>
<path d="M62.9098 231.451C77.1541 244.57 97.5183 258.005 117.625 268.158C119.404 268.943 121.397 269.096 123.275 268.592C151.412 259.318 174.18 245.66 192.739 228.602C193.03 228.357 193.26 228.047 193.411 227.698C193.561 227.348 193.629 226.968 193.607 226.588C193.585 226.208 193.476 225.838 193.286 225.508C193.097 225.178 192.833 224.897 192.516 224.686C172.832 210.313 149.865 200.465 123.346 195.47C121.359 195.18 119.333 195.292 117.39 195.799C93.6612 203.044 75.4386 213.466 62.7222 227.066C62.1665 227.673 61.8742 228.475 61.9093 229.297C61.9445 230.119 62.3043 230.894 62.9098 231.451Z" fill="#E6BE3E"/>
<path opacity="0.3" d="M62.9098 231.451C77.1541 244.57 97.5183 258.005 117.625 268.158C119.404 268.943 121.397 269.096 123.275 268.592C151.412 259.318 174.18 245.66 192.739 228.602C193.03 228.357 193.26 228.047 193.411 227.698C193.561 227.348 193.629 226.968 193.607 226.588C193.585 226.208 193.476 225.838 193.286 225.508C193.097 225.178 192.833 224.897 192.516 224.686C172.832 210.313 149.865 200.465 123.346 195.47C121.359 195.18 119.333 195.292 117.39 195.799C93.6612 203.044 75.4386 213.466 62.7222 227.066C62.1665 227.673 61.8742 228.475 61.9093 229.297C61.9445 230.119 62.3043 230.894 62.9098 231.451Z" fill="black"/>
<path d="M47.8564 151.776C66.9114 127.273 91.8088 112.9 122.548 108.656C124.452 108.48 126.366 108.846 128.07 109.711C128.808 110.212 129.417 110.88 129.849 111.66C130.28 112.44 130.523 113.31 130.556 114.201V136.793C130.533 137.632 130.216 138.436 129.662 139.066C129.107 139.696 128.349 140.111 127.519 140.24C96.7797 144.492 71.8823 158.865 52.8273 183.36C52.3316 184.003 51.6289 184.454 50.8383 184.638C50.0477 184.822 49.2178 184.726 48.4895 184.368C47.7519 183.864 47.1429 183.195 46.7112 182.413C46.2795 181.631 46.0373 180.759 46.004 179.866V157.274C46.0873 155.303 46.7298 153.396 47.8564 151.776Z" fill="#E6BE3E"/>
<path opacity="0.5" d="M68.1151 166.982L46.5082 154.496C46.1998 155.391 46.0298 156.328 46.004 157.274V179.866C46.0413 180.762 46.2889 181.636 46.7268 182.418C47.1647 183.2 47.7806 183.868 48.5246 184.368C49.253 184.726 50.0828 184.822 50.8734 184.638C51.6641 184.454 52.3668 184.003 52.8624 183.36C57.4323 177.443 62.5381 171.96 68.1151 166.982Z" fill="black"/>
<path opacity="0.3" d="M68.1151 166.982C84.6221 152.327 104.424 143.413 127.519 140.24C128.355 140.119 129.121 139.707 129.683 139.076C130.245 138.446 130.567 137.637 130.591 136.793V114.19C130.558 113.299 130.315 112.428 129.884 111.648C129.452 110.868 128.843 110.201 128.106 109.699C126.401 108.834 124.487 108.469 122.584 108.644C91.844 112.896 66.9466 127.273 47.8916 151.776C47.2926 152.6 46.8368 153.52 46.5433 154.496L68.1151 166.982Z" fill="black"/>
<path d="M52.8273 183.36C71.8901 158.873 96.7875 144.499 127.519 140.24C128.355 140.119 129.121 139.707 129.683 139.076C130.245 138.446 130.567 137.637 130.591 136.793V114.19C130.605 113.803 130.533 113.418 130.379 113.062C130.226 112.707 129.996 112.39 129.706 112.134C129.415 111.878 129.072 111.69 128.7 111.583C128.328 111.477 127.937 111.454 127.555 111.516C96.8149 115.768 71.9175 130.146 52.8625 154.648C51.7341 156.267 51.0915 158.175 51.0101 160.147V182.738C50.975 184.427 51.7956 184.696 52.8273 183.36Z" fill="#E6BE3E"/>
<path opacity="0.4" d="M52.8273 183.36C71.8901 158.873 96.7875 144.499 127.519 140.24C128.355 140.119 129.121 139.707 129.683 139.076C130.245 138.446 130.567 137.637 130.591 136.793V114.19C130.605 113.803 130.533 113.418 130.379 113.062C130.226 112.707 129.996 112.39 129.706 112.134C129.415 111.878 129.072 111.69 128.7 111.583C128.328 111.477 127.937 111.454 127.555 111.516C96.8149 115.768 71.9175 130.146 52.8625 154.648C51.7341 156.267 51.0915 158.175 51.0101 160.147V182.738C50.975 184.427 51.7956 184.696 52.8273 183.36Z" fill="black"/>
<path d="M122.384 13.6935L122.208 13.8224C114.178 19.6843 104.799 21.9001 97.6589 29.2509C94.4085 32.5368 91.9478 36.5188 90.4631 40.8959C88.9783 45.2729 88.5084 49.9302 89.0889 54.5156C91.035 74.106 107.437 83.3209 113.123 88.7842C113.38 89.0421 115.186 88.7842 115.538 88.7842H120.989C122.302 88.7842 124.002 89.3821 125.233 88.9131C126.851 88.2918 127.977 86.0408 128.879 84.6809C136.254 73.6371 149.138 67.8924 157.145 57.3176C159.9 53.6715 162.573 49.7675 163.476 45.289C164.379 40.8105 163.089 35.5934 159.279 33.0728C160.385 31.3857 160.946 29.4 160.888 27.3836C160.83 25.3673 160.154 23.4173 158.953 21.7969C157.752 20.1764 156.082 18.9634 154.17 18.3215C152.258 17.6796 150.194 17.6396 148.259 18.2071C149.677 14.4907 147.461 10.0591 143.968 8.14811C140.474 6.23714 136.136 6.48334 132.408 7.85502C128.818 9.33885 125.446 11.3029 122.384 13.6935Z" fill="#263238"/>
<path d="M156.125 284.747C149.783 283.891 144.343 288.967 143.827 290.609C143.124 292.813 143.358 297.256 145.937 302.731C148.204 308.191 149.163 314.104 148.739 320C148.27 325.006 145.879 337.527 150.932 343.823C155.985 350.119 167.239 355.547 171.237 346.988C172.539 344.163 169.912 334.397 168.752 327.269C166.407 313.083 164.613 298.979 164.613 298.979L156.125 284.747Z" fill="#263238"/>
<path d="M154.132 296.072C155.193 302.966 155.73 309.93 155.738 316.905C155.61 324.514 157.216 329.52 159.842 332.92C162.749 336.671 169.995 338.782 169.139 330.927C168.541 325.464 164.613 298.956 164.613 298.956L154.132 296.072Z" fill="#FFA8A7"/>
<path opacity="0.15" d="M145.937 288.088C145.633 292.778 148.165 305.228 154.507 315.662C160.721 325.886 169.83 337.938 171.566 345.218C171.741 341.865 170.393 335.734 169.291 330.259L169.221 329.907L169.045 328.957C169.045 328.817 169.045 328.664 168.963 328.523C168.893 328.125 168.822 327.726 168.764 327.351V327.269C168.025 322.837 167.357 318.406 166.771 314.373C166.302 311.184 165.891 308.265 165.598 305.85C165.434 304.677 165.293 303.505 165.164 302.637C165.106 302.168 165.047 301.735 164.988 301.359C164.789 299.812 164.672 298.933 164.672 298.933L156.184 284.723C155.762 284.665 155.352 284.653 154.953 284.63C151.631 284.671 148.434 285.897 145.937 288.088Z" fill="black"/>
<path d="M182.445 207.581C163.687 192.34 142.432 178.33 142.432 178.33L120.626 200.195L142.315 219.422L164.848 243.479C164.848 243.479 170.1 243.057 166.911 251.264C165.891 253.867 164.367 259.072 162.749 264.981L175.645 300.152C175.645 300.152 183.113 287.748 193.97 265.93C202.598 248.614 206.28 237.547 205.342 232.987C204.075 226.949 197.346 219.727 182.445 207.581Z" fill="#37474F"/>
<path d="M140.767 208.449C140.767 208.449 164.824 230.724 170.077 236.738C175.329 242.752 178.518 244.429 179.174 258.122C179.725 269.682 181.378 289.882 181.378 289.882L144.542 244.429L133.604 213.373L140.767 208.449Z" fill="#263238"/>
<path d="M173.054 354.984C171.507 354.879 171.413 357.516 170.487 360.846C169.328 364.064 169.165 367.557 170.018 370.87C171.284 375.102 177.967 375.946 181.273 381.562C184.579 387.177 189.292 397.248 201.121 400.589C212.95 403.931 222.353 400.589 224.838 397.166C227.324 393.743 225.53 390.226 218.156 385.325C210.313 380.12 208.097 378.596 208.097 378.596L173.054 354.984Z" fill="#263238"/>
<path d="M189.034 335.03C189.034 335.03 192.035 348.301 195.06 355.887C198.085 363.472 203.196 370.834 208.941 377.751C210.184 379.252 213.044 382.066 214.076 383.273C214.307 383.515 214.484 383.804 214.594 384.119C214.705 384.435 214.746 384.771 214.716 385.104C214.686 385.437 214.585 385.76 214.42 386.051C214.255 386.342 214.03 386.594 213.759 386.79C211.086 389.241 199.996 389.616 193.829 384.833C187.662 380.049 182.246 370.014 178.588 366.192C177.228 364.75 175.939 363.284 174.731 361.737C173.562 360.335 172.923 358.567 172.926 356.742C173.204 354.353 173.097 351.935 172.609 349.579C171.835 345.663 171.015 344.139 169.866 340.317L189.034 335.03Z" fill="#FFA8A7"/>
<path d="M84.0945 172.879C75.6417 187.135 73.0273 205.424 76.3568 214.299C80.9056 226.386 87.7523 231.31 104.494 241.498C118.304 249.939 138.669 262.132 142.807 264.066C146.946 266.001 147.333 268.533 146.57 276.505C145.808 284.477 148.306 297.608 156.829 314.021C165.833 331.455 170.745 343.331 170.745 343.331C174.197 344.06 177.774 343.955 181.178 343.023C184.581 342.091 187.713 340.36 190.312 337.973C190.312 337.973 176.243 259.424 172.925 248.978C169.608 238.532 131.095 203.994 131.095 203.994C131.095 203.994 136.828 186.854 140.169 174.907L84.0945 172.879Z" fill="#37474F"/>
<path d="M145.832 195.306C145.832 195.306 142.784 204.427 135.597 208.203L138.422 210.805C140.622 208.841 142.409 206.459 143.681 203.799C144.953 201.138 145.684 198.252 145.832 195.306Z" fill="#263238"/>
<path d="M221.52 127.191C224.205 124.002 225.999 121.329 229.317 118.985C236.175 114.295 238.977 110.626 239.587 108.281L228.144 93.8958L225.929 93.591C225.929 93.591 227.769 89.6987 227.324 87.3071C226.808 84.5051 225.635 83.0162 223.572 86.1347C221.509 89.2532 218.25 92.1607 217.136 95.162C215.713 99.1379 214.569 103.208 213.712 107.343C212.939 111.13 207.405 116.183 207.405 116.183L221.52 127.191Z" fill="#FFA8A7"/>
<path d="M130.591 89.9917C139.22 88.9014 146.078 89.9096 151.588 96.0412C157.098 102.173 183.688 137.836 183.688 137.836L216.174 108.175L225.729 122.08C225.729 122.08 198.976 154.601 193.571 159.314C188.166 164.027 183.723 167.064 174.274 159.314C164.824 151.565 135.902 121.798 135.902 121.798L130.591 89.9917Z" fill="#FFA8A7"/>
<path d="M236.105 109.043C234.867 109.151 233.619 109.011 232.435 108.633C230.806 108.082 229.352 106.382 227.992 103.427C226.82 100.942 224.967 95.4668 226.104 92.5945C227.558 88.9367 231.966 88.6905 234.839 88.5264H235.835L236.093 91.9731C235.741 91.9731 235.202 92.1256 234.827 92.149C233.197 92.2311 229.61 92.8876 229.235 93.8255C227.945 96.1116 231.579 104.623 233.162 105.549C235.026 105.884 236.939 105.824 238.778 105.373L239.95 108.234C238.716 108.696 237.42 108.968 236.105 109.043Z" fill="#E6BE3E"/>
<g opacity="0.2">
<path opacity="0.2" d="M236.105 109.043C234.867 109.151 233.619 109.011 232.435 108.633C230.806 108.082 229.352 106.382 227.992 103.427C226.82 100.942 224.967 95.4668 226.104 92.5945C227.558 88.9367 231.966 88.6905 234.839 88.5264H235.835L236.093 91.9731C235.741 91.9731 235.202 92.1256 234.827 92.149C233.197 92.2311 229.61 92.8876 229.235 93.8255C227.945 96.1116 231.579 104.623 233.162 105.549C235.026 105.884 236.939 105.824 238.778 105.373L239.95 108.234C238.716 108.696 237.42 108.968 236.105 109.043Z" fill="black"/>
</g>
<path d="M234.51 83.7782C234.745 82.3362 236.046 80.859 238.461 79.6046C244.03 76.6854 253.35 76.0054 259.283 78.0805C261.85 78.9832 263.351 80.2494 263.796 81.5976H263.878C265.531 90.8242 264.664 101.716 261.78 107.917C261.78 107.917 261.78 108.011 261.78 108.046C261.778 108.078 261.778 108.109 261.78 108.14C261.195 109.27 260.321 110.224 259.248 110.907C256.893 112.332 254.236 113.18 251.492 113.384C248.748 113.588 245.994 113.141 243.456 112.079C242.295 111.571 241.291 110.762 240.548 109.735L240.49 109.653C240.467 109.603 240.439 109.556 240.407 109.512C236.668 103.802 234.229 93.0986 234.546 83.7782H234.51Z" fill="#E6BE3E"/>
<g opacity="0.5">
<path opacity="0.5" d="M238.45 79.6045C232.881 82.512 233.174 86.5684 239.106 88.6435C245.038 90.7186 254.347 90.0386 259.928 87.1311C265.508 84.2236 265.203 80.0969 259.271 78.0804C253.339 76.0639 244.03 76.6853 238.45 79.6045Z" fill="white"/>
</g>
<g opacity="0.15">
<path opacity="0.15" d="M240.583 81.0231C236.07 82.9927 236.257 85.6423 241.017 86.885C246.612 88.1317 252.449 87.7244 257.817 85.7126C262.331 83.743 262.143 81.1052 257.383 79.8508C251.788 78.604 245.951 79.0114 240.583 81.0231Z" fill="black"/>
</g>
<path d="M240.853 84.5871C240.039 84.92 239.28 85.3746 238.602 85.9353C239.355 86.3815 240.169 86.7171 241.017 86.9319C246.612 88.1786 252.449 87.7712 257.817 85.7595C258.626 85.4276 259.381 84.9772 260.057 84.423C259.306 83.9719 258.492 83.636 257.641 83.4265C252.051 82.1756 246.218 82.5789 240.853 84.5871Z" fill="#37474F"/>
<path d="M229 94.5873C228.824 95.408 229.129 96.7093 227.828 98.0224C227.066 98.7844 226.327 99.652 225.483 100.367C224.639 101.082 224.1 101.387 223.889 102.395C223.798 102.824 223.806 103.268 223.914 103.693C224.022 104.118 224.226 104.512 224.51 104.846C224.801 105.104 225.046 105.409 225.237 105.748C225.326 106.134 225.326 106.535 225.237 106.921C225.114 107.744 225.212 108.585 225.521 109.357C225.83 110.13 226.339 110.806 226.996 111.317C227.707 111.743 228.512 111.989 229.34 112.032C231.551 112.256 233.776 111.785 235.706 110.684C236.447 110.176 237.035 109.474 237.406 108.656C237.882 107.648 238.13 106.547 238.133 105.432C236.713 102.152 235.736 98.6988 235.226 95.1618C235.226 95.1618 235.026 93.2508 232.224 92.4419C231.273 92.5668 230.356 92.8818 229.528 93.3681C229.2 93.6906 229.011 94.1278 229 94.5873Z" fill="#F28F8F"/>
<path d="M82.2539 170.3C84.0594 165.059 85.771 160.85 86.4627 157.216C87.2013 153.394 86.4627 151.108 83.4497 143.206C80.0671 133.637 79.0455 123.394 80.4719 113.345C81.4098 107.05 83.6021 103.966 87.26 101.434C90.9178 98.9018 106.886 93.9896 106.886 93.9896C106.886 93.9896 120.063 90.4724 126.886 90.0035C133.71 89.5345 136.816 90.7655 141.307 95.6895C145.797 100.613 154.66 112.935 157.556 122.08C159.256 127.437 161.213 139.29 149.818 145.727C148.587 151.882 146.219 161.307 145.656 166.267C145.093 171.226 146.137 177.346 147.016 181.167C143.124 189.679 131.681 199.691 111.352 200.477C87.5296 201.391 75.3955 193.56 75.3955 193.56C77.2724 185.691 79.5617 177.927 82.2539 170.3Z" fill="#E6BE3E"/>
<path opacity="0.1" d="M140.169 145.305C140.169 145.305 134.39 152.069 123.299 150.545C111.856 148.962 109.863 139.396 109.863 139.396C109.863 139.396 109.054 151.846 122.76 153.734C126.179 154.333 129.7 153.842 132.825 152.329C135.949 150.816 138.519 148.359 140.169 145.305Z" fill="black"/>
<path d="M143.018 29.4268C146.969 31.4667 152.233 40.834 152.89 61.0809C153.429 78.2093 148.118 82.7464 145.41 84.1181C142.702 85.4898 134.507 84.716 129.231 84.1181L128.059 96.346C128.059 96.346 134.167 101.411 133.921 106.147C133.674 110.883 122.654 112.443 114.518 105.936C106.088 99.1832 106.827 94.4819 106.827 94.4819L107.917 71.773C107.917 71.773 105.572 74.575 101.797 72.0075C96.7562 68.5607 95.7831 62.4174 98.6672 58.6072C100.707 55.899 106.299 55.4066 109.219 59.2755C109.219 59.2755 116.194 58.2672 126.945 51.573C135.025 46.6121 140.806 38.6469 143.018 29.4268Z" fill="#FFA8A7"/>
<path d="M109.582 65.3602L109.078 56.3681L114.823 56.0515L114.998 59.299C115.082 60.8205 114.558 62.3128 113.543 63.449C112.528 64.5852 111.103 65.2725 109.582 65.3602Z" fill="#263238"/>
<path d="M131.634 57.9155C131.663 58.3391 131.565 58.7617 131.355 59.1303C131.144 59.4988 130.829 59.797 130.449 59.9874C130.07 60.1778 129.643 60.252 129.221 60.2007C128.8 60.1494 128.403 59.9748 128.08 59.6989C127.757 59.423 127.523 59.058 127.407 58.6496C127.291 58.2413 127.298 57.8077 127.427 57.4032C127.556 56.9988 127.802 56.6414 128.133 56.3759C128.464 56.1104 128.867 55.9486 129.29 55.9107C129.575 55.8883 129.862 55.9224 130.135 56.011C130.407 56.0996 130.66 56.2411 130.877 56.4273C131.095 56.6134 131.274 56.8407 131.404 57.0961C131.534 57.3514 131.612 57.6299 131.634 57.9155Z" fill="#263238"/>
<path d="M133.78 71.9958L140.462 73.731C140.37 74.1779 140.189 74.6016 139.928 74.9763C139.668 75.3511 139.334 75.6691 138.947 75.9113C138.56 76.1535 138.128 76.3147 137.678 76.3853C137.227 76.4559 136.766 76.4343 136.324 76.3219C135.425 76.0663 134.659 75.4741 134.185 74.6685C133.712 73.8629 133.566 72.9057 133.78 71.9958Z" fill="#F28F8F"/>
<path d="M150.334 50.2483L145.832 47.4814C145.998 47.1862 146.222 46.927 146.49 46.719C146.758 46.511 147.064 46.3584 147.391 46.27C147.719 46.1816 148.06 46.1593 148.397 46.2042C148.733 46.2492 149.056 46.3605 149.349 46.5318C149.958 46.9069 150.4 47.5017 150.584 48.1934C150.767 48.885 150.677 49.6207 150.334 50.2483Z" fill="#263238"/>
<path d="M149.619 55.3596C149.647 55.7832 149.55 56.2058 149.339 56.5743C149.128 56.9429 148.813 57.2411 148.434 57.4315C148.054 57.6219 147.627 57.6961 147.206 57.6448C146.784 57.5935 146.387 57.4189 146.064 57.143C145.742 56.8671 145.508 56.5021 145.391 56.0937C145.275 55.6853 145.282 55.2518 145.411 54.8473C145.54 54.4429 145.786 54.0855 146.117 53.82C146.449 53.5545 146.851 53.3927 147.274 53.3548C147.559 53.3324 147.847 53.3665 148.119 53.4551C148.392 53.5437 148.644 53.6852 148.862 53.8714C149.079 54.0575 149.258 54.2848 149.388 54.5402C149.518 54.7955 149.596 55.074 149.619 55.3596Z" fill="#263238"/>
<path d="M137.602 54.7852L138.669 67.7165L145.363 65.231L137.602 54.7852Z" fill="#F28F8F"/>
<path d="M129.231 84.0948C122.759 83.0748 115.28 79.8156 113.275 75.4426C113.671 78.2026 115.09 80.713 117.249 82.4769C120.766 85.1851 128.973 87.3891 128.973 87.3891L129.231 84.0948Z" fill="#F28F8F"/>
<path d="M90.7302 99.699C80.4367 103.72 77.0837 107.484 74.95 116.863C72.8163 126.242 84.9152 166.759 89.8392 180.452C92.9694 189.186 93.5439 190.582 101.364 193.348C107.847 195.693 154.437 206.842 159.009 207.534C163.582 208.226 170.862 205.119 170.862 205.119C171.706 203.829 172.48 202.622 173.301 201.602C173.301 201.602 184.579 203.783 191.039 203.654C197.499 203.525 209.726 196.174 199.116 190.757C184.18 183.16 180.358 180.757 172.011 183.594C164.789 186.056 159.795 189.456 155.539 188.893C146.629 187.018 110.989 173.254 110.989 173.254L101.211 131.752C101.211 131.752 100.625 105.139 90.7302 99.699Z" fill="#FFA8A7"/>
<path d="M307.467 361.162C291.429 351.901 265.414 351.901 249.376 361.162C241.357 365.793 237.359 371.866 237.359 377.927C237.359 378.56 237.359 382.418 237.359 383.144C237.488 389.124 241.486 395.068 249.376 399.628C265.414 408.89 291.429 408.89 307.467 399.628C315.404 395.044 319.402 389.077 319.484 383.062C319.484 382.359 319.484 378.49 319.484 377.834C319.449 371.796 315.451 365.77 307.467 361.162Z" fill="#37474F"/>
<path d="M249.376 394.716C233.338 385.454 233.338 370.436 249.376 361.174C265.414 351.912 291.429 351.912 307.467 361.174C323.505 370.436 323.505 385.454 307.467 394.716C291.429 403.978 265.414 403.966 249.376 394.716Z" fill="#455A64"/>
<path d="M285.04 373.003V242.307H271.78V373.003C271.74 373.645 271.899 374.282 272.238 374.829C272.576 375.375 273.076 375.802 273.668 376.052C275.122 376.785 276.728 377.168 278.357 377.168C279.986 377.168 281.592 376.785 283.047 376.052C283.655 375.815 284.175 375.394 284.532 374.847C284.89 374.301 285.067 373.656 285.04 373.003Z" fill="#37474F"/>
<path d="M362.639 180.558C316.061 153.664 240.56 153.664 193.981 180.558C170.698 194.005 159.068 211.626 159.08 229.247V232.67C159.08 250.256 170.698 267.912 193.981 281.359C240.56 308.241 316.061 308.241 362.639 281.359C385.923 267.912 397.553 250.291 397.541 232.67V229.247C397.553 211.626 385.923 194.005 362.639 180.558Z" fill="#455A64"/>
<path d="M362.721 171.624C316.143 144.73 240.642 144.73 194.063 171.624C170.78 185.072 159.15 202.692 159.162 220.313V226.175C159.162 243.761 170.78 261.428 194.063 274.864C240.642 301.758 316.143 301.758 362.721 274.864C386.005 261.428 397.635 241.357 397.623 223.736V220.313C397.658 202.692 386.028 185.072 362.721 171.624Z" fill="#E6BE3E"/>
<path opacity="0.4" d="M362.721 171.624C316.143 144.73 240.642 144.73 194.063 171.624C170.78 185.072 159.15 202.692 159.162 220.313V226.175C159.162 243.761 170.78 261.428 194.063 274.864C240.642 301.758 316.143 301.758 362.721 274.864C386.005 261.428 397.635 241.357 397.623 223.736V220.313C397.658 202.692 386.028 185.072 362.721 171.624Z" fill="white"/>
<path opacity="0.1" d="M362.721 171.624C316.143 144.73 240.642 144.73 194.063 171.624C170.78 185.072 159.15 202.692 159.162 220.313V226.175C159.162 243.761 170.78 261.428 194.063 274.864C240.642 301.758 316.143 301.758 362.721 274.864C386.005 261.428 397.635 241.357 397.623 223.736V220.313C397.658 202.692 386.028 185.072 362.721 171.624Z" fill="black"/>
<path d="M278.416 289.167C344.278 289.167 397.67 258.34 397.67 220.313C397.67 182.286 344.278 151.459 278.416 151.459C212.554 151.459 159.162 182.286 159.162 220.313C159.162 258.34 212.554 289.167 278.416 289.167Z" fill="#E6BE3E"/>
<path opacity="0.6" d="M278.31 289.167C344.173 289.167 397.565 258.34 397.565 220.313C397.565 182.286 344.173 151.459 278.31 151.459C212.448 151.459 159.056 182.286 159.056 220.313C159.056 258.34 212.448 289.167 278.31 289.167Z" fill="white"/>
<path opacity="0.15" d="M257.055 180.312C268.779 187.088 268.779 198.073 257.055 204.838C245.331 211.602 226.304 211.614 214.58 204.838C202.856 198.062 202.856 187.088 214.58 180.312C226.304 173.535 245.32 173.547 257.055 180.312Z" fill="black"/>
<path d="M256.387 178.6C245.027 172.046 226.609 172.046 215.248 178.6V177.428C209.304 180.851 206.479 185.4 206.748 189.89C206.479 194.38 209.304 198.929 215.248 202.352C226.609 208.918 245.027 208.918 256.387 202.352C267.747 195.787 267.759 185.165 256.387 178.6Z" fill="#E0E0E0"/>
<path d="M256.387 177.428C267.747 183.981 267.747 194.615 256.387 201.18C245.027 207.745 226.608 207.734 215.248 201.18C203.888 194.626 203.888 183.981 215.248 177.428C226.608 170.874 245.027 170.862 256.387 177.428Z" fill="#E6BE3E"/>
<path d="M256.387 177.428C267.747 183.981 267.747 194.615 256.387 201.18C245.027 207.745 226.608 207.734 215.248 201.18C203.888 194.626 203.888 183.981 215.248 177.428C226.608 170.874 245.027 170.862 256.387 177.428Z" fill="#FAFAFA"/>
<path d="M221.872 182.316C214.064 186.83 214.064 194.134 221.872 198.648C229.68 203.161 242.33 203.15 250.138 198.648C257.946 194.146 257.946 186.83 250.138 182.316C242.33 177.803 229.68 177.826 221.872 182.316Z" fill="#E0E0E0"/>
<path d="M222.833 182.879C215.553 187.076 215.553 193.888 222.833 198.12C230.114 202.352 241.896 202.317 249.177 198.12C256.457 193.923 256.457 187.112 249.177 182.879C241.896 178.647 230.102 178.67 222.833 182.879Z" fill="#EBEBEB"/>
<path opacity="0.15" d="M217.347 195.916C217.347 196.69 217.417 197.522 218.156 197.522L256.281 197.393C257.864 197.393 258.098 196.397 257.36 193.982C256.621 191.566 252.495 184.181 246.152 182.797L217.347 195.916Z" fill="black"/>
<path d="M217.347 181.578V196.197C217.348 196.315 217.373 196.432 217.422 196.54C217.471 196.647 217.542 196.744 217.63 196.822C217.719 196.901 217.823 196.96 217.935 196.995C218.048 197.031 218.167 197.043 218.285 197.03L252.002 192.457C252.422 192.401 252.806 192.193 253.084 191.874C253.363 191.555 253.515 191.146 253.515 190.722V176.537C253.515 176.407 253.485 176.28 253.428 176.164C253.371 176.048 253.288 175.947 253.186 175.868L235.905 162.972C235.576 162.725 235.166 162.61 234.757 162.649C234.347 162.688 233.966 162.878 233.69 163.183L217.722 180.628C217.484 180.888 217.351 181.226 217.347 181.578Z" fill="#263238"/>
<path d="M243.643 165.856C241.214 164.473 238.653 163.334 235.999 162.456C235.625 162.333 235.224 162.321 234.843 162.421C234.463 162.521 234.119 162.728 233.854 163.019L217.675 180.699C217.651 180.722 217.635 180.752 217.63 180.785C217.625 180.818 217.631 180.852 217.647 180.881C217.663 180.91 217.688 180.934 217.719 180.947C217.749 180.961 217.783 180.964 217.816 180.957L252.987 176.197C253.585 176.126 253.585 176.537 253.585 176.537C253.59 176.262 253.533 175.99 253.421 175.739C251.791 172.117 248.544 168.693 243.643 165.856Z" fill="#455A64"/>
<g opacity="0.7">
<path opacity="0.7" d="M218.273 197.018L251.181 192.563V188.471C251.188 188.269 251.149 188.068 251.068 187.882C250.987 187.696 250.866 187.531 250.714 187.397C250.561 187.264 250.381 187.166 250.186 187.11C249.992 187.055 249.787 187.043 249.587 187.076L217.347 191.426V196.232C217.347 196.348 217.372 196.462 217.421 196.567C217.469 196.672 217.54 196.765 217.628 196.839C217.716 196.914 217.82 196.969 217.931 196.999C218.042 197.03 218.159 197.037 218.273 197.018Z" fill="#E6BE3E"/>
<path opacity="0.7" d="M249.587 184.861C250.023 184.792 250.422 184.573 250.713 184.241C251.005 183.909 251.17 183.485 251.181 183.043V180.523C251.188 180.32 251.149 180.119 251.068 179.933C250.987 179.748 250.866 179.582 250.714 179.449C250.561 179.315 250.381 179.217 250.186 179.162C249.992 179.106 249.787 179.095 249.587 179.128L217.347 183.477V189.198L249.587 184.861Z" fill="#E6BE3E"/>
</g>
<path opacity="0.2" d="M232.939 168.635C234.513 167.831 236.255 167.412 238.022 167.412C239.789 167.412 241.53 167.831 243.104 168.635C245.918 170.253 245.918 172.879 243.104 174.497C241.528 175.294 239.787 175.709 238.022 175.709C236.256 175.709 234.515 175.294 232.939 174.497C230.126 172.879 230.126 170.253 232.939 168.635Z" fill="black"/>
<path d="M239.774 164.379C241.182 164.865 242.48 165.622 243.596 166.607C244.224 167.192 244.652 167.96 244.818 168.802C244.984 169.644 244.881 170.516 244.522 171.296C244.173 171.977 243.644 172.55 242.994 172.952C242.343 173.355 241.595 173.573 240.829 173.582C241.121 172.085 241.093 170.543 240.747 169.057C240.173 166.818 239.774 164.379 239.774 164.379Z" fill="#E6BE3E"/>
<path opacity="0.2" d="M239.774 164.379C241.182 164.865 242.48 165.622 243.596 166.607C244.224 167.192 244.652 167.96 244.818 168.802C244.984 169.644 244.881 170.516 244.522 171.296C244.173 171.977 243.644 172.55 242.994 172.952C242.343 173.355 241.595 173.573 240.829 173.582C241.121 172.085 241.093 170.543 240.747 169.057C240.173 166.818 239.774 164.379 239.774 164.379Z" fill="black"/>
<path d="M236.855 164.25C236.316 165.024 234.416 165.422 233.15 166.266C232.109 166.761 231.305 167.645 230.911 168.728C230.694 169.355 230.708 170.039 230.951 170.656C231.194 171.273 231.65 171.783 232.236 172.093C233.654 172.761 236.539 170.452 236.855 169.619C237.01 167.833 237.01 166.036 236.855 164.25Z" fill="#9A4A4D"/>
<path d="M236.855 164.25C236.316 165.024 234.416 165.422 233.15 166.266C232.109 166.761 231.305 167.645 230.911 168.728C230.694 169.355 230.708 170.039 230.951 170.656C231.194 171.273 231.65 171.783 232.236 172.093C233.654 172.761 236.539 170.452 236.855 169.619C237.01 167.833 237.01 166.036 236.855 164.25Z" fill="#E6BE3E"/>
<path opacity="0.3" d="M236.855 164.25C236.316 165.024 234.416 165.422 233.15 166.266C232.109 166.761 231.305 167.645 230.911 168.728C230.694 169.355 230.708 170.039 230.951 170.656C231.194 171.273 231.65 171.783 232.236 172.093C233.654 172.761 236.539 170.452 236.855 169.619C237.01 167.833 237.01 166.036 236.855 164.25Z" fill="black"/>
<path d="M237.734 162.843C237.382 163.131 237.11 163.504 236.944 163.927C236.777 164.35 236.723 164.808 236.785 165.258C236.866 166.153 236.665 167.051 236.211 167.827C235.757 168.602 235.072 169.217 234.252 169.584C231.966 170.757 231.697 172.011 232.916 173.102C233.702 173.721 234.7 174.007 235.694 173.899C235.694 173.899 239.094 173.125 239.774 170.581C240.454 168.037 239.153 163.969 237.734 162.843Z" fill="#E6BE3E"/>
<path opacity="0.2" d="M237.734 162.843C237.382 163.131 237.11 163.504 236.944 163.927C236.777 164.35 236.723 164.808 236.785 165.258C236.866 166.153 236.665 167.051 236.211 167.827C235.757 168.602 235.072 169.217 234.252 169.584C231.966 170.757 231.697 172.011 232.916 173.102C233.702 173.721 234.7 174.007 235.694 173.899C235.694 173.899 239.094 173.125 239.774 170.581C240.454 168.037 239.153 163.969 237.734 162.843Z" fill="black"/>
<path d="M238.027 174.614C235.823 174.614 234.932 173.664 235.952 172.398C236.456 171.777 237.383 171.519 237.957 170.886C238.612 170.243 239.026 169.394 239.129 168.482C239.329 166.231 236.597 163.887 238.192 161.917C238.367 162.996 238.813 163.605 240.396 164.895C241.402 165.711 242.13 166.819 242.478 168.067C242.827 169.314 242.779 170.639 242.342 171.859C241.802 173.441 239.446 174.614 238.027 174.614Z" fill="#E6BE3E"/>
<path opacity="0.1" d="M238.027 174.614C235.823 174.614 234.932 173.664 235.952 172.398C236.456 171.777 237.383 171.519 237.957 170.886C238.612 170.243 239.026 169.394 239.129 168.482C239.329 166.231 236.597 163.887 238.192 161.917C238.367 162.996 238.813 163.605 240.396 164.895C241.402 165.711 242.13 166.819 242.478 168.067C242.827 169.314 242.779 170.639 242.342 171.859C241.802 173.441 239.446 174.614 238.027 174.614Z" fill="black"/>
<path opacity="0.2" d="M242.6 172.351C242.846 171.537 242.886 170.675 242.717 169.842C242.544 170.657 242.134 171.402 241.536 171.982C240.939 172.562 240.183 172.952 239.364 173.102C238.639 173.319 237.88 173.402 237.125 173.348C236.257 173.266 235.765 172.937 235.8 172.609C235.832 172.553 235.872 172.502 235.917 172.457L236.058 172.281L236.14 172.211C236.153 172.186 236.174 172.165 236.199 172.152L236.398 171.999L236.48 171.929L236.879 171.671C237.148 171.507 237.383 171.366 237.535 171.249L237.629 171.167L237.793 171.026L237.934 170.874C238.011 170.798 238.081 170.716 238.145 170.628L238.25 170.499L238.414 170.276C238.469 170.197 238.52 170.115 238.567 170.03C238.69 169.818 238.792 169.594 238.872 169.362C238.872 169.303 238.872 169.244 238.872 169.221C238.337 170.259 237.427 171.055 236.328 171.448C235.382 171.853 234.337 171.967 233.326 171.777C232.388 171.636 232.353 171.12 232.353 171.062C232.818 170.498 233.403 170.046 234.065 169.737C234.436 169.538 234.785 169.303 235.108 169.033C234.718 169.283 234.296 169.48 233.854 169.62C233.137 169.838 232.384 169.913 231.638 169.842C230.806 169.666 230.677 169.268 230.806 168.67L230.735 168.869C230.518 169.496 230.532 170.18 230.775 170.797C231.018 171.414 231.474 171.923 232.06 172.234C232.18 172.624 232.417 172.968 232.74 173.219C233.526 173.838 234.524 174.124 235.519 174.016C235.83 174.305 236.203 174.521 236.608 174.649C237.013 174.777 237.442 174.813 237.863 174.755C238.87 174.689 239.839 174.348 240.665 173.77C241.431 173.76 242.179 173.543 242.83 173.14C243.48 172.737 244.009 172.164 244.358 171.484C244.67 170.868 244.804 170.178 244.745 169.491C244.711 170.126 244.489 170.738 244.107 171.247C243.725 171.756 243.201 172.141 242.6 172.351Z" fill="black"/>
<path opacity="0.15" d="M361.631 208.613C373.355 215.389 373.355 226.363 361.631 233.139C349.907 239.915 330.88 239.915 319.156 233.139C307.432 226.363 307.432 215.389 319.156 208.613C330.88 201.836 349.907 201.848 361.631 208.613Z" fill="black"/>
<path d="M360.963 206.784C349.603 200.23 331.185 200.23 319.824 206.784V205.611C313.88 209.035 311.055 213.584 311.325 218.074C311.055 222.564 313.88 227.113 319.824 230.536C331.185 237.102 349.603 237.102 360.963 230.536C372.323 223.971 372.323 213.349 360.963 206.784Z" fill="#E6BE3E"/>
<path opacity="0.4" d="M360.963 206.784C349.603 200.23 331.185 200.23 319.824 206.784V205.611C313.88 209.035 311.055 213.584 311.325 218.074C311.055 222.564 313.88 227.113 319.824 230.536C331.185 237.102 349.603 237.102 360.963 230.536C372.323 223.971 372.323 213.349 360.963 206.784Z" fill="black"/>
<path d="M360.963 205.611C372.323 212.165 372.323 222.799 360.963 229.364C349.603 235.929 331.185 235.917 319.824 229.364C308.464 222.81 308.464 212.165 319.824 205.611C331.185 199.058 349.603 199.046 360.963 205.611Z" fill="#E6BE3E"/>
<path d="M360.963 205.611C372.323 212.165 372.323 222.799 360.963 229.364C349.603 235.929 331.185 235.917 319.824 229.364C308.464 222.81 308.464 212.165 319.824 205.611C331.185 199.058 349.603 199.046 360.963 205.611Z" fill="#E6BE3E"/>
<path opacity="0.2" d="M360.963 205.611C372.323 212.165 372.323 222.799 360.963 229.364C349.603 235.929 331.185 235.917 319.824 229.364C308.464 222.81 308.464 212.165 319.824 205.611C331.185 199.058 349.603 199.046 360.963 205.611Z" fill="black"/>
<path opacity="0.3" d="M326.448 210.5C318.64 215.014 318.64 222.318 326.448 226.82C334.256 231.322 346.918 231.333 354.726 226.82C362.534 222.306 362.534 215.014 354.726 210.5C346.918 205.987 334.244 205.963 326.448 210.5Z" fill="black"/>
<path d="M327.41 211.063C320.129 215.26 320.129 222.072 327.41 226.304C334.69 230.536 346.472 230.501 353.753 226.304C361.033 222.107 361.033 215.295 353.753 211.063C346.472 206.831 334.678 206.854 327.41 211.063Z" fill="#E6BE3E"/>
<path opacity="0.2" d="M327.41 211.063C320.129 215.26 320.129 222.072 327.41 226.304C334.69 230.536 346.472 230.501 353.753 226.304C361.033 222.107 361.033 215.295 353.753 211.063C346.472 206.831 334.678 206.854 327.41 211.063Z" fill="black"/>
<path d="M225.553 218.578L197.006 208.601L196.361 208.109L196.525 208.718C196.585 208.937 196.698 209.138 196.853 209.303C197.009 209.469 197.202 209.594 197.416 209.668L225.706 219.539L225.553 218.578Z" fill="#263238"/>
<path d="M225.553 218.344C225.553 219.657 225.553 222.259 229.68 224.088C233.807 225.917 238.438 223.854 238.426 221.122L225.553 218.344Z" fill="#37474F"/>
<path d="M228.379 221.79C231.321 223.467 235.319 223.889 237.301 222.728C239.282 221.568 238.555 218.988 235.648 217.23C232.74 215.471 228.613 215.178 226.632 216.339C226.294 216.55 226.016 216.844 225.823 217.193C225.63 217.541 225.529 217.933 225.53 218.332C225.553 219.446 226.526 220.735 228.379 221.79Z" fill="#455A64"/>
<path d="M196.361 207.276C196.528 206.987 196.79 206.765 197.102 206.648C197.414 206.53 197.757 206.524 198.073 206.631L227.382 216.89C228.273 217.206 228.555 217.828 228.027 218.297C227.646 218.535 227.216 218.683 226.769 218.73C226.322 218.776 225.87 218.72 225.448 218.566L196.783 208.554C196.666 208.505 196.56 208.431 196.473 208.337C196.386 208.244 196.321 208.133 196.281 208.011C196.241 207.89 196.227 207.762 196.241 207.635C196.255 207.508 196.296 207.386 196.361 207.276Z" fill="#455A64"/>
<path opacity="0.1" d="M237.664 218.977C237.107 218.273 236.423 217.681 235.648 217.23C232.81 215.518 228.613 215.178 226.632 216.339L226.374 216.526L198.073 206.631C197.757 206.524 197.414 206.53 197.102 206.648C196.79 206.765 196.528 206.987 196.361 207.276C196.271 207.437 196.23 207.62 196.244 207.804C196.584 206.631 197.498 207.065 198.882 207.511C200.265 207.956 226.62 217.159 226.62 217.159C228.193 216.28 230.038 216.025 231.79 216.444C233.926 216.796 235.942 217.666 237.664 218.977Z" fill="white"/>
<path opacity="0.1" d="M237.406 220.29C237.243 219.785 236.927 219.343 236.503 219.023C236.621 220.606 234.686 221.286 232.154 221.016C229.235 220.712 226.468 218.894 226.62 217.394C226.494 217.572 226.399 217.77 226.339 217.98C225.823 220.055 230.055 222.775 233.373 222.916C236.691 223.056 237.805 221.732 237.406 220.29Z" fill="black"/>
<path d="M315.826 198.788L344.362 188.823L345.019 188.331L344.854 188.929C344.793 189.148 344.681 189.35 344.526 189.517C344.371 189.685 344.178 189.812 343.963 189.89L315.674 199.75L315.826 198.788Z" fill="#263238"/>
<path d="M315.826 198.566C315.826 199.867 315.826 202.47 311.688 204.299C307.549 206.128 302.93 204.076 302.954 201.332L315.826 198.566Z" fill="#37474F"/>
<path d="M312.931 202.001C309.976 203.689 305.978 204.111 303.997 202.95C302.016 201.79 302.743 199.199 305.662 197.44C308.581 195.682 312.696 195.389 314.666 196.549C315.001 196.764 315.279 197.058 315.473 197.406C315.667 197.754 315.773 198.144 315.779 198.542C315.826 199.656 314.771 200.957 312.931 202.001Z" fill="#455A64"/>
<path d="M344.948 187.487C344.781 187.196 344.517 186.973 344.202 186.857C343.887 186.741 343.541 186.74 343.225 186.853L313.915 197.112C313.024 197.417 312.743 198.05 313.271 198.507C313.653 198.748 314.085 198.897 314.535 198.944C314.984 198.991 315.438 198.933 315.862 198.777L344.514 188.764C344.633 188.716 344.74 188.643 344.828 188.55C344.916 188.457 344.983 188.346 345.024 188.225C345.065 188.104 345.08 187.975 345.067 187.847C345.054 187.72 345.013 187.597 344.948 187.487Z" fill="#455A64"/>
<path opacity="0.1" d="M303.645 199.187C304.203 198.484 304.887 197.892 305.662 197.44C308.499 195.728 312.696 195.388 314.666 196.549C314.76 196.605 314.85 196.667 314.935 196.737L343.225 186.853C343.541 186.74 343.886 186.741 344.202 186.857C344.517 186.973 344.781 187.196 344.948 187.487C345.04 187.65 345.077 187.839 345.054 188.026C344.725 186.853 343.799 187.276 342.416 187.733C341.032 188.19 314.654 197.381 314.654 197.381C313.089 196.492 311.243 196.236 309.496 196.666C307.369 197.016 305.36 197.882 303.645 199.187Z" fill="white"/>
<path opacity="0.1" d="M303.892 200.512C304.06 200.006 304.379 199.564 304.806 199.246C304.677 200.817 306.612 201.497 309.156 201.239C312.075 200.934 314.83 199.105 314.677 197.616C314.806 197.789 314.901 197.983 314.959 198.19C315.475 200.266 311.254 202.997 307.925 203.138C304.595 203.279 303.493 201.954 303.892 200.512Z" fill="black"/>
<g opacity="0.15">
<path opacity="0.15" d="M260.443 257.372C254.183 260.983 254.183 266.845 260.443 270.467C266.704 274.09 276.857 274.078 283.117 270.467C289.378 266.857 289.378 260.983 283.117 257.372C276.857 253.761 266.704 253.749 260.443 257.372Z" fill="black"/>
</g>
<path d="M282.121 264.852C287.654 259.201 290.902 245.109 285.509 240.642H258.063C252.67 245.109 255.918 259.201 261.44 264.84L261.592 264.992C261.592 265.063 261.721 265.121 261.78 265.18C261.94 265.337 262.108 265.486 262.284 265.625L262.413 265.731L262.835 266.047C263.063 266.215 263.302 266.368 263.55 266.505C266.102 267.799 268.924 268.474 271.786 268.474C274.648 268.474 277.47 267.799 280.022 266.505C280.256 266.364 280.503 266.212 280.737 266.047C280.972 265.883 280.995 265.848 281.124 265.754L281.288 265.625C281.459 265.493 281.62 265.348 281.769 265.192L281.992 264.981L282.121 264.852Z" fill="#EBEBEB"/>
<path d="M260.443 238.79C254.183 242.401 254.183 248.263 260.443 251.885C266.704 255.508 276.857 255.496 283.117 251.885C289.378 248.274 289.378 242.401 283.117 238.79C276.857 235.179 266.704 235.273 260.443 238.79Z" fill="#FAFAFA"/>
<path d="M264.887 241.404C261.076 243.597 261.076 247.161 264.887 249.365C267.025 250.45 269.388 251.016 271.786 251.016C274.184 251.016 276.548 250.45 278.685 249.365C282.496 247.161 282.496 243.597 278.685 241.404C276.548 240.319 274.184 239.753 271.786 239.753C269.388 239.753 267.025 240.319 264.887 241.404Z" fill="#EBEBEB"/>
<path d="M278.686 245.179C276.548 244.094 274.184 243.528 271.786 243.528C269.388 243.528 267.025 244.094 264.887 245.179C263.937 245.665 263.129 246.388 262.542 247.278C263.133 248.162 263.94 248.88 264.887 249.365C267.025 250.45 269.388 251.016 271.786 251.016C274.184 251.016 276.548 250.45 278.686 249.365C279.605 248.868 280.387 248.151 280.96 247.278C280.39 246.398 279.608 245.676 278.686 245.179Z" fill="#E0E0E0"/>
<path d="M265.062 247.149C262.92 244.982 261.078 242.537 259.587 239.88C257.055 235.402 256.598 229.422 257.899 228.684C259.201 227.945 264.523 233.913 264.523 233.913C264.034 231.404 263.845 228.846 263.96 226.292C264.183 222.306 265.133 218.695 266.305 217.968C267.478 217.241 269.998 222.259 271.088 225.894C272.179 229.528 272.835 232.518 272.835 232.518C273.277 229.682 273.931 226.884 274.793 224.147C276.118 220.372 277.326 219.516 278.31 219.891C279.295 220.266 279.858 222.025 280.127 227.054C280.225 229.456 280.15 231.862 279.905 234.253C279.905 234.253 281.781 232.201 283.856 230.196C286.142 228.004 287.127 227.699 287.771 228.121C288.416 228.543 288.604 231.955 285.063 238.356C283.309 241.615 281.059 244.582 278.392 247.149C278.392 247.149 273.433 250.314 265.062 247.149Z" fill="#E6BE3E"/>
<g opacity="0.25">
<path opacity="0.25" d="M265.062 247.149C262.92 244.982 261.078 242.537 259.587 239.88C257.055 235.402 256.598 229.422 257.899 228.684C259.201 227.945 264.523 233.913 264.523 233.913C264.034 231.404 263.845 228.846 263.96 226.292C264.183 222.306 265.133 218.695 266.305 217.968C267.478 217.241 269.998 222.259 271.088 225.894C272.179 229.528 272.835 232.518 272.835 232.518C273.277 229.682 273.931 226.884 274.793 224.147C276.118 220.372 277.326 219.516 278.31 219.891C279.295 220.266 279.858 222.025 280.127 227.054C280.225 229.456 280.15 231.862 279.905 234.253C279.905 234.253 281.781 232.201 283.856 230.196C286.142 228.004 287.127 227.699 287.771 228.121C288.416 228.543 288.604 231.955 285.063 238.356C283.309 241.615 281.059 244.582 278.392 247.149C278.392 247.149 273.433 250.314 265.062 247.149Z" fill="black"/>
</g>
<path opacity="0.1" d="M268.287 238.215C268.287 238.215 264.769 228.836 264.523 221.99C264.221 223.407 264.033 224.845 263.96 226.292C263.846 228.846 264.034 231.404 264.523 233.913C264.523 233.913 266.481 237.219 268.287 238.215Z" fill="black"/>
<path opacity="0.1" d="M273.879 248.462C271.183 248.006 268.623 246.952 266.387 245.379C262.87 242.764 257.723 234.476 257.196 231.158C257.27 234.211 258.074 237.202 259.541 239.88C261.032 242.537 262.873 244.982 265.016 247.149C267.824 248.282 270.862 248.732 273.879 248.462Z" fill="black"/>
</svg>
